<svg xmlns="http://www.w3.org/2000/svg" viewBox="0 0 660.95329 1057.4439" height="298.434mm" width="186.536mm"><title>Cell tower</title><g stroke="#fffcff" stroke-width="8.331"><path d="M567.244 905.177l-236.75-529.312L93.74 905.177" fill="none"/><path d="M330.467 335.454v703.564" fill="none"/><path d="M235.698 431.664c-52.33-53.137-52.35-139.283-.01-192.42 52.34-53.128 137.196-53.12 189.527.018 52.33 53.128 52.33 139.256-.01 192.384" fill="none"/><path d="M172.534 495.81c-87.236-88.556-87.254-232.143-.027-320.694 87.223-88.554 228.657-88.536 315.893.02 87.2 88.535 87.19 232.1-.027 320.655" fill="none"/><path d="M109.37 559.955C-12.76 435.968-12.778 234.95 109.332 110.98c122.11-123.968 320.114-123.94 442.242.046C673.658 234.968 673.64 435.95 551.53 559.92" fill="none"/><path d="M141.183 798.968l189.253 124.35 189.254-124.35" fill="none"/><path d="M201.46 664.215l128.984 78.968 128.984-78.968" fill="none"/></g></svg>