<?xml version="1.0" encoding="UTF-8" standalone="no"?>
<!-- Created with Inkscape (http://www.inkscape.org/) -->

<svg
   xmlns:dc="http://purl.org/dc/elements/1.1/"
   xmlns:cc="http://creativecommons.org/ns#"
   xmlns:rdf="http://www.w3.org/1999/02/22-rdf-syntax-ns#"
   xmlns:svg="http://www.w3.org/2000/svg"
   xmlns="http://www.w3.org/2000/svg"
   xmlns:sodipodi="http://sodipodi.sourceforge.net/DTD/sodipodi-0.dtd"
   xmlns:inkscape="http://www.inkscape.org/namespaces/inkscape"
   width="134.96126mm"
   height="123.43435mm"
   viewBox="0 0 478.20918 437.3658"
   id="svg4180"
   version="1.1"
   inkscape:version="0.91 r13725"
   sodipodi:docname="dintels-logo.svg">
  <defs
     id="defs4182" />
  <sodipodi:namedview
     id="base"
     pagecolor="#ffffff"
     bordercolor="#666666"
     borderopacity="1.0"
     inkscape:pageopacity="0.0"
     inkscape:pageshadow="2"
     inkscape:zoom="0.49497475"
     inkscape:cx="479.47843"
     inkscape:cy="41.157012"
     inkscape:document-units="px"
     inkscape:current-layer="layer1"
     showgrid="false"
     fit-margin-top="0"
     fit-margin-left="0"
     fit-margin-right="0"
     fit-margin-bottom="0"
     inkscape:window-width="1511"
     inkscape:window-height="878"
     inkscape:window-x="-8"
     inkscape:window-y="-8"
     inkscape:window-maximized="1" />
  <metadata
     id="metadata4185">
    <rdf:RDF>
      <cc:Work
         rdf:about="">
        <dc:format>image/svg+xml</dc:format>
        <dc:type
           rdf:resource="http://purl.org/dc/dcmitype/StillImage" />
        <dc:title></dc:title>
      </cc:Work>
    </rdf:RDF>
  </metadata>
  <g
     inkscape:label="Layer 1"
     inkscape:groupmode="layer"
     id="layer1"
     transform="translate(175.21585,265.95048)">
    <path
       style="opacity:1;fill:#000000;fill-opacity:1;fill-rule:evenodd;stroke:none;stroke-width:10;stroke-linecap:round;stroke-linejoin:bevel;stroke-miterlimit:4;stroke-dasharray:10, 20;stroke-dashoffset:0;stroke-opacity:1"
       d="m 64.540395,-265.93884 c -0.63645,-0.0166 -1.274212,-0.0156 -1.914062,0.004 -13.9125,-0.0375 -26.35626,7.8375 -36.21875,17 -63.9375,55.29999 -128.081253,110.3875 -191.968753,165.750003 -2.3875,2.175 -5.1375,4.2125 -6.375,7.3125 -4.725,11 -4.9375,25.15 3.3125,34.5625 5.1875,6.1625 13.63125,7.825 21.28125,8.3125 8.625,0.2625 17.21875,0.7875 25.84375,0.625 -0.0375,54.9625 -0.375,109.9125 -0.5,164.874997 -0.175,9.3875 2.09375,19.175 7.96875,26.6875 5.725,7.3625 15.056253,11.21875 24.218753,11.65625 20.775,0.8875 41.5875,0.38125 62.375,0.53125 79.60001,-0.175 159.225007,0.3875 238.812497,-0.375 9.875,0.1 20.07498,-3.09375 27.4375,-9.84375 6.75,-6.4375 9.60001,-15.95625 9.5,-25.09375 0.58751,-56.337497 0.26251,-112.693747 0.375,-169.031247 10.1125,0.125 20.225,0.4875 30.3125,-0.375 5.35,-0.275 10.71251,-1.98125 14.5625,-5.84375 11.8,-10.1375 12.55625,-30.0125 2.09375,-41.3125 -26.63751,-23.462503 -53.95623,-46.118753 -80.84375,-69.281253 -0.125,-16.4 0.97501,-32.78125 0.5,-49.15625 -7.0375,-16.175 -23.225,-29.25 -41.375,-29.25 -13.0375,-0.325 -25.03125,5.56251 -36.15625,11.6875 -15.55,-13.22499 -31.5,-25.9625 -47.312497,-38.875 -7.26563,-6.0586 -16.383028,-10.31546 -25.929688,-10.56641 z m -2.289062,14.94141 c 0.54805,-0.0127 1.0711,-0.0266 1.625,0 5.85001,0.025 11.3375,2.725 15.875,6.25 19.33751,15.35 38.124997,31.3875 57.499997,46.6875 11,-7.2625 22.8625,-15.21875 36.5625,-15.15625 11.58751,-0.0375 21.20624,8.275 26.78125,17.8125 -0.33751,15.5125 -0.175,31.03125 -0.75,46.53125 0.23749,2.4625 -0.94375,5.75625 1.53125,7.40625 27.3625,23.1 54.65625,46.281253 81.71875,69.718753 7.38749,5.5375 6.60626,19.05 -1.90625,23.0625 -15.6125,2.025 -31.41873,0.58125 -47.09375,0.15625 -0.0124,34.5 -0.0187,69.01875 -0.0312,103.53125 0.175,23.7125 -0.73749,47.381247 -0.5625,71.093747 -0.45,7.7625 1.3375,16.69375 -4,23.21875 -5.42499,6.025 -14.18125,7.0375 -21.84375,7.0625 -96.28751,0.1249 -192.556237,0.20625 -288.843747,0.0312 -6.6,-0.1625 -14.01875,-0.0312 -19.343753,-4.59375 -5.6875,-5.1375 -6.72501,-13.34375 -6.5625,-20.59375 0.375,-59.474997 0.36875,-118.962497 0.59375,-178.437497 -15.34999,-0.2875 -30.8125,0.675 -46.0625,-1.4375 -5.45,-0.675 -7.95,-6.56875 -7.75,-11.46875 0.225,-4.025 0.425,-8.85625 4.0625,-11.40625 65.362493,-56.725003 131.050003,-113.031263 196.500003,-169.656253 6.21095,-5.13281 13.77926,-9.62216 22,-9.8125 z m -0.9375,90.1875 c -20.45,0.2875 -40.7625,7.375 -56.8750005,20 -17.7624995,13.675 -30.3687495,33.85 -34.8437495,55.812503 -4.925,23.55 -0.54375,48.95 12.21875,69.375 8.9249995,13.5125003 18.5125095,26.95 23.8749995,42.375 4.9000005,14.9375 5.1562505,30.8625 5.3437505,46.4375 35.2,-5.15 70.35,-10.5125 105.562497,-15.625 1,-10.275 1.33125,-20.93125 5.53125,-30.53125 4.75,-11.8625 10.44375,-23.3374997 17.09375,-34.2499997 3.8125,-7.4750003 8.55625,-14.5062503 11.65625,-22.3437503 8.875,-21.475 9.425,-46.2125 1.5625,-68.0625 -7.4125,-21.050003 -22.6375,-39.168753 -41.9375,-50.343753 -14.824997,-8.6375 -32.024987,-13.11875 -49.187497,-12.84375 z m 2.71875,18.40625 c 5.16732,0.0155 10.32853,0.52109 15.40625,1.5 20.0625,3.9125 39.075007,15.26875 50.374997,32.53125 8.3,12.287503 11.98125,27.293753 11.71875,42.031253 -0.70001,16.45 -5.4625,32.5625 -12.9375,47.1875 -6.1875,11.2875003 -13.56875,21.9125003 -18.96875,33.625 -4.6,10.3125 -6.23749,21.58125 -8.5625,32.53125 -0.5375,0.15 -1.587487,0.475 -2.124997,0.625 -24.4375,-0.14995 -48.90625,0.25625 -73.34375,-0.21875 0.2,-12.75 -2.66875,-25.58125 -8.59375,-36.90625 -5.625,-11.12499967 -13.6437505,-20.8 -19.6562505,-31.6875 -9.6749995,-19.175 -14.7749995,-41.26875 -10.9999995,-62.65625 3.11249,-16.437503 12.7187495,-31.356253 26.03125,-41.406253 14.70704,-11.21094 33.20151,-17.21155 51.65625,-17.15625 z m -2.5,15.3125 c -13.74256,0.19568 -27.4297,4.29687 -38.6875,12.28125 -11.4625,7.9625 -20.1687505,19.781253 -24.3437505,33.093753 -6.27499,19.825 -2.85,42.8125 10.125,59.25 21.0375105,27.4625003 64.7625105,34.6 92.6874975,13.6250003 1.65,-1.5500003 4.38751,-2.5687503 4.9375,-4.9062503 -2.1875,-3.25 -5.03125,-6.0125 -7.468747,-9.0625 -4.85001,2.0625 -9.08124,5.4 -14.15625,6.9375 -18.1875,6.3000003 -40.1,3.925 -55.125,-8.625 -16.975,-14.3375 -19.9249905,-40.2875 -11.3125,-59.9375 6.175,-14.2375 20.25625,-24.350003 35.59375,-26.250003 10.0375,-1.0375 20.5,-0.5875 29.9375,3.3125 10.6375,4.0875 19.224997,13.256253 22.312497,24.281253 2.58749,9.4625 3.19376,20.00625 -0.84375,29.15625 -2.48749,5.7 -8.099997,10.6875 -14.687497,9.875 -0.8875,-3.2375 -0.95,-6.6 -0.25,-9.875 2.38751,-12.975 4.75,-25.9625 7.1875,-38.9375 -5.21249,0.0875 -10.61249,-0.6375 -15.6875,0.25 -0.85,2.4125 -1.16876,4.95625 -1.59375,7.46875 -8.25,-11.4375 -24.94375,-12.71875 -36.84375,-6.71875 -8.475,4.3375 -14.2,12.84375 -16.5625,21.90625 -2.375,9.3875 -2.9125,19.95625 2,28.65625 4.1875,7.6875 12.28125,14.1625 21.40625,13.625 7.25,0.3375 14.13126,-3.24375 18.90625,-8.53125 0.4875,4.025 3.3,8.01875 7.625,8.34375 11.91251,1.25 23.768737,-3.96875 32.593747,-11.71875 13.52499,-12.0875 17.29999,-32.41875 12.4375,-49.40625 -5.15,-16.587503 -19.81875,-28.737503 -35.906247,-34.187503 -7.78124,-2.72344 -16.03572,-4.02366 -24.28125,-3.90625 z m -1.076172,48.845703 c 0.300031,-0.0078 0.600451,-0.0063 0.900391,0.0039 5.27895,0.1797 10.45547,3.13867 12.40625,8.29492 3.6,8.65 -0.81211,19.61172 -9.66211,22.94922 -5.675,2.3375 -13.312099,1.83672 -17.162109,-3.48828 -6.23749,-8.5375 -2.050782,-21.97461 7.449219,-26.22461 1.879885,-0.98096 3.968141,-1.48042 6.068359,-1.53516 z m 55.263669,149.7793 c -32.299997,4.5125 -64.606247,9.13125 -96.906247,13.65625 -2.725,0.3375 -5.475,0.6125 -8.0625,1.5625 0.525,3.2875 1.01251,6.575 1.5,9.875 34.3375,-5.175 68.70001,-10.31875 103.062497,-15.34375 0.10001,-3.2625 0.23125,-6.5125 0.40625,-9.75 z m -0.90625,22.46875 c -32.824997,4.65 -65.624997,9.537497 -98.437497,14.312497 1.675,3.3875 3.69375,6.59375 6.09375,9.53125 29.7875,-4.575 59.64999,-8.83125 89.437497,-13.40625 1.25,-3.4 2.18125,-6.899997 2.90625,-10.437497 z m -10.8125,24.156247 c -23.449997,3.1 -46.818757,6.81875 -70.218747,10.28125 10.6625,7.2875 24.11875,10.6125 36.90625,8.5625 13,-1.675 25,-8.80625 33.312497,-18.84375 z"
       id="rect4137"
       inkscape:connector-curvature="0" />
  </g>
</svg>
