<?xml version="1.0" encoding="UTF-8" standalone="no"?>
<!-- Created with Inkscape (http://www.inkscape.org/) -->

<svg
   xmlns:dc="http://purl.org/dc/elements/1.1/"
   xmlns:cc="http://creativecommons.org/ns#"
   xmlns:rdf="http://www.w3.org/1999/02/22-rdf-syntax-ns#"
   xmlns:svg="http://www.w3.org/2000/svg"
   xmlns="http://www.w3.org/2000/svg"
   xmlns:sodipodi="http://sodipodi.sourceforge.net/DTD/sodipodi-0.dtd"
   xmlns:inkscape="http://www.inkscape.org/namespaces/inkscape"
   width="157.07701mm"
   height="157.18896mm"
   viewBox="0 0 556.57209 556.96877"
   id="svg4180"
   version="1.1"
   inkscape:version="0.91 r13725"
   sodipodi:docname="dintels-logo.svg">
  <defs
     id="defs4182" />
  <sodipodi:namedview
     id="base"
     pagecolor="#ffffff"
     bordercolor="#666666"
     borderopacity="1.0"
     inkscape:pageopacity="0.0"
     inkscape:pageshadow="2"
     inkscape:zoom="0.35"
     inkscape:cx="-1178.1426"
     inkscape:cy="-292.94418"
     inkscape:document-units="px"
     inkscape:current-layer="layer1"
     showgrid="false"
     fit-margin-top="0"
     fit-margin-left="0"
     fit-margin-right="0"
     fit-margin-bottom="0"
     inkscape:window-width="1511"
     inkscape:window-height="878"
     inkscape:window-x="-8"
     inkscape:window-y="-8"
     inkscape:window-maximized="1" />
  <metadata
     id="metadata4185">
    <rdf:RDF>
      <cc:Work
         rdf:about="">
        <dc:format>image/svg+xml</dc:format>
        <dc:type
           rdf:resource="http://purl.org/dc/dcmitype/StillImage" />
        <dc:title></dc:title>
      </cc:Work>
    </rdf:RDF>
  </metadata>
  <g
     inkscape:label="Layer 1"
     inkscape:groupmode="layer"
     id="layer1"
     transform="translate(-550.28541,317.55076)">
    <path
       inkscape:connector-curvature="0"
       d="m 652.26963,-317.55072 c -6.39536,-0.005 -12.77031,0.51562 -19.125,1.28125 -29.7625,4.25 -56.8375,23.3125 -71.0625,49.75 -8.0125,14.625 -12.08125,31.3375 -11.78125,48 -0.025,115.39999 0,230.806243 0,346.21874 0.1,11.2875 -0.55625,22.74375 1.96875,33.84375 4.9875,25.175 20.64375,47.875 42.09375,61.875 16,10.65 35.2375,15.8875 54.375,16 120.4375,-0.0125 240.875,0.006 361.31252,-0.0312 30.3375,-0.225 60.1687,-15.225 77.9687,-39.875 12.2875,-16.6 18.9625,-37.225 18.8125,-57.875 0.05,-120.037497 0.019,-240.087497 -0.031,-360.12499 0.075,-12.45 -1.9687,-24.9625 -6.5312,-36.5625 -10.1,-26.45 -32.3313,-47.9 -59.1563,-56.9375 -12.35,-4.4 -25.55,-5.575 -38.5625,-5.4375 -115.83752,-0.0125 -231.68127,-0.0688 -347.53127,-0.0938 -0.91406,-0.0219 -1.83638,-0.0306 -2.75,-0.0312 z m 174.03125,55.65625 c 10.2375,-0.3125 20.09375,4.1 27.84375,10.5625 15.8125,12.9125 31.7625,25.65 47.3125,38.87499 11.125,-6.12499 23.11875,-12.01249 36.15625,-11.68749 18.15,0 34.3375,13.07499 41.375,29.24999 0.475,16.375 -0.625,32.75625 -0.5,49.15625 26.88752,23.1625 54.20622,45.818753 80.84372,69.281253 10.4625,11.3 9.7063,31.175 -2.0937,41.3125 -3.85,3.8625 -9.2125,5.56875 -14.5625,5.84375 -10.0875,0.8625 -20.2,0.5 -30.3125,0.375 -0.1125,56.3375 0.2125,112.69375 -0.375,169.031247 0.1,9.1375 -2.75,18.65625 -9.5,25.09375 -7.36252,6.75 -17.56252,9.94375 -27.43752,9.84375 -79.5875,0.7625 -159.2125,0.2 -238.8125,0.375 -20.7875,-0.15 -41.6,0.35625 -62.375,-0.53125 -9.1625,-0.4375 -18.49375,-4.29375 -24.21875,-11.65625 -5.875,-7.5125 -8.14375,-17.3 -7.96875,-26.6875 0.125,-54.962497 0.4625,-109.912497 0.5,-164.874997 -8.625,0.1625 -17.21875,-0.3625 -25.84375,-0.625 -7.65,-0.4875 -16.09375,-2.15 -21.28125,-8.3125 -8.25,-9.4125 -8.0375,-23.5625 -3.3125,-34.5625 1.2375,-3.1 3.9875,-5.1375 6.375,-7.3125 63.8875,-55.362503 128.03125,-110.450003 191.96875,-165.749993 9.8625,-9.1625 22.30625,-17.0375 36.21875,-17 z"
       id="path6"
       style="fill:#2c3e50;fill-opacity:1" />
    <path
       inkscape:connector-curvature="0"
       d="m 825.92588,-246.95697 c -8.22075,0.19034 -15.78906,4.67969 -22,9.8125 -65.45,56.62499 -131.1375,112.93124 -196.5,169.656243 -3.6375,2.55 -3.8375,7.38125 -4.0625,11.40625 -0.2,4.9 2.3,10.79375 7.75,11.46875 15.25,2.1125 30.7125,1.15 46.0625,1.4375 -0.225,59.475 -0.21875,118.9625 -0.59375,178.437497 -0.1625,7.25 0.875,15.45625 6.5625,20.59375 5.325,4.5625 12.74375,4.43125 19.34375,4.59375 96.2875,0.175 192.55625,0.0937 288.84375,-0.0312 7.6625,-0.025 16.41875,-1.0375 21.84375,-7.0625 5.3375,-6.525 3.55,-15.45625 4,-23.21875 -0.175,-23.7125 0.7375,-47.381247 0.5625,-71.093747 0.0125,-34.5125 0.0188,-69.0312497 0.0312,-103.53125 15.67502,0.425 31.48122,1.86875 47.09372,-0.15625 8.5125,-4.0125 9.2938,-17.525 1.9063,-23.0625 -27.0625,-23.4375 -54.35627,-46.618753 -81.71877,-69.718753 -2.475,-1.65 -1.29375,-4.94375 -1.53125,-7.40625 0.575,-15.5 0.4125,-31.01875 0.75,-46.53125 -5.575,-9.5375 -15.19375,-17.85 -26.78125,-17.8125 -13.7,-0.0625 -25.5625,7.89375 -36.5625,15.15625 -19.375,-15.3 -38.1625,-31.33749 -57.5,-46.68749 -4.5375,-3.525 -10.025,-6.225 -15.875,-6.25 -0.55391,-0.0266 -1.07695,-0.0127 -1.625,0 z m -0.9375,90.18749 c 17.1625,-0.275 34.3625,4.20625 49.1875,12.84375 19.3,11.175 34.525,29.29375 41.9375,50.343753 7.8625,21.85 7.3125,46.5875 -1.5625,68.0625 -3.1,7.8375 -7.84375,14.86875 -11.65625,22.3437503 -6.65,10.9125 -12.34375,22.3874997 -17.09375,34.2499997 -4.2,9.6 -4.53125,20.25625 -5.53125,30.53125 -35.2125,5.1125 -70.3625,10.475 -105.5625,15.625 -0.1875,-15.575 -0.44375,-31.5 -5.34375,-46.4375 -5.3625,-15.425 -14.95,-28.8624997 -23.875,-42.375 -12.7625,-20.425 -17.14375,-45.825 -12.21875,-69.375 4.475,-21.962503 17.08125,-42.137503 34.84375,-55.812503 16.1125,-12.625 36.425,-19.7125 56.875,-20 z m 54.40625,232.343753 c -0.175,3.2375 -0.30625,6.4875 -0.40625,9.75 -34.3625,5.025 -68.725,10.16875 -103.0625,15.343747 -0.4875,-3.299997 -0.975,-6.587497 -1.5,-9.874997 2.5875,-0.95 5.3375,-1.225 8.0625,-1.5625 32.3,-4.525 64.60625,-9.14375 96.90625,-13.65625 z m -0.90625,22.46875 c -0.725,3.537497 -1.65625,7.037497 -2.90625,10.437497 -29.7875,4.575 -59.65,8.83125 -89.4375,13.40625 -2.4,-2.9375 -4.41875,-6.14375 -6.09375,-9.53125 32.8125,-4.775 65.6125,-9.6625 98.4375,-14.312497 z m -10.8125,24.156247 c -8.3125,10.0375 -20.3125,17.16875 -33.3125,18.84375 -12.7875,2.05 -26.24375,-1.275 -36.90625,-8.5625 23.4,-3.4625 46.76875,-7.18125 70.21875,-10.28125 z"
       id="path32"
       style="fill:#2c3e50;fill-opacity:1" />
    <path
       inkscape:connector-curvature="0"
       d="m 827.70713,-138.36323 c -18.45473,-0.0553 -36.94922,5.94531 -51.65625,17.15625 -13.3125,10.05 -22.91875,24.968753 -26.03125,41.406253 -3.775,21.3875 1.325,43.48125 11,62.65625 6.0125,10.8875003 14.03125,20.5625003 19.65625,31.6875 5.925,11.325 8.79375,24.15625 8.59375,36.90625 24.4375,0.475 48.90625,0.0688 73.34375,0.21875 0.5375,-0.15 1.5875,-0.475 2.125,-0.625 2.325,-10.95 3.9625,-22.21875 8.5625,-32.53125 5.4,-11.7124997 12.78125,-22.3374997 18.96875,-33.625 7.475,-14.625 12.2375,-30.7375 12.9375,-47.1875 0.2625,-14.7375 -3.41875,-29.74375 -11.71875,-42.031253 -11.3,-17.2625 -30.3125,-28.61875 -50.375,-32.53125 -5.07773,-0.97891 -10.23892,-1.48452 -15.40625,-1.5 z m -2.5,15.3125 c 8.24553,-0.11741 16.5,1.18281 24.28125,3.90625 16.0875,5.45 30.75625,17.6 35.90625,34.187503 4.8625,16.9875 1.0875,37.31875 -12.4375,49.40625 -8.825,7.75 -20.68125,12.96875 -32.59375,11.71875 -4.325,-0.325 -7.1375,-4.31875 -7.625,-8.34375 -4.775,5.2875 -11.65625,8.86875 -18.90625,8.53125 -9.125,0.5375 -17.21875,-5.9375 -21.40625,-13.625 -4.9125,-8.7 -4.375,-19.26875 -2,-28.65625 2.3625,-9.0625 8.0875,-17.56875 16.5625,-21.90625 11.9,-6 28.59375,-4.71875 36.84375,6.71875 0.425,-2.5125 0.74375,-5.05625 1.59375,-7.46875 5.075,-0.8875 10.475,-0.1625 15.6875,-0.25 -2.4375,12.975 -4.8,25.9625 -7.1875,38.9375 -0.7,3.275 -0.6375,6.6375 0.25,9.875 6.5875,0.8125 12.2,-4.175 14.6875,-9.875 4.0375,-9.15 3.43125,-19.69375 0.84375,-29.15625 -3.0875,-11.025 -11.675,-20.19375 -22.3125,-24.281253 -9.4375,-3.9 -19.9,-4.35 -29.9375,-3.3125 -15.3375,1.9 -29.41875,12.012503 -35.59375,26.250003 -8.6125,19.65 -5.6625,45.6 11.3125,59.9375 15.025,12.5500003 36.9375,14.9250003 55.125,8.625 5.075,-1.5375 9.30625,-4.875 14.15625,-6.9375 2.4375,3.05 5.28125,5.8125 7.46875,9.0625003 -0.55,2.3375 -3.2875,3.35625 -4.9375,4.90625 -27.925,20.9749997 -71.65,13.8375 -92.6875,-13.6250003 -12.975,-16.4375 -16.4,-39.425 -10.125,-59.25 4.175,-13.3125 12.88125,-25.131253 24.34375,-33.093753 11.25781,-7.98438 24.94495,-12.08557 38.6875,-12.28125 z"
       id="path36"
       style="fill:#2c3e50;fill-opacity:1" />
    <path
       inkscape:connector-curvature="0"
       d="m 818.06338,-72.669477 c 6.875,-3.5875 16.5375,-0.7375 19.375,6.7625 3.6,8.65 -0.8125,19.6125 -9.6625,22.95 -5.675,2.3375 -13.3125,1.8375 -17.1625,-3.4875 -6.2375,-8.5375 -2.05,-21.975 7.45,-26.225 z"
       id="path74"
       style="fill:#2c3e50;fill-opacity:1" />
  </g>
</svg>
