<svg xmlns="http://www.w3.org/2000/svg" width="134.961mm" height="123.434mm" viewBox="0 0 478.20918 437.3658"><path d="M239.756.012c-.636-.017-1.274-.016-1.914.004-13.912-.038-26.356 7.837-36.22 17-63.936 55.3-128.08 110.387-191.967 165.75-2.388 2.175-5.138 4.212-6.375 7.312-4.725 11-4.938 25.15 3.312 34.563 5.188 6.163 13.63 7.826 21.28 8.313 8.626.263 17.22.788 25.845.625-.037 54.963-.375 109.913-.5 164.875-.175 9.388 2.094 19.175 7.97 26.688 5.724 7.363 15.055 11.22 24.218 11.657 20.775.887 41.587.38 62.375.53 79.6-.174 159.225.39 238.812-.374 9.875.1 20.075-3.094 27.438-9.844 6.75-6.438 9.6-15.957 9.5-25.094.587-56.338.262-112.694.375-169.032 10.112.125 20.225.488 30.312-.375 5.35-.276 10.713-1.982 14.563-5.844 11.8-10.138 12.556-30.013 2.093-41.313-26.637-23.462-53.956-46.12-80.843-69.28-.125-16.4.975-32.782.5-49.157-7.038-16.175-23.225-29.25-41.375-29.25-13.038-.325-25.032 5.562-36.157 11.687-15.55-13.225-31.5-25.962-47.312-38.875C258.42 4.52 249.303.263 239.756.012zm-177.505-251.01c.55-.012 1.072-.026 1.626 0 5.85.026 11.338 2.726 15.875 6.25 19.34 15.35 38.126 31.388 57.5 46.688 11-7.262 22.864-15.22 36.564-15.156 11.587-.038 21.206 8.275 26.78 17.812-.336 15.513-.174 31.032-.75 46.532.24 2.462-.943 5.756 1.532 7.406 27.363 23.1 54.657 46.28 81.72 69.72 7.387 5.536 6.605 19.05-1.907 23.06-15.614 2.026-31.42.582-47.095.157-.012 34.5-.02 69.02-.03 103.533.174 23.712-.74 47.38-.564 71.093-.45 7.763 1.34 16.694-4 23.22-5.424 6.024-14.18 7.037-21.842 7.062-96.288.124-192.557.206-288.844.03-6.6-.162-14.02-.03-19.344-4.593-5.687-5.137-6.725-13.344-6.562-20.594.375-59.474.368-118.96.593-178.436-15.35-.288-30.81.675-46.06-1.438-5.45-.675-7.95-6.568-7.75-11.468.224-4.025.424-8.857 4.06-11.407 65.364-56.724 131.05-113.03 196.5-169.655 6.212-5.133 13.78-9.622 22-9.812zm-.936 90.188c-20.45.288-40.763 7.375-56.875 20-17.764 13.675-30.37 33.85-34.845 55.813-4.925 23.55-.544 48.95 12.22 69.375C-9.262-2.11.324 11.328 5.688 26.753c4.9 14.937 5.155 30.862 5.343 46.437 35.2-5.15 70.35-10.512 105.562-15.625 1-10.275 1.33-20.93 5.53-30.53 4.75-11.864 10.445-23.34 17.095-34.25 3.813-7.476 8.556-14.507 11.656-22.345 8.875-21.475 9.425-46.212 1.563-68.062-7.414-21.05-22.64-39.17-41.94-50.344-14.824-8.638-32.024-13.12-49.186-12.844zm2.72 18.406c5.166.016 10.327.52 15.405 1.5 20.06 3.913 39.074 15.27 50.374 32.532 8.3 12.287 11.98 27.293 11.72 42.03-.7 16.45-5.464 32.563-12.94 47.188C122.41-7.866 115.027 2.76 109.627 14.47c-4.6 10.314-6.237 21.583-8.562 32.533-.538.15-1.588.475-2.125.625-24.44-.15-48.907.256-73.345-.22.2-12.75-2.67-25.58-8.594-36.905C11.377-.622 3.36-10.297-2.654-21.185c-9.675-19.175-14.775-41.27-11-62.656 3.113-16.44 12.72-31.357 26.03-41.407 14.708-11.21 33.203-17.212 51.658-17.157zm-2.5 15.313c-13.744.194-27.43 4.296-38.69 12.28-11.46 7.963-20.168 19.78-24.343 33.094-6.274 19.825-2.85 42.812 10.126 59.25C29.664 4.996 73.39 12.134 101.314-8.84c1.65-1.55 4.387-2.57 4.937-4.907-2.186-3.25-5.03-6.013-7.467-9.063-4.85 2.063-9.082 5.4-14.157 6.938-18.187 6.3-40.1 3.925-55.125-8.625C12.527-38.835 9.577-64.785 18.19-84.435c6.174-14.237 20.255-24.35 35.593-26.25 10.037-1.037 20.5-.587 29.937 3.313 10.638 4.087 19.225 13.256 22.313 24.28 2.587 9.463 3.193 20.007-.844 29.157-2.49 5.7-8.1 10.688-14.69 9.875-.886-3.237-.95-6.6-.25-9.875C92.64-66.91 95-79.897 97.44-92.872c-5.214.087-10.614-.638-15.69.25-.85 2.412-1.167 4.956-1.592 7.468-8.25-11.437-24.944-12.718-36.844-6.718-8.475 4.337-14.2 12.843-16.563 21.906-2.374 9.387-2.91 19.956 2 28.656 4.19 7.688 12.283 14.163 21.408 13.625 7.25.338 14.13-3.244 18.906-8.53.487 4.024 3.3 8.018 7.625 8.343 11.91 1.25 23.768-3.97 32.593-11.72 13.525-12.087 17.3-32.418 12.437-49.405-5.15-16.588-19.82-28.738-35.906-34.188-7.78-2.723-16.036-4.024-24.28-3.906zm-1.078 48.845c.3-.008.6-.007.9.003 5.28.18 10.456 3.14 12.407 8.295 3.6 8.65-.812 19.612-9.662 22.95-5.674 2.337-13.31 1.836-17.16-3.49-6.24-8.536-2.052-21.973 7.448-26.223 1.88-.98 3.968-1.48 6.068-1.535zm55.264 149.78c-32.3 4.51-64.606 9.13-96.906 13.655-2.725.338-5.475.613-8.063 1.563.526 3.287 1.014 6.575 1.5 9.875 34.34-5.175 68.7-10.32 103.064-15.344.1-3.263.23-6.513.406-9.75zm-.906 22.468c-32.825 4.65-65.625 9.537-98.438 14.312 1.675 3.388 3.694 6.594 6.094 9.53 29.788-4.574 59.65-8.83 89.438-13.405 1.25-3.4 2.18-6.9 2.906-10.437zM104 118.16c-23.45 3.1-46.817 6.818-70.217 10.28 10.662 7.288 24.118 10.613 36.906 8.563 13-1.675 25-8.807 33.31-18.844z" fill-rule="evenodd"/></svg>