<?xml version="1.0" encoding="UTF-8" standalone="no"?>
<svg
   xmlns:dc="http://purl.org/dc/elements/1.1/"
   xmlns:cc="http://creativecommons.org/ns#"
   xmlns:rdf="http://www.w3.org/1999/02/22-rdf-syntax-ns#"
   xmlns:svg="http://www.w3.org/2000/svg"
   xmlns="http://www.w3.org/2000/svg"
   xmlns:sodipodi="http://sodipodi.sourceforge.net/DTD/sodipodi-0.dtd"
   xmlns:inkscape="http://www.inkscape.org/namespaces/inkscape"
   width="1938.9724pt"
   height="445.57501pt"
   viewBox="0 0 1938.9724 445.57501"
   version="1.1"
   id="svg2"
   inkscape:version="0.91 r13725"
   sodipodi:docname="dintels-logo-name.svg">
  <metadata
     id="metadata108">
    <rdf:RDF>
      <cc:Work
         rdf:about="">
        <dc:format>image/svg+xml</dc:format>
        <dc:type
           rdf:resource="http://purl.org/dc/dcmitype/StillImage" />
        <dc:title></dc:title>
      </cc:Work>
    </rdf:RDF>
  </metadata>
  <defs
     id="defs106" />
  <sodipodi:namedview
     pagecolor="#ffffff"
     bordercolor="#666666"
     borderopacity="1"
     objecttolerance="10"
     gridtolerance="10"
     guidetolerance="10"
     inkscape:pageopacity="0"
     inkscape:pageshadow="2"
     inkscape:window-width="1511"
     inkscape:window-height="878"
     id="namedview104"
     showgrid="false"
     inkscape:zoom="0.35355339"
     inkscape:cx="162.27845"
     inkscape:cy="414.46094"
     inkscape:window-x="-8"
     inkscape:window-y="-8"
     inkscape:window-maximized="1"
     inkscape:current-layer="svg2"
     fit-margin-top="0"
     fit-margin-left="0"
     fit-margin-right="0"
     fit-margin-bottom="0" />
  <path
     d="M 81.587374,2.6178612e-5 C 76.471086,-0.00380182 71.371126,0.41252618 66.287374,1.0250262 c -23.81,3.4 -45.47,18.6499998 -56.8499997,39.7999998 -6.41,11.7 -9.66499999,25.07 -9.42499999,38.4 -0.02,92.320004 0,184.645004 0,276.975004 0.08,9.03 -0.445,18.195 1.57499999,27.075 3.99,20.14 16.5149997,38.3 33.6749997,49.5 12.8,8.52 28.19,12.71 43.5,12.8 96.349996,-0.01 192.699996,0.005 289.049996,-0.025 24.27,-0.18 48.135,-12.18 62.375,-31.9 9.83,-13.28 15.17,-29.78 15.05,-46.3 0.04,-96.03 0.015,-192.07 -0.025,-288.100004 0.06,-9.96 -1.575,-19.97 -5.225,-29.25 -8.08,-21.16 -25.865,-38.32 -47.325,-45.5499998 -9.88,-3.52000002 -20.44,-4.46000002 -30.85,-4.35000002 -92.67004,-0.01004 -185.34504,-0.05504 -278.025036,-0.07504 -0.731248,-0.017504 -1.469104,-0.0244560014 -2.2,-0.02500000139 z M 220.81237,44.525026 c 8.19,-0.25 16.075,3.28 22.275,8.45 12.65,10.33 25.41,20.52 37.85,31.1 8.9,-4.9 18.495,-9.61 28.925,-9.35 14.52,0 27.47,10.46 33.1,23.4 0.38,13.100004 -0.5,26.205004 -0.4,39.325004 21.51,18.53 43.365,36.655 64.675,55.425 8.37,9.04 7.765,24.94 -1.675,33.05 -3.08,3.09 -7.37,4.455 -11.65,4.675 -8.07,0.69 -16.16,0.4 -24.25,0.3 -0.09,45.07 0.17,90.155 -0.3,135.225 0.08,7.31 -2.2,14.925 -7.6,20.075 -5.89,5.4 -14.05,7.955 -21.95,7.875 -63.67,0.61 -127.37,0.16 -191.05,0.3 -16.63,-0.12 -33.28,0.285 -49.899996,-0.425 -7.33,-0.35 -14.795,-3.435 -19.375,-9.325 -4.7,-6.01 -6.515,-13.84 -6.375,-21.35 0.1,-43.97 0.37,-87.93 0.4,-131.9 -6.9,0.13 -13.775,-0.29 -20.675,-0.5 -6.12,-0.39 -12.875,-1.72 -17.025,-6.65 -6.6,-7.53 -6.43,-18.85 -2.65,-27.65 0.99,-2.48 3.19,-4.11 5.1,-5.85 51.11,-44.29 102.424996,-88.36 153.574996,-132.600004 7.89,-7.33 17.845,-13.63 28.975,-13.6 z"
     id="path6"
     style="fill:#2c3e50;fill-opacity:1"
     inkscape:connector-curvature="0" />
  <path
     d="m 694.47237,37.885026 c 3.59,-0.03 7.3,-0.4 10.85,0.2 11.74,16.16 22.61,32.98 34.41,49.11 11.5,-16.42 22.78,-32.99 34.3,-49.4 3.75,0 7.5,-0.01 11.26,0.03 -0.06,26.65 0.2,53.32 -0.17,79.960004 -3.64,-0.37 -7.5,0.47 -10.99,-0.42 -0.25,-19.680004 0.11,-39.380004 -0.19,-59.070004 -11.04,15.56 -21.74,31.35 -32.67,46.980004 -0.6,0.73 -1.21,1.44 -1.82,2.15 -11.31,-16.380004 -22.61,-32.770004 -34.02,-49.070004 -0.41,19.8 0.14,39.62 -0.27,59.410004 -3.67,-0.07 -7.33,-0.07 -11,-0.01 -0.3,-25.850004 0,-51.720004 -0.13,-77.570004 0.11,-0.58 0.33,-1.73 0.44,-2.3 z"
     id="path8"
     style="fill:#2c3e50;fill-opacity:1"
     inkscape:connector-curvature="0" />
  <path
     d="m 558.88737,37.800026 c -9.56375,0 -19.115,0.015 -28.675,0.025 -11.81,-0.04 -22.53,10.485 -22.5,22.325 -0.07,15.42 0.045,30.83 -0.075,46.250004 -3.77,0.02 -7.54,0.015 -11.3,0.025 -0.03,3.77 -0.03,7.545 0,11.325 34.22,-0.01 68.455,-0.015 102.675,-0.025 0.03,-3.76 0.02,-7.515 0,-11.275 -3.77,-0.01 -7.555,-0.005 -11.325,-0.025 -0.15,-22.850004 0.02,-45.715004 -0.1,-68.575004 -9.565,-0.03 -19.13625,-0.05 -28.7,-0.05 z m -24.65,11.275 c 13.99,0.11 27.97,-0.115 41.95,0.125 0.34,17.34 0.015,34.7 0.175,52.050004 -0.04,1.64 0.095,3.325 -0.325,4.925 -1.57,0.5 -3.265,0.205 -4.875,0.275 -17.37,-0.08 -34.74,0.05 -52.1,-0.05 -0.09,-15.050004 -0.02,-30.110004 -0.05,-45.150004 -0.2,-3.99 1.715,-7.975 5.075,-10.175 2.93,-2.1 6.7,-2.01 10.15,-2 z"
     id="path10"
     style="fill:#2c3e50;fill-opacity:1"
     inkscape:connector-curvature="0" />
  <path
     d="m 626.73737,37.800026 c -2.41734,0.07078 -4.83,0.3525 -7.125,1.125 -9.03,2.87 -15.855,11.735 -15.925,21.275 -0.02,12.04 -0.115,24.085 0.025,36.125 0.29,11.620004 10.82,21.680004 22.45,21.400004 11.68,0 23.37,0.04 35.05,0 11.86,0.08 22.51,-10.65 22.35,-22.500004 0.04,-11.65 0.035,-23.3 -0.025,-34.95 0.01,-11.79 -10.555,-22.235 -22.275,-22.425 -10.7,-0.08 -21.41,0.02 -32.1,-0.05 -0.8025,-0.01 -1.61922,-0.02359 -2.425,0 z m 2.525,11.275 c 0.65031,0.0031 1.3025,0.0025 1.95,0 10.02,0.09 20.07,-0.08 30.1,0.1 5.79,0.1 10.93,5.205 10.95,11.025 0.1,11.69 0.09,23.385 0,35.075 0.02,5.860004 -5.155,11.135004 -11.025,11.125004 -11.66,0.08 -23.34,0.06 -35,0 -5.94,0.09 -11.28,-5.175 -11.2,-11.125004 -0.04,-11.68 -0.06,-23.36 0,-35.05 0,-4.93 3.665,-9.515 8.425,-10.675 1.8975,-0.4575 3.84906,-0.484375 5.8,-0.475 z"
     id="path12"
     style="fill:#2c3e50;fill-opacity:1"
     inkscape:connector-curvature="0" />
  <path
     d="m 820.43733,37.775026 c -2.79328,0.04453 -5.58248,0.2975 -8.2,1.325 -8.75992,3.05 -15.39496,11.79 -15.37496,21.15 0.01,19.13 0.035,38.245 0.025,57.375004 3.73004,0.13 7.475,0.085 11.225,0.075 0.06,-7.6 -0.035,-15.175 0.025,-22.775004 19.08008,-0.11 38.17008,-0.075 57.25008,-0.025 0.0499,7.600004 -8e-5,15.215004 0.0499,22.825004 3.78,0.01 7.54504,0.01 11.32504,0 -0.01,-19.200004 0.11,-38.400004 0,-57.600004 -0.31,-11.39 -10.04,-21.825 -21.55,-22.275 -10.66,-0.16 -21.34,-0.005 -32,-0.075 -0.92496,-0.01 -1.84392,-0.01484 -2.77504,0 z m 16.77504,11.325 c 5.68624,-0.0062 11.36496,0.01 17.05,0.1 5.86,0.01 11.14,5.165 11.1,11.075 0.09,7.74 0.025,15.475 0.025,23.225 -19.08,0.03 -38.14504,0.065 -57.22504,-0.025 0,-7.78 -0.13,-15.555 0.05,-23.325 0.01,-6.2 5.84,-11.355 11.95,-11.025 5.68,-0.005 11.36376,-0.01875 17.05,-0.025 z"
     id="path14"
     style="fill:#2c3e50;fill-opacity:1"
     inkscape:connector-curvature="0" />
  <path
     d="m 888.34237,37.795026 c 3.75,-0.03 7.51,-0.03 11.27,0 0.11,22.88 -0.06,45.75 0.07,68.620004 11.44,0 22.87,0.08 34.3,-0.05 0.05,-22.860004 -0.02,-45.710004 0.02,-68.570004 3.78,-0.04 7.56,-0.04 11.35,0.01 0.07,22.87 -0.08,45.75 0.04,68.620004 11.42,-0.01 22.83,0.02 34.25,-0.01 0.13,-22.880004 -0.03,-45.760004 0.06,-68.640004 3.78,-0.01 7.56,-0.02 11.34,0.01 0.02,26.66 0.03,53.31 -0.01,79.960004 -34.23,0 -68.45,-0.01 -102.68,-0.02 -0.04,-26.640004 -0.02,-53.280004 -0.01,-79.930004 z"
     id="path16"
     style="fill:#2c3e50;fill-opacity:1"
     inkscape:connector-curvature="0" />
  <path
     d="m 1002.5724,117.75503 c -0.05,-26.670004 -0.06,-53.330004 -0.01,-80.000004 3.81,0 7.63,-0.04 11.46,0.09 -0.09,11.4 -0.06,22.8 -0.02,34.2 19.01,-0.01 38.02,0 57.04,-0.02 0.02,-11.41 -0.03,-22.82 0.01,-34.23 3.81,-0.07 7.63,-0.06 11.46,-0.02 0.02,26.65 -0.01,53.29 -0.01,79.940004 -3.83,0.04 -7.67,0.18 -11.49,-0.12 0.11,-11.36 0.03,-22.720004 0.03,-34.070004 -19.01,-0.05 -38.03,0.01 -57.04,-0.04 -0.08,11.41 -0.03,22.820004 -0.03,34.230004 -3.8,0.05 -7.61,0.04 -11.4,0.04 z"
     id="path18"
     style="fill:#2c3e50;fill-opacity:1"
     inkscape:connector-curvature="0" />
  <path
     d="m 1093.9624,37.765026 c 3.8,-0.03 7.61,-0.04 11.43,0.02 0.04,21.09 -0.08,42.19 0.04,63.280004 19.06,-21.020004 38,-42.160004 56.98,-63.250004 3.84,-0.12 7.7,-0.09 11.56,-0.06 0.07,26.63 -0.12,53.26 0.08,79.900004 -3.84,0.2 -7.67,0.1 -11.49,0.12 -0.13,-21.500004 0.07,-43.000004 -0.11,-64.500004 -18.93,21.52 -38.05,42.88 -56.94,64.440004 -3.87,0.05 -7.73,0.14 -11.58,-0.07 0.1,-26.630004 -0.01,-53.250004 0.03,-79.880004 z"
     id="path20"
     style="fill:#2c3e50;fill-opacity:1"
     inkscape:connector-curvature="0" />
  <path
     d="m 1185.3924,37.745026 c 26.67,0.01 53.34,-0.05 80.02,0.02 -0.07,3.58 0.13,7.17 -0.04,10.75 -0.24,0.2 -0.74,0.6 -0.99,0.8 -22.5,0.11 -45.02,0.04 -67.53,0.03 -0.04,7.56 -0.03,15.12 -0.01,22.67 19.05,0.02 38.1,-0.09 57.15,0.06 -0.05,3.85 0.11,7.72 -0.18,11.57 -19.02,-0.16 -38.05,-0.19 -57.06,0 0.19,7.58 -0.02,15.17 0.12,22.760004 22.84,0.04 45.69,-0.03 68.54,0.03 -0.02,3.76 -0.03,7.51 0.01,11.27 -26.67,0.17 -53.34,0.02 -80.01,0.07 -0.05,-26.680004 -0.01,-53.360004 -0.02,-80.030004 z"
     id="path22"
     style="fill:#2c3e50;fill-opacity:1"
     inkscape:connector-curvature="0" />
  <path
     d="m 220.51237,56.475026 c -6.5766,0.152272 -12.63124,3.743752 -17.6,7.85 -52.36,45.300004 -104.909996,90.345004 -157.199996,135.725004 -2.91,2.04 -3.07,5.905 -3.25,9.125 -0.16,3.92 1.84,8.635 6.2,9.175 12.2,1.69 24.57,0.92 36.85,1.15 -0.18,47.58 -0.175,95.17 -0.475,142.75 -0.13,5.8 0.7,12.365 5.25,16.475 4.26,3.65 10.194996,3.545 15.474996,3.675 77.03,0.14 154.045,0.075 231.075,-0.025 6.13,-0.02 13.135,-0.83 17.475,-5.65 4.27,-5.22 2.84,-12.365 3.2,-18.575 -0.14,-18.97 0.59,-37.905 0.45,-56.875 0.01,-27.61 0.015,-55.225 0.025,-82.825 12.54,0.34 25.185,1.495 37.675,-0.125 6.81,-3.21 7.435,-14.02 1.525,-18.45 -21.65,-18.75 -43.485,-37.295 -65.375,-55.775 -1.98,-1.32 -1.035,-3.955 -1.225,-5.925 0.46,-12.4 0.33,-24.815 0.6,-37.225 -4.46,-7.630004 -12.155,-14.280004 -21.425,-14.250004 -10.96,-0.05 -20.45,6.315 -29.25,12.125 -15.5,-12.24 -30.53,-25.07 -46,-37.35 -3.63,-2.82 -8.02,-4.98 -12.7,-5 -0.44312,-0.02128 -0.86156,-0.01016 -1.3,0 z m -0.75,72.150004 c 13.73,-0.22 27.49,3.365 39.35,10.275 15.44,8.94 27.62,23.435 33.55,40.275 6.29,17.48 5.85,37.27 -1.25,54.45 -2.48,6.27 -6.275,11.895 -9.325,17.875 -5.32,8.73 -9.875,17.91 -13.675,27.4 -3.36,7.68 -3.625,16.205 -4.425,24.425 -28.17,4.09 -56.29,8.38 -84.45,12.5 -0.15,-12.46 -0.355,-25.2 -4.275,-37.15 -4.29,-12.34 -11.96,-23.09 -19.1,-33.9 -10.21,-16.34 -13.715,-36.66 -9.775,-55.5 3.58,-17.57 13.665,-33.71 27.875,-44.65 12.89,-10.1 29.14,-15.77 45.5,-16 z m 43.525,185.875 c -0.14,2.59 -0.245,5.19 -0.325,7.8 -27.49,4.02 -54.98,8.135 -82.45,12.275 -0.39,-2.64 -0.78,-5.27 -1.2,-7.9 2.07,-0.76 4.27,-0.98 6.45,-1.25 25.84,-3.62 51.685,-7.315 77.525,-10.925 z m -0.725,17.975 c -0.58,2.83 -1.325,5.63 -2.325,8.35 -23.83,3.66 -47.72,7.065 -71.55,10.725 -1.92,-2.35 -3.535,-4.915 -4.875,-7.625 26.25,-3.82 52.49,-7.73 78.75,-11.45 z m -8.65,19.325 c -6.65,8.03 -16.25,13.735 -26.65,15.075 -10.23,1.64 -20.995,-1.02 -29.525,-6.85 18.72,-2.77 37.415,-5.745 56.175,-8.225 z"
     id="path32"
     style="fill:#2c3e50;fill-opacity:1"
     inkscape:connector-curvature="0" />
  <path
     d="m 221.93737,143.35003 c -14.76378,-0.0442 -29.55937,4.75624 -41.325,13.725 -10.65,8.04 -18.335,19.975 -20.825,33.125 -3.02,17.11 1.06,34.785 8.8,50.125 4.81,8.71 11.225,16.45 15.725,25.35 4.74,9.06 7.035,19.325 6.875,29.525 19.55,0.38 39.125,0.055 58.675,0.175 0.43,-0.12 1.27,-0.38 1.7,-0.5 1.86,-8.76 3.17,-17.775 6.85,-26.025 4.32,-9.37 10.225,-17.87 15.175,-26.9 5.98,-11.7 9.79,-24.59 10.35,-37.75 0.21,-11.79 -2.735,-23.795 -9.375,-33.625 -9.04,-13.81 -24.25,-22.895 -40.3,-26.025 -4.06218,-0.78313 -8.19113,-1.18762 -12.325,-1.2 z m -2,12.25 c 6.59643,-0.0939 13.2,0.94624 19.425,3.125 12.87,4.36 24.605,14.08 28.725,27.35 3.89,13.59 0.87,29.855 -9.95,39.525 -7.06,6.2 -16.545,10.375 -26.075,9.375 -3.46,-0.26 -5.71,-3.455 -6.1,-6.675 -3.82,4.23 -9.325,7.095 -15.125,6.825 -7.3,0.43 -13.775,-4.75 -17.125,-10.9 -3.93,-6.96 -3.5,-15.415 -1.6,-22.925 1.89,-7.25 6.47,-14.055 13.25,-17.525 9.52,-4.8 22.875,-3.775 29.475,5.375 0.34,-2.01 0.595,-4.045 1.275,-5.975 4.06,-0.71 8.38,-0.13 12.55,-0.2 -1.95,10.38 -3.84,20.77 -5.75,31.15 -0.56,2.62 -0.51,5.31 0.2,7.9 5.27,0.65 9.76,-3.34 11.75,-7.9 3.23,-7.32 2.745,-15.755 0.675,-23.325 -2.47,-8.82 -9.34,-16.155 -17.85,-19.425 -7.55,-3.12 -15.92,-3.48 -23.95,-2.65 -12.27,1.52 -23.535,9.61 -28.475,21 -6.89,15.72 -4.53,36.48 9.05,47.95 12.02,10.04 29.55,11.94 44.1,6.9 4.06,-1.23 7.445,-3.9 11.325,-5.55 1.95,2.44 4.225,4.65 5.975,7.25 -0.44,1.87 -2.63,2.685 -3.95,3.925 -22.34,16.78 -57.32,11.07 -74.15,-10.9 -10.38,-13.15 -13.12,-31.54 -8.1,-47.4 3.34,-10.65 10.305,-20.105 19.475,-26.475 9.00625,-6.38751 19.95596,-9.66846 30.95,-9.825 z"
     id="path36"
     style="fill:#2c3e50;fill-opacity:1"
     inkscape:connector-curvature="0" />
  <path
     d="m 661.34237,182.82503 c 3.74,0.01 7.48,0.01 11.23,0.04 0.07,26.65 0.02,53.3 0.06,79.95 -3.77,0.01 -7.54,-0.01 -11.31,0.03 -0.5,-11.42 -0.05,-22.88 -0.21,-34.31 -18.98,-0.05 -37.95,0.07 -56.92,-0.05 -0.37,11.44 -0.03,22.9 -0.17,34.35 -3.81,-0.01 -7.61,0 -11.41,-0.01 0,-26.67 -0.01,-53.33 0.03,-79.99 3.79,-0.02 7.59,-0.02 11.39,0 0.01,11.39 -0.03,22.78 0.03,34.18 19.05,0.03 38.1,0.06 57.15,0 0.23,-11.4 -0.01,-22.8 0.13,-34.19 z"
     id="path40"
     style="fill:#2c3e50;fill-opacity:1"
     inkscape:connector-curvature="0" />
  <path
     d="m 1189.0124,182.84503 c 32,-0.1 64.01,0.05 96.01,-0.1 0.47,3.77 0.3,7.56 0.22,11.34 -11.42,0.51 -22.87,0.07 -34.3,0.26 -0.07,22.82 -0.02,45.63 -0.06,68.45 -3.78,0.01 -7.55,0.01 -11.32,0 -0.03,-22.81 0,-45.62 -0.02,-68.44 -11.41,-0.55 -22.83,0.23 -34.23,-0.24 -0.02,-3.61 0.03,-7.23 -0.03,-10.84 -5.36,4.25 -9.81,9.55 -14.77,14.26 -8.42,8.45 -16.95,16.8 -25.27,25.34 13.28,13.32 26.6,26.61 39.9,39.91 -5.37,-0.16 -10.82,0.39 -16.14,-0.23 -11.53,-11.18 -22.75,-22.7 -34.14,-34.02 -6.05,-0.09 -12.1,0.03 -18.14,-0.07 -0.18,11.43 -0.04,22.87 -0.09,34.31 -3.77,0.01 -7.54,0.01 -11.29,0.01 -0.06,-26.65 -0.01,-53.29 -0.03,-79.94 3.77,-0.03 7.54,-0.03 11.33,0 0.04,11.4 -0.02,22.8 0.02,34.21 6.07,0 12.15,0.05 18.24,-0.04 11.34,-11.42 22.75,-22.77 34.11,-34.17 z"
     id="path42"
     style="fill:#2c3e50;fill-opacity:1"
     inkscape:connector-curvature="0" />
  <path
     d="m 501.11237,182.85503 c 3.83,-0.09 7.67,-0.08 11.51,-0.03 0.03,21.11 0.03,42.23 0.02,63.35 19.11,-21.12 38.07,-42.39 57.27,-63.42 3.72,0.08 7.45,0.05 11.18,0.09 -0.1,11.81 0.12,23.61 0.24,35.41 -0.38,14.86 0.44,29.74 -0.23,44.59 -3.79,-0.02 -7.57,-0.01 -11.35,-0.03 -0.04,-21.49 0.05,-42.98 -0.03,-64.46 -19.04,21.45 -38.03,42.95 -57.01,64.45 -3.84,0.06 -7.67,0.02 -11.5,0.05 -0.31,-26.66 -0.06,-53.33 -0.1,-80 z"
     id="path44"
     style="fill:#2c3e50;fill-opacity:1"
     inkscape:connector-curvature="0" />
  <path
     d="m 678.39237,182.85503 c 26.64,0 53.27,-0.06 79.91,0.05 0.04,3.72 0.04,7.44 0.02,11.16 -11.42,0.14 -22.85,0.02 -34.27,0.07 -0.07,22.89 0,45.78 -0.04,68.68 -3.8,0 -7.59,0 -11.38,-0.01 -0.05,-22.89 0.09,-45.77 -0.05,-68.66 -11.39,-0.05 -22.78,0.01 -34.17,-0.03 -0.03,-3.76 -0.02,-7.51 -0.02,-11.26 z"
     id="path46"
     style="fill:#2c3e50;fill-opacity:1"
     inkscape:connector-curvature="0" />
  <path
     d="m 764.13237,182.88503 c 26.63,-0.05 53.26,-0.03 79.89,0.01 -0.01,3.73 -0.01,7.47 -0.01,11.21 -22.85,0.12 -45.71,-0.15 -68.55,0.14 -0.04,7.6 -0.05,15.21 0.01,22.81 19.01,0.08 38.03,-0.02 57.05,0.07 0.08,3.78 0.07,7.55 0.03,11.33 -19.03,0.08 -38.05,-0.01 -57.08,0.06 -0.04,7.63 -0.03,15.26 0.01,22.89 22.84,0.04 45.68,-0.01 68.52,0.04 0.02,3.78 0.02,7.56 0,11.35 -26.58,0.05 -53.16,-0.09 -79.74,0.08 -0.41,-26.65 -0.07,-53.33 -0.13,-79.99 z"
     id="path48"
     style="fill:#2c3e50;fill-opacity:1"
     inkscape:connector-curvature="0" />
  <path
     d="m 853.32237,205.25503 c -0.18,-12.07 10.98,-22.53 22.9,-22.37 18.96,-0.01 37.92,-0.05 56.89,0.02 -0.02,26.62 0.02,53.25 -0.02,79.87 -3.76,0.01 -7.51,0.02 -11.26,-0.04 -0.02,-22.83 0.01,-45.66 -0.01,-68.49 -15.19,-0.26 -30.4,-0.09 -45.6,-0.09 -6.08,-0.25 -11.73,5.03 -11.6,11.17 -0.09,19.14 0.02,38.29 -0.03,57.43 -3.76,0.04 -7.51,0.04 -11.25,0.04 -0.06,-19.18 -0.01,-38.36 -0.02,-57.54 z"
     id="path50"
     style="fill:#2c3e50;fill-opacity:1"
     inkscape:connector-curvature="0" />
  <path
     d="m 945.83237,198.61503 c 3.06,-9.3 12.55,-15.99 22.34,-15.75 18.8,0.02 37.60003,-0.04 56.40003,0 0.02,26.62 -0.03,53.23 -0.01,79.85 -3.74,0.1 -7.49,0.07 -11.22,0.05 -0.14,-22.85 0.18,-45.71 -0.16,-68.55 -15.32003,-0.17 -30.65003,-0.11 -45.97003,-0.05 -5.86,-0.05 -11.19,5.11 -11.19,10.99 -0.09,19.2 0.02,38.41 -0.05,57.61 -3.77,0.01 -7.53,0.02 -11.28,0 -0.04,-16.85 0,-33.71 -0.01,-50.56 0.02,-4.54 -0.36,-9.22 1.15,-13.59 z"
     id="path52"
     style="fill:#2c3e50;fill-opacity:1"
     inkscape:connector-curvature="0" />
  <path
     d="m 1036.0824,182.88503 c 26.64,-0.1 53.29,-0.05 79.94,-0.03 -0.02,3.75 -0.02,7.5 -0.02,11.26 -22.83,0.1 -45.66,-0.13 -68.49,0.11 -0.03,7.62 -0.06,15.23 -0.01,22.85 19.02,0.06 38.04,-0.04 57.06,0.02 0.07,3.79 0.06,7.58 0.02,11.37 -19.03,0.07 -38.06,-0.04 -57.09,0.03 -0.08,7.61 0.01,15.22 -0.06,22.83 22.85,0.27 45.7,0.01 68.55,0.12 0.02,3.78 0.02,7.55 -0.01,11.33 -26.58,0.01 -53.17,-0.03 -79.75,0.02 -0.26,-26.63 -0.09,-53.27 -0.14,-79.91 z"
     id="path54"
     style="fill:#2c3e50;fill-opacity:1"
     inkscape:connector-curvature="0" />
  <path
     d="m 1289.7724,182.81503 c 3.87,-0.03 7.75,-0.04 11.63,0.05 -0.27,7.78 -0.22,15.58 -0.04,23.36 -0.18,5.71 5.09,10.87 10.76,10.77 15.41,0.06 30.83,0.04 46.24,-0.01 0.04,-11.4 0.02,-22.79 0.01,-34.18 3.79,-0.02 7.59,-0.02 11.39,-0.01 0.02,19.16 0.01,38.32 0,57.48 0.05,9.35 -6.55,18.08 -15.26,21.21 -4.56,1.78 -9.53,1.26 -14.3,1.33 -8.96,-0.06 -17.93,0.11 -26.88,-0.07 -11.59,-0.55 -21.35,-11.22 -21.17,-22.76 3.69,-0.05 7.4,-0.05 11.11,-0.01 0.33,5.79 4.92,11.24 10.94,11.37 11.01,0.13 22.04,0.08 33.06,0.03 5.51,0.02 10.59,-4.59 10.99,-10.1 0.31,-4.24 0.12,-8.5 0.04,-12.74 -15.03,0.01 -30.05,-0.02 -45.08,0.01 -11.8,0.45 -22.88,-9.49 -23.4,-21.35 -0.14,-8.12 -0.03,-16.25 -0.04,-24.38 z"
     id="path56"
     style="fill:#2c3e50;fill-opacity:1"
     inkscape:connector-curvature="0" />
  <path
     d="m 1404.2124,182.77503 c -9.34,-0.24 -18.22,6.13 -21.5,14.8 -2.32,5.92 -1.475,12.415 -1.625,18.625 0.13,15.54 -0.285,31.095 0.225,46.625 3.76,-0.02 7.545,0.005 11.325,-0.025 0.06,-7.62 -0.13,-15.255 0.1,-22.875 18.98,0.07 37.945,0.04 56.925,0 0.17,7.62 0.04,15.255 0.1,22.875 3.78,0.03 7.56,0.02 11.35,0.05 0.46,-18.86 0.16,-37.745 0.2,-56.625 0.1,-11.62 -9.37,-22.695 -21.15,-23.375 -11.98,-0.16 -23.97,-0.025 -35.95,-0.075 z m 16.975,11.575 c 6.0275,0.001 12.05,0.015 18.075,0.05 5.6,-0.02 10.48,5.22 10.45,10.75 0.04,7.79 0.06,15.585 -0.05,23.375 -18.98,0.01 -37.945,-0.04 -56.925,0.05 -0.18,-7.75 -0.105,-15.5 -0.075,-23.25 -0.02,-5.58 4.74,-10.945 10.45,-10.925 6.025,-0.04 12.0475,-0.0513 18.075,-0.05 z"
     id="path58"
     style="fill:#2c3e50;fill-opacity:1"
     inkscape:connector-curvature="0" />
  <path
     d="m 1473.7324,198.62503 c 3.06,-9.36 12.61,-16.13 22.48,-15.85 18.8,0.01 37.61,-0.01 56.43,0.01 0.04,26.68 -0.01,53.37 0.02,80.05 -3.82,0.01 -7.63,-0.01 -11.43,0.01 -0.35,-22.82 -0.09,-45.66 -0.15,-68.48 -15.31,0.03 -30.61,-0.02 -45.9,0.02 -4.12,-0.21 -7.91,2.42 -9.82,5.94 -1.62,3.02 -1.31,6.57 -1.33,9.88 0.02,17.54 0.02,35.08 -0.01,52.62 -3.81,0 -7.61,0.01 -11.41,0 -0.01,-16.56 -0.01,-33.11 -0.01,-49.66 0.1,-4.85 -0.53,-9.87 1.13,-14.54 z"
     id="path60"
     style="fill:#2c3e50;fill-opacity:1"
     inkscape:connector-curvature="0" />
  <path
     d="m 1569.7624,182.77503 c -1.92,0 -3.835,0.005 -5.75,0.025 -0.03,26.65 0.045,53.3 -0.025,79.95 16.74,0.21 33.5,0.03 50.25,0.1 4.97,-0.08 10.17,0.495 14.9,-1.475 8.58,-3.19 15.01,-11.875 14.9,-21.125 0.19,-5.78 0.195,-11.915 -2.925,-17.025 -3.79,-6.76 -11.05,-11.705 -18.9,-11.825 -15.56,-0.1 -31.125,0.115 -46.675,-0.075 -0.01,-9.5 -0.015,-19.025 -0.025,-28.525 -1.925,-0.02 -3.83,-0.025 -5.75,-0.025 z m 5.825,40.025 c 15.2,0.1 30.415,0 45.625,0.05 5.71,-0.25 11.075,4.63 11.325,10.35 0.13,3.02 0.195,6.055 -0.125,9.075 -0.94,5.18 -5.85,9.145 -11.1,9.075 -15.25,0.1 -30.525,0.025 -45.775,0.025 0.01,-9.53 -0.09,-19.055 0.05,-28.575 z"
     id="path62"
     style="fill:#2c3e50;fill-opacity:1"
     inkscape:connector-curvature="0" />
  <path
     d="m 1653.0824,182.84503 c 3.85,-0.1 7.72,-0.08 11.59,-0.04 -0.01,11.39 0,22.79 -0.01,34.18 19.03,0.01 38.06,0 57.09,0 -0.03,-11.39 -0.02,-22.79 0,-34.19 3.85,-0.03 7.72,-0.05 11.6,0.04 -0.06,26.67 0.16,53.35 -0.11,80.02 -3.84,-0.03 -7.67,0 -11.5,-0.04 -0.01,-11.41 -0.02,-22.83 0.01,-34.25 -19.03,0 -38.06,0 -57.09,0 0.01,11.42 0.01,22.84 0.01,34.26 -3.83,0.03 -7.64,0 -11.45,0.03 -0.34,-26.67 -0.06,-53.34 -0.14,-80.01 z"
     id="path64"
     style="fill:#2c3e50;fill-opacity:1"
     inkscape:connector-curvature="0" />
  <path
     style="fill:#2c3e50;fill-opacity:1"
     d="m 1744.6124,182.77503 c -0.04,26.69 0,53.37 0,80.05 19.23,0 38.445,0.04 57.675,0 9.79,-0.06 18.805,-7.325 21.525,-16.625 1.12,-3.89 0.88,-8 0.85,-12 -0.04,-9.52 -6.575,-18.58 -15.575,-21.65 -4.78,-1.78 -9.94,-1 -14.9,-1.15 -12.73,-0.14 -25.49,0.26 -38.2,-0.2 0.08,-9.47 0.01,-18.94 0.05,-28.4 -3.81,-0.04 -7.625,-0.025 -11.425,-0.025 z m 34.525,40.05 c 7.695,0 15.38,0.03 23.075,0.05 5.62,-0.05 10.85,4.91 10.85,10.6 -0.03,4.46 0.865,9.625 -2.175,13.375 -2.21,3.03 -5.935,4.595 -9.625,4.525 -15.03,0.06 -30.055,-0.04 -45.075,0.05 -0.35,-9.51 -0.1,-19.04 -0.15,-28.55 7.695,-0.04 15.405,-0.05 23.1,-0.05 z"
     id="path66"
     inkscape:connector-curvature="0" />
  <path
     d="m 1835.9824,182.81503 c 3.85,-0.06 7.71,-0.06 11.58,0 0,26.66 0.01,53.33 -0.01,80 -3.83,0.04 -7.66,0 -11.48,0.06 -0.22,-26.68 -0.04,-53.37 -0.09,-80.06 z"
     id="path68"
     style="fill:#2c3e50;fill-opacity:1"
     inkscape:connector-curvature="0" />
  <path
     d="m 1858.8624,182.80503 c 26.7,0 53.41,-0.14 80.11,0.07 -0.11,3.8 -0.1,7.6 -0.07,11.39 -22.81,0.24 -45.63,0.04 -68.45,0.1 0.01,7.54 0,15.09 0.01,22.63 19.02,0 38.04,-0.03 57.06,0.01 0.05,3.85 0.05,7.7 0.02,11.55 -19.03,0.03 -38.05,0.01 -57.08,0.01 0,7.61 -0.02,15.22 0.02,22.84 22.8,0 45.6,-0.03 68.41,0.01 0,3.81 0,7.62 -0.01,11.43 -26.67,-0.03 -53.35,0.04 -80.03,-0.04 0.01,-26.67 -0.01,-53.33 0.01,-80 z"
     id="path70"
     style="fill:#2c3e50;fill-opacity:1"
     inkscape:connector-curvature="0" />
  <path
     d="m 214.22237,195.90503 c 5.5,-2.87 13.23,-0.59 15.5,5.41 2.88,6.92 -0.65,15.69 -7.73,18.36 -4.54,1.87 -10.65,1.47 -13.73,-2.79 -4.99,-6.83 -1.64,-17.58 5.96,-20.98 z"
     id="path74"
     style="fill:#2c3e50;fill-opacity:1"
     inkscape:connector-curvature="0" />
  <path
     d="m 501.47237,336.29503 c 3.12,-8.97 12.25,-15.41 21.74,-15.37 11.67,0.02 23.34,-0.02 35,0.02 11.89,0.14 22.13,11.1 21.95,22.89 -3.75,0.01 -7.5,0.02 -11.25,-0.01 -0.17,-5.74 -4.75,-11.26 -10.69,-11.35 -11.98,-0.09 -23.97,-0.08 -35.94,0 -5.69,0.07 -10.55,5.24 -10.6,10.86 -0.06,11.65 -0.06,23.31 -0.01,34.96 -0.12,6.08 5.45,11.45 11.52,11.22 11.68,-0.01 23.37,0.1 35.05,-0.06 5.95,-0.23 10.48,-5.69 10.72,-11.45 3.7,0.01 7.4,0.02 11.11,-0.04 0.65,11.9 -10.07,22.76 -21.84,22.99 -11.69,0.09 -23.37,0.02 -35.06,0.03 -11.43,0.26 -22.05,-9.28 -22.89,-20.71 -0.48,-8.33 -0.08,-16.69 -0.21,-25.03 0.19,-6.32 -0.73,-12.86 1.4,-18.95 z"
     id="path82"
     style="fill:#2c3e50;fill-opacity:1"
     inkscape:connector-curvature="0" />
  <path
     d="m 589.39237,320.95503 c 3.78,-0.03 7.57,-0.03 11.36,-0.03 0.15,21.1 -0.1,42.21 0.12,63.31 19.02,-21.12 37.99,-42.29 57.11,-63.33 3.81,0.05 7.63,0.02 11.45,0.07 0.03,26.66 0.04,53.32 0.01,79.98 -3.85,0.05 -7.7,0.04 -11.54,0.04 -0.13,-21.52 0.04,-43.04 -0.08,-64.56 -18.88,21.59 -38,42.97 -56.96,64.49 -3.82,0.11 -7.64,0.07 -11.45,0.05 -0.04,-26.67 -0.01,-53.35 -0.02,-80.02 z"
     id="path84"
     style="fill:#2c3e50;fill-opacity:1"
     inkscape:connector-curvature="0" />
  <path
     d="m 679.69237,342.13503 c 0.58,-11.43 11.13,-21.04 22.47,-21.18 12.02,0 24.04,-0.06 36.06,0.04 11.74,0.48 21.27,11.28 21.56,22.8 -3.85,0.05 -7.7,0.09 -11.53,-0.05 0.01,-5.88 -4.97,-11.38 -10.96,-11.31 -11.72,-0.06 -23.45,-0.05 -35.17,0 -4.53,-0.08 -8.72,3.08 -10.3,7.23 -1.04,3.07 -0.73,6.36 -0.76,9.55 0.06,9.7 -0.09,19.42 0.07,29.12 -0.11,5.94 5.13,11.19 11.06,11.15 11.35,0.1 22.69,0.01 34.04,0.04 3.47,0.11 7.02,-1.28 9.23,-4.01 1.97,-2.09 2.39,-5.02 3.29,-7.62 3.65,0.19 7.32,0.13 10.99,0.14 0.1,12.01 -10.44,22.91 -22.49,22.94 -12.02,0 -24.05,0.1 -36.07,-0.05 -11.63,-0.41 -21.86,-10.99 -21.54,-22.69 0.05,-12.03 -0.05,-24.06 0.05,-36.1 z"
     id="path86"
     style="fill:#2c3e50;fill-opacity:1"
     inkscape:connector-curvature="0" />
  <path
     d="m 760.78237,320.97503 c 26.63,-0.03 53.27,0.03 79.9,-0.01 0.11,3.74 0.04,7.48 0.14,11.23 -11.43,0.42 -22.87,0.05 -34.3,0.2 0.06,22.8 -0.12,45.62 0.09,68.43 -3.85,0.29 -7.71,0.14 -11.56,0.14 -0.11,-22.86 0.01,-45.71 -0.03,-68.57 -11.41,-0.03 -22.83,0.02 -34.24,-0.02 -0.05,-3.8 -0.04,-7.6 0,-11.4 z"
     id="path88"
     style="fill:#2c3e50;fill-opacity:1"
     inkscape:connector-curvature="0" />
  <path
     d="m 846.48237,321.05503 c 26.66,-0.12 53.31,-0.06 79.97,-0.01 0.04,3.76 0.04,7.51 0,11.27 -22.85,0.08 -45.7,0 -68.54,0.07 -0.05,7.58 -0.02,15.17 -0.01,22.75 19.02,0.46 38.07,0.05 57.1,0.22 0.02,3.76 0.01,7.51 0.01,11.27 -19.04,0.09 -38.08,-0.04 -57.12,0.08 0.01,7.6 -0.03,15.21 0.03,22.81 22.86,0.1 45.73,-0.08 68.59,0.1 -0.01,3.79 0.02,7.58 -0.07,11.37 -26.64,-0.03 -53.29,0.03 -79.93,-0.02 -0.04,-26.64 0.03,-53.28 -0.03,-79.91 z"
     id="path90"
     style="fill:#2c3e50;fill-opacity:1"
     inkscape:connector-curvature="0" />
  <path
     d="m 935.59237,321.19503 c 3.83,-0.32 7.68,-0.17 11.54,-0.15 11.33,16.45 22.77,32.83 34.11,49.29 11.67,-16.21 22.88003,-32.77 34.25003,-49.21 3.82,-0.16 7.66,-0.1 11.5,-0.07 0,26.64 0.03,53.27 -0.01,79.9 -3.77,0.02 -7.55,0.02 -11.31,-0.01 -0.08,-19.76 0.14,-39.53 -0.09,-59.29 -11.74,16.1 -22.45003,32.97 -34.36003,48.93 -11.51,-16.22 -22.48,-32.84 -34.16,-48.92 -0.14,19.76 0,39.53 -0.07,59.29 -3.78,0.03 -7.56,0.03 -11.34,0 -0.05,-26.59 0.12,-53.18 -0.06,-79.76 z"
     id="path92"
     style="fill:#2c3e50;fill-opacity:1"
     inkscape:connector-curvature="0" />
  <path
     d="m 1044.2124,321.02503 c -1.895,-0.001 -3.785,0.03 -5.675,0.125 0.09,26.59 -0.025,53.2 0.025,79.8 17.54,0.05 35.085,-0.005 52.625,0.025 3.01,-0.01 6.065,0.135 9.025,-0.525 9.52,-1.97 17.33,-10.545 18.15,-20.275 0.31,-5.72 0.52,-11.81 -2.05,-17.1 -3.51,-7.74 -11.5,-13.43 -20.1,-13.5 -15.44,-0.05 -30.885,0.04 -46.325,-0.05 -0.02,-9.46 -0.035,-18.925 0.025,-28.375 -1.9,-0.09 -3.805,-0.12375 -5.7,-0.125 z m 28.825,39.925 c 7.7163,-0.001 15.455,0.005 23.175,0.025 5.47,-0.09 10.465,4.67 10.775,10.1 0.17,3.08 0.22,6.195 -0.1,9.275 -0.86,5.42 -6.215,9.575 -11.675,9.225 -15.11,-0.01 -30.2,0.02 -45.3,-0.05 -0.03,-9.52 -0.04,-19.04 0,-28.55 7.715,-0.025 15.4087,-0.0238 23.125,-0.025 z"
     id="path94"
     style="fill:#2c3e50;fill-opacity:1"
     inkscape:connector-curvature="0" />
  <path
     d="m 1129.9924,321.08503 c 3.76,-0.06 7.53,-0.06 11.31,0 -0.05,26.63 0.23,53.26 -0.11,79.88 -3.73,-0.02 -7.45,-0.02 -11.16,-0.01 -0.16,-26.62 -0.04,-53.25 -0.04,-79.87 z"
     id="path96"
     style="fill:#2c3e50;fill-opacity:1"
     inkscape:connector-curvature="0" />
</svg>
