<svg xmlns="http://www.w3.org/2000/svg" width="1938.972pt" height="445.575pt" viewBox="0 0 1938.9724 445.57501"><path d="M81.587 0c-5.116-.004-10.216.413-15.3 1.025-23.81 3.4-45.47 18.65-56.85 39.8-6.41 11.7-9.665 25.07-9.425 38.4-.02 92.32 0 184.645 0 276.975.08 9.03-.445 18.195 1.575 27.075 3.99 20.14 16.515 38.3 33.675 49.5 12.8 8.52 28.19 12.71 43.5 12.8 96.35-.01 192.7.005 289.05-.025 24.27-.18 48.135-12.18 62.375-31.9 9.83-13.28 15.17-29.78 15.05-46.3.04-96.03.015-192.07-.025-288.1.06-9.96-1.575-19.97-5.225-29.25-8.08-21.16-25.865-38.32-47.325-45.55-9.88-3.52-20.44-4.46-30.85-4.35C269.142.09 176.467.045 83.787.025c-.73-.018-1.47-.024-2.2-.025zm139.225 44.525c8.19-.25 16.075 3.28 22.275 8.45 12.65 10.33 25.41 20.52 37.85 31.1 8.9-4.9 18.495-9.61 28.925-9.35 14.52 0 27.47 10.46 33.1 23.4.38 13.1-.5 26.205-.4 39.325 21.51 18.53 43.365 36.655 64.675 55.425 8.37 9.04 7.765 24.94-1.675 33.05-3.08 3.09-7.37 4.455-11.65 4.675-8.07.69-16.16.4-24.25.3-.09 45.07.17 90.155-.3 135.225.08 7.31-2.2 14.925-7.6 20.075-5.89 5.4-14.05 7.955-21.95 7.875-63.67.61-127.37.16-191.05.3-16.63-.12-33.28.285-49.9-.425-7.33-.35-14.795-3.435-19.375-9.325-4.7-6.01-6.515-13.84-6.375-21.35.1-43.97.37-87.93.4-131.9-6.9.13-13.775-.29-20.675-.5-6.12-.39-12.875-1.72-17.025-6.65-6.6-7.53-6.43-18.85-2.65-27.65.99-2.48 3.19-4.11 5.1-5.85 51.11-44.29 102.425-88.36 153.575-132.6 7.89-7.33 17.845-13.63 28.975-13.6z" fill="#fafafa"/><path d="M694.472 37.885c3.59-.03 7.3-.4 10.85.2 11.74 16.16 22.61 32.98 34.41 49.11 11.5-16.42 22.78-32.99 34.3-49.4 3.75 0 7.5-.01 11.26.03-.06 26.65.2 53.32-.17 79.96-3.64-.37-7.5.47-10.99-.42-.25-19.68.11-39.38-.19-59.07-11.04 15.56-21.74 31.35-32.67 46.98-.6.73-1.21 1.44-1.82 2.15-11.31-16.38-22.61-32.77-34.02-49.07-.41 19.8.14 39.62-.27 59.41-3.67-.07-7.33-.07-11-.01-.3-25.85 0-51.72-.13-77.57l.44-2.3z" fill="#fafafa"/><path d="M558.887 37.8c-9.563 0-19.115.015-28.675.025-11.81-.04-22.53 10.485-22.5 22.325-.07 15.42.045 30.83-.075 46.25-3.77.02-7.54.015-11.3.025-.03 3.77-.03 7.545 0 11.325 34.22-.01 68.455-.015 102.675-.025.03-3.76.02-7.515 0-11.275-3.77-.01-7.555-.005-11.325-.025-.15-22.85.02-45.715-.1-68.575-9.565-.03-19.136-.05-28.7-.05zm-24.65 11.275c13.99.11 27.97-.115 41.95.125.34 17.34.015 34.7.175 52.05-.04 1.64.095 3.325-.325 4.925-1.57.5-3.265.205-4.875.275-17.37-.08-34.74.05-52.1-.05-.09-15.05-.02-30.11-.05-45.15-.2-3.99 1.715-7.975 5.075-10.175 2.93-2.1 6.7-2.01 10.15-2z" fill="#fafafa"/><path d="M626.737 37.8c-2.417.07-4.83.353-7.125 1.125-9.03 2.87-15.855 11.735-15.925 21.275-.02 12.04-.115 24.085.025 36.125.29 11.62 10.82 21.68 22.45 21.4 11.68 0 23.37.04 35.05 0 11.86.08 22.51-10.65 22.35-22.5.04-11.65.035-23.3-.025-34.95.01-11.79-10.555-22.235-22.275-22.425-10.7-.08-21.41.02-32.1-.05-.802-.01-1.62-.024-2.425 0zm2.525 11.275c.65.003 1.303.003 1.95 0 10.02.09 20.07-.08 30.1.1 5.79.1 10.93 5.205 10.95 11.025.1 11.69.09 23.385 0 35.075.02 5.86-5.155 11.135-11.025 11.125-11.66.08-23.34.06-35 0-5.94.09-11.28-5.175-11.2-11.125-.04-11.68-.06-23.36 0-35.05 0-4.93 3.665-9.515 8.425-10.675 1.898-.457 3.85-.484 5.8-.475z" fill="#fafafa"/><path d="M820.437 37.775c-2.793.045-5.582.298-8.2 1.325-8.76 3.05-15.395 11.79-15.375 21.15.01 19.13.035 38.245.025 57.375 3.73.13 7.475.085 11.225.075.06-7.6-.035-15.175.025-22.775 19.08-.11 38.17-.075 57.25-.025.05 7.6 0 15.215.05 22.825 3.78.01 7.545.01 11.325 0-.01-19.2.11-38.4 0-57.6-.31-11.39-10.04-21.825-21.55-22.275-10.66-.16-21.34-.005-32-.075-.925-.01-1.844-.015-2.775 0zM837.212 49.1c5.687-.006 11.365.01 17.05.1 5.86.01 11.14 5.165 11.1 11.075.09 7.74.025 15.475.025 23.225-19.08.03-38.145.065-57.225-.025 0-7.78-.13-15.555.05-23.325.01-6.2 5.84-11.355 11.95-11.025 5.68-.005 11.364-.02 17.05-.025z" fill="#fafafa"/><path d="M888.342 37.795c3.75-.03 7.51-.03 11.27 0 .11 22.88-.06 45.75.07 68.62 11.44 0 22.87.08 34.3-.05.05-22.86-.02-45.71.02-68.57 3.78-.04 7.56-.04 11.35.01.07 22.87-.08 45.75.04 68.62 11.42-.01 22.83.02 34.25-.01.13-22.88-.03-45.76.06-68.64 3.78-.01 7.56-.02 11.34.01.02 26.66.03 53.31-.01 79.96-34.23 0-68.45-.01-102.68-.02-.04-26.64-.02-53.28-.01-79.93z" fill="#fafafa"/><path d="M1002.572 117.755c-.05-26.67-.06-53.33-.01-80 3.81 0 7.63-.04 11.46.09-.09 11.4-.06 22.8-.02 34.2 19.01-.01 38.02 0 57.04-.02.02-11.41-.03-22.82.01-34.23 3.81-.07 7.63-.06 11.46-.02.02 26.65-.01 53.29-.01 79.94-3.83.04-7.67.18-11.49-.12.11-11.36.03-22.72.03-34.07-19.01-.05-38.03.01-57.04-.04-.08 11.41-.03 22.82-.03 34.23-3.8.05-7.61.04-11.4.04z" fill="#fafafa"/><path d="M1093.962 37.765c3.8-.03 7.61-.04 11.43.02.04 21.09-.08 42.19.04 63.28 19.06-21.02 38-42.16 56.98-63.25 3.84-.12 7.7-.09 11.56-.06.07 26.63-.12 53.26.08 79.9-3.84.2-7.67.1-11.49.12-.13-21.5.07-43-.11-64.5-18.93 21.52-38.05 42.88-56.94 64.44-3.87.05-7.73.14-11.58-.07.1-26.63-.01-53.25.03-79.88z" fill="#fafafa"/><path d="M1185.392 37.745c26.67.01 53.34-.05 80.02.02-.07 3.58.13 7.17-.04 10.75-.24.2-.74.6-.99.8-22.5.11-45.02.04-67.53.03-.04 7.56-.03 15.12-.01 22.67 19.05.02 38.1-.09 57.15.06-.05 3.85.11 7.72-.18 11.57-19.02-.16-38.05-.19-57.06 0 .19 7.58-.02 15.17.12 22.76 22.84.04 45.69-.03 68.54.03-.02 3.76-.03 7.51.01 11.27-26.67.17-53.34.02-80.01.07-.05-26.68-.01-53.36-.02-80.03z" fill="#fafafa"/><path d="M220.512 56.475c-6.576.152-12.63 3.744-17.6 7.85-52.36 45.3-104.91 90.345-157.2 135.725-2.91 2.04-3.07 5.905-3.25 9.125-.16 3.92 1.84 8.635 6.2 9.175 12.2 1.69 24.57.92 36.85 1.15-.18 47.58-.175 95.17-.475 142.75-.13 5.8.7 12.365 5.25 16.475 4.26 3.65 10.195 3.545 15.475 3.675 77.03.14 154.045.075 231.075-.025 6.13-.02 13.135-.83 17.475-5.65 4.27-5.22 2.84-12.365 3.2-18.575-.14-18.97.59-37.905.45-56.875.01-27.61.015-55.225.025-82.825 12.54.34 25.185 1.495 37.675-.125 6.81-3.21 7.435-14.02 1.525-18.45-21.65-18.75-43.485-37.295-65.375-55.775-1.98-1.32-1.035-3.955-1.225-5.925.46-12.4.33-24.815.6-37.225-4.46-7.63-12.155-14.28-21.425-14.25-10.96-.05-20.45 6.315-29.25 12.125-15.5-12.24-30.53-25.07-46-37.35-3.63-2.82-8.02-4.98-12.7-5-.443-.02-.86-.01-1.3 0zm-.75 72.15c13.73-.22 27.49 3.365 39.35 10.275 15.44 8.94 27.62 23.435 33.55 40.275 6.29 17.48 5.85 37.27-1.25 54.45-2.48 6.27-6.275 11.895-9.325 17.875-5.32 8.73-9.875 17.91-13.675 27.4-3.36 7.68-3.625 16.205-4.425 24.425-28.17 4.09-56.29 8.38-84.45 12.5-.15-12.46-.355-25.2-4.275-37.15-4.29-12.34-11.96-23.09-19.1-33.9-10.21-16.34-13.715-36.66-9.775-55.5 3.58-17.57 13.665-33.71 27.875-44.65 12.89-10.1 29.14-15.77 45.5-16zM263.287 314.5c-.14 2.59-.245 5.19-.325 7.8-27.49 4.02-54.98 8.135-82.45 12.275-.39-2.64-.78-5.27-1.2-7.9 2.07-.76 4.27-.98 6.45-1.25 25.84-3.62 51.685-7.315 77.525-10.925zm-.725 17.975c-.58 2.83-1.325 5.63-2.325 8.35-23.83 3.66-47.72 7.065-71.55 10.725-1.92-2.35-3.535-4.915-4.875-7.625 26.25-3.82 52.49-7.73 78.75-11.45zm-8.65 19.325c-6.65 8.03-16.25 13.735-26.65 15.075-10.23 1.64-20.995-1.02-29.525-6.85 18.72-2.77 37.415-5.745 56.175-8.225z" fill="#fafafa"/><path d="M221.937 143.35c-14.763-.044-29.56 4.756-41.325 13.725-10.65 8.04-18.335 19.975-20.825 33.125-3.02 17.11 1.06 34.785 8.8 50.125 4.81 8.71 11.225 16.45 15.725 25.35 4.74 9.06 7.035 19.325 6.875 29.525 19.55.38 39.125.055 58.675.175.43-.12 1.27-.38 1.7-.5 1.86-8.76 3.17-17.775 6.85-26.025 4.32-9.37 10.225-17.87 15.175-26.9 5.98-11.7 9.79-24.59 10.35-37.75.21-11.79-2.735-23.795-9.375-33.625-9.04-13.81-24.25-22.895-40.3-26.025-4.062-.783-8.19-1.188-12.325-1.2zm-2 12.25c6.597-.094 13.2.946 19.425 3.125 12.87 4.36 24.605 14.08 28.725 27.35 3.89 13.59.87 29.855-9.95 39.525-7.06 6.2-16.545 10.375-26.075 9.375-3.46-.26-5.71-3.455-6.1-6.675-3.82 4.23-9.325 7.095-15.125 6.825-7.3.43-13.775-4.75-17.125-10.9-3.93-6.96-3.5-15.415-1.6-22.925 1.89-7.25 6.47-14.055 13.25-17.525 9.52-4.8 22.875-3.775 29.475 5.375.34-2.01.595-4.045 1.275-5.975 4.06-.71 8.38-.13 12.55-.2-1.95 10.38-3.84 20.77-5.75 31.15-.56 2.62-.51 5.31.2 7.9 5.27.65 9.76-3.34 11.75-7.9 3.23-7.32 2.745-15.755.675-23.325-2.47-8.82-9.34-16.155-17.85-19.425-7.55-3.12-15.92-3.48-23.95-2.65-12.27 1.52-23.535 9.61-28.475 21-6.89 15.72-4.53 36.48 9.05 47.95 12.02 10.04 29.55 11.94 44.1 6.9 4.06-1.23 7.445-3.9 11.325-5.55 1.95 2.44 4.225 4.65 5.975 7.25-.44 1.87-2.63 2.685-3.95 3.925-22.34 16.78-57.32 11.07-74.15-10.9-10.38-13.15-13.12-31.54-8.1-47.4 3.34-10.65 10.305-20.105 19.475-26.475 9.007-6.387 19.956-9.668 30.95-9.825z" fill="#fafafa"/><path d="M661.342 182.825c3.74.01 7.48.01 11.23.04.07 26.65.02 53.3.06 79.95-3.77.01-7.54-.01-11.31.03-.5-11.42-.05-22.88-.21-34.31-18.98-.05-37.95.07-56.92-.05-.37 11.44-.03 22.9-.17 34.35-3.81-.01-7.61 0-11.41-.01 0-26.67-.01-53.33.03-79.99 3.79-.02 7.59-.02 11.39 0 .01 11.39-.03 22.78.03 34.18 19.05.03 38.1.06 57.15 0 .23-11.4-.01-22.8.13-34.19z" fill="#fafafa"/><path d="M1189.012 182.845c32-.1 64.01.05 96.01-.1.47 3.77.3 7.56.22 11.34-11.42.51-22.87.07-34.3.26-.07 22.82-.02 45.63-.06 68.45-3.78.01-7.55.01-11.32 0-.03-22.81 0-45.62-.02-68.44-11.41-.55-22.83.23-34.23-.24-.02-3.61.03-7.23-.03-10.84-5.36 4.25-9.81 9.55-14.77 14.26-8.42 8.45-16.95 16.8-25.27 25.34 13.28 13.32 26.6 26.61 39.9 39.91-5.37-.16-10.82.39-16.14-.23-11.53-11.18-22.75-22.7-34.14-34.02-6.05-.09-12.1.03-18.14-.07-.18 11.43-.04 22.87-.09 34.31-3.77.01-7.54.01-11.29.01-.06-26.65-.01-53.29-.03-79.94 3.77-.03 7.54-.03 11.33 0 .04 11.4-.02 22.8.02 34.21 6.07 0 12.15.05 18.24-.04 11.34-11.42 22.75-22.77 34.11-34.17z" fill="#fafafa"/><path d="M501.112 182.855c3.83-.09 7.67-.08 11.51-.03.03 21.11.03 42.23.02 63.35 19.11-21.12 38.07-42.39 57.27-63.42 3.72.08 7.45.05 11.18.09-.1 11.81.12 23.61.24 35.41-.38 14.86.44 29.74-.23 44.59-3.79-.02-7.57-.01-11.35-.03-.04-21.49.05-42.98-.03-64.46-19.04 21.45-38.03 42.95-57.01 64.45-3.84.06-7.67.02-11.5.05-.31-26.66-.06-53.33-.1-80z" fill="#fafafa"/><path d="M678.392 182.855c26.64 0 53.27-.06 79.91.05.04 3.72.04 7.44.02 11.16-11.42.14-22.85.02-34.27.07-.07 22.89 0 45.78-.04 68.68-3.8 0-7.59 0-11.38-.01-.05-22.89.09-45.77-.05-68.66-11.39-.05-22.78.01-34.17-.03-.03-3.76-.02-7.51-.02-11.26z" fill="#fafafa"/><path d="M764.132 182.885c26.63-.05 53.26-.03 79.89.01-.01 3.73-.01 7.47-.01 11.21-22.85.12-45.71-.15-68.55.14-.04 7.6-.05 15.21.01 22.81 19.01.08 38.03-.02 57.05.07.08 3.78.07 7.55.03 11.33-19.03.08-38.05-.01-57.08.06-.04 7.63-.03 15.26.01 22.89 22.84.04 45.68-.01 68.52.04.02 3.78.02 7.56 0 11.35-26.58.05-53.16-.09-79.74.08-.41-26.65-.07-53.33-.13-79.99z" fill="#fafafa"/><path d="M853.322 205.255c-.18-12.07 10.98-22.53 22.9-22.37 18.96-.01 37.92-.05 56.89.02-.02 26.62.02 53.25-.02 79.87-3.76.01-7.51.02-11.26-.04-.02-22.83.01-45.66-.01-68.49-15.19-.26-30.4-.09-45.6-.09-6.08-.25-11.73 5.03-11.6 11.17-.09 19.14.02 38.29-.03 57.43-3.76.04-7.51.04-11.25.04-.06-19.18-.01-38.36-.02-57.54z" fill="#fafafa"/><path d="M945.832 198.615c3.06-9.3 12.55-15.99 22.34-15.75 18.8.02 37.6-.04 56.4 0 .02 26.62-.03 53.23-.01 79.85-3.74.1-7.49.07-11.22.05-.14-22.85.18-45.71-.16-68.55-15.32-.17-30.65-.11-45.97-.05-5.86-.05-11.19 5.11-11.19 10.99-.09 19.2.02 38.41-.05 57.61-3.77.01-7.53.02-11.28 0-.04-16.85 0-33.71-.01-50.56.02-4.54-.36-9.22 1.15-13.59z" fill="#fafafa"/><path d="M1036.082 182.885c26.64-.1 53.29-.05 79.94-.03-.02 3.75-.02 7.5-.02 11.26-22.83.1-45.66-.13-68.49.11-.03 7.62-.06 15.23-.01 22.85 19.02.06 38.04-.04 57.06.02.07 3.79.06 7.58.02 11.37-19.03.07-38.06-.04-57.09.03-.08 7.61.01 15.22-.06 22.83 22.85.27 45.7.01 68.55.12.02 3.78.02 7.55-.01 11.33-26.58.01-53.17-.03-79.75.02-.26-26.63-.09-53.27-.14-79.91z" fill="#fafafa"/><path d="M1289.772 182.815c3.87-.03 7.75-.04 11.63.05-.27 7.78-.22 15.58-.04 23.36-.18 5.71 5.09 10.87 10.76 10.77 15.41.06 30.83.04 46.24-.01.04-11.4.02-22.79.01-34.18 3.79-.02 7.59-.02 11.39-.01.02 19.16.01 38.32 0 57.48.05 9.35-6.55 18.08-15.26 21.21-4.56 1.78-9.53 1.26-14.3 1.33-8.96-.06-17.93.11-26.88-.07-11.59-.55-21.35-11.22-21.17-22.76 3.69-.05 7.4-.05 11.11-.01.33 5.79 4.92 11.24 10.94 11.37 11.01.13 22.04.08 33.06.03 5.51.02 10.59-4.59 10.99-10.1.31-4.24.12-8.5.04-12.74-15.03.01-30.05-.02-45.08.01-11.8.45-22.88-9.49-23.4-21.35-.14-8.12-.03-16.25-.04-24.38z" fill="#fafafa"/><path d="M1404.212 182.775c-9.34-.24-18.22 6.13-21.5 14.8-2.32 5.92-1.475 12.415-1.625 18.625.13 15.54-.285 31.095.225 46.625 3.76-.02 7.545.005 11.325-.025.06-7.62-.13-15.255.1-22.875 18.98.07 37.945.04 56.925 0 .17 7.62.04 15.255.1 22.875 3.78.03 7.56.02 11.35.05.46-18.86.16-37.745.2-56.625.1-11.62-9.37-22.695-21.15-23.375-11.98-.16-23.97-.025-35.95-.075zm16.975 11.575c6.028 0 12.05.015 18.075.05 5.6-.02 10.48 5.22 10.45 10.75.04 7.79.06 15.585-.05 23.375-18.98.01-37.945-.04-56.925.05-.18-7.75-.105-15.5-.075-23.25-.02-5.58 4.74-10.945 10.45-10.925 6.025-.04 12.048-.05 18.075-.05z" fill="#fafafa"/><path d="M1473.732 198.625c3.06-9.36 12.61-16.13 22.48-15.85 18.8.01 37.61-.01 56.43.01.04 26.68-.01 53.37.02 80.05-3.82.01-7.63-.01-11.43.01-.35-22.82-.09-45.66-.15-68.48-15.31.03-30.61-.02-45.9.02-4.12-.21-7.91 2.42-9.82 5.94-1.62 3.02-1.31 6.57-1.33 9.88.02 17.54.02 35.08-.01 52.62-3.81 0-7.61.01-11.41 0-.01-16.56-.01-33.11-.01-49.66.1-4.85-.53-9.87 1.13-14.54z" fill="#fafafa"/><path d="M1569.762 182.775c-1.92 0-3.835.005-5.75.025-.03 26.65.045 53.3-.025 79.95 16.74.21 33.5.03 50.25.1 4.97-.08 10.17.495 14.9-1.475 8.58-3.19 15.01-11.875 14.9-21.125.19-5.78.195-11.915-2.925-17.025-3.79-6.76-11.05-11.705-18.9-11.825-15.56-.1-31.125.115-46.675-.075-.01-9.5-.015-19.025-.025-28.525-1.925-.02-3.83-.025-5.75-.025zm5.825 40.025c15.2.1 30.415 0 45.625.05 5.71-.25 11.075 4.63 11.325 10.35.13 3.02.195 6.055-.125 9.075-.94 5.18-5.85 9.145-11.1 9.075-15.25.1-30.525.025-45.775.025.01-9.53-.09-19.055.05-28.575z" fill="#fafafa"/><path d="M1653.082 182.845c3.85-.1 7.72-.08 11.59-.04-.01 11.39 0 22.79-.01 34.18 19.03.01 38.06 0 57.09 0-.03-11.39-.02-22.79 0-34.19 3.85-.03 7.72-.05 11.6.04-.06 26.67.16 53.35-.11 80.02-3.84-.03-7.67 0-11.5-.04-.01-11.41-.02-22.83.01-34.25h-57.09c.01 11.42.01 22.84.01 34.26-3.83.03-7.64 0-11.45.03-.34-26.67-.06-53.34-.14-80.01z" fill="#fafafa"/><path d="M1744.612 182.775c-.04 26.69 0 53.37 0 80.05 19.23 0 38.445.04 57.675 0 9.79-.06 18.805-7.325 21.525-16.625 1.12-3.89.88-8 .85-12-.04-9.52-6.575-18.58-15.575-21.65-4.78-1.78-9.94-1-14.9-1.15-12.73-.14-25.49.26-38.2-.2.08-9.47.01-18.94.05-28.4-3.81-.04-7.625-.025-11.425-.025zm34.525 40.05c7.695 0 15.38.03 23.075.05 5.62-.05 10.85 4.91 10.85 10.6-.03 4.46.865 9.625-2.175 13.375-2.21 3.03-5.935 4.595-9.625 4.525-15.03.06-30.055-.04-45.075.05-.35-9.51-.1-19.04-.15-28.55 7.695-.04 15.405-.05 23.1-.05z" fill="#fafafa"/><path d="M1835.982 182.815c3.85-.06 7.71-.06 11.58 0 0 26.66.01 53.33-.01 80-3.83.04-7.66 0-11.48.06-.22-26.68-.04-53.37-.09-80.06z" fill="#fafafa"/><path d="M1858.862 182.805c26.7 0 53.41-.14 80.11.07-.11 3.8-.1 7.6-.07 11.39-22.81.24-45.63.04-68.45.1.01 7.54 0 15.09.01 22.63 19.02 0 38.04-.03 57.06.01.05 3.85.05 7.7.02 11.55-19.03.03-38.05.01-57.08.01 0 7.61-.02 15.22.02 22.84 22.8 0 45.6-.03 68.41.01 0 3.81 0 7.62-.01 11.43-26.67-.03-53.35.04-80.03-.04.01-26.67-.01-53.33.01-80z" fill="#fafafa"/><path d="M214.222 195.905c5.5-2.87 13.23-.59 15.5 5.41 2.88 6.92-.65 15.69-7.73 18.36-4.54 1.87-10.65 1.47-13.73-2.79-4.99-6.83-1.64-17.58 5.96-20.98z" fill="#fafafa"/><path d="M501.472 336.295c3.12-8.97 12.25-15.41 21.74-15.37 11.67.02 23.34-.02 35 .02 11.89.14 22.13 11.1 21.95 22.89-3.75.01-7.5.02-11.25-.01-.17-5.74-4.75-11.26-10.69-11.35-11.98-.09-23.97-.08-35.94 0-5.69.07-10.55 5.24-10.6 10.86-.06 11.65-.06 23.31-.01 34.96-.12 6.08 5.45 11.45 11.52 11.22 11.68-.01 23.37.1 35.05-.06 5.95-.23 10.48-5.69 10.72-11.45 3.7.01 7.4.02 11.11-.04.65 11.9-10.07 22.76-21.84 22.99-11.69.09-23.37.02-35.06.03-11.43.26-22.05-9.28-22.89-20.71-.48-8.33-.08-16.69-.21-25.03.19-6.32-.73-12.86 1.4-18.95z" fill="#fafafa"/><path d="M589.392 320.955c3.78-.03 7.57-.03 11.36-.03.15 21.1-.1 42.21.12 63.31 19.02-21.12 37.99-42.29 57.11-63.33 3.81.05 7.63.02 11.45.07.03 26.66.04 53.32.01 79.98-3.85.05-7.7.04-11.54.04-.13-21.52.04-43.04-.08-64.56-18.88 21.59-38 42.97-56.96 64.49-3.82.11-7.64.07-11.45.05-.04-26.67-.01-53.35-.02-80.02z" fill="#fafafa"/><path d="M679.692 342.135c.58-11.43 11.13-21.04 22.47-21.18 12.02 0 24.04-.06 36.06.04 11.74.48 21.27 11.28 21.56 22.8-3.85.05-7.7.09-11.53-.05.01-5.88-4.97-11.38-10.96-11.31-11.72-.06-23.45-.05-35.17 0-4.53-.08-8.72 3.08-10.3 7.23-1.04 3.07-.73 6.36-.76 9.55.06 9.7-.09 19.42.07 29.12-.11 5.94 5.13 11.19 11.06 11.15 11.35.1 22.69.01 34.04.04 3.47.11 7.02-1.28 9.23-4.01 1.97-2.09 2.39-5.02 3.29-7.62 3.65.19 7.32.13 10.99.14.1 12.01-10.44 22.91-22.49 22.94-12.02 0-24.05.1-36.07-.05-11.63-.41-21.86-10.99-21.54-22.69.05-12.03-.05-24.06.05-36.1z" fill="#fafafa"/><path d="M760.782 320.975c26.63-.03 53.27.03 79.9-.01.11 3.74.04 7.48.14 11.23-11.43.42-22.87.05-34.3.2.06 22.8-.12 45.62.09 68.43-3.85.29-7.71.14-11.56.14-.11-22.86.01-45.71-.03-68.57-11.41-.03-22.83.02-34.24-.02-.05-3.8-.04-7.6 0-11.4z" fill="#fafafa"/><path d="M846.482 321.055c26.66-.12 53.31-.06 79.97-.01.04 3.76.04 7.51 0 11.27-22.85.08-45.7 0-68.54.07-.05 7.58-.02 15.17-.01 22.75 19.02.46 38.07.05 57.1.22.02 3.76.01 7.51.01 11.27-19.04.09-38.08-.04-57.12.08.01 7.6-.03 15.21.03 22.81 22.86.1 45.73-.08 68.59.1-.01 3.79.02 7.58-.07 11.37-26.64-.03-53.29.03-79.93-.02-.04-26.64.03-53.28-.03-79.91z" fill="#fafafa"/><path d="M935.592 321.195c3.83-.32 7.68-.17 11.54-.15 11.33 16.45 22.77 32.83 34.11 49.29 11.67-16.21 22.88-32.77 34.25-49.21 3.82-.16 7.66-.1 11.5-.07 0 26.64.03 53.27-.01 79.9-3.77.02-7.55.02-11.31-.01-.08-19.76.14-39.53-.09-59.29-11.74 16.1-22.45 32.97-34.36 48.93-11.51-16.22-22.48-32.84-34.16-48.92-.14 19.76 0 39.53-.07 59.29-3.78.03-7.56.03-11.34 0-.05-26.59.12-53.18-.06-79.76z" fill="#fafafa"/><path d="M1044.212 321.025c-1.895 0-3.785.03-5.675.125.09 26.59-.025 53.2.025 79.8 17.54.05 35.085-.005 52.625.025 3.01-.01 6.065.135 9.025-.525 9.52-1.97 17.33-10.545 18.15-20.275.31-5.72.52-11.81-2.05-17.1-3.51-7.74-11.5-13.43-20.1-13.5-15.44-.05-30.885.04-46.325-.05-.02-9.46-.035-18.925.025-28.375-1.9-.09-3.805-.124-5.7-.125zm28.825 39.925c7.717 0 15.455.005 23.175.025 5.47-.09 10.465 4.67 10.775 10.1.17 3.08.22 6.195-.1 9.275-.86 5.42-6.215 9.575-11.675 9.225-15.11-.01-30.2.02-45.3-.05-.03-9.52-.04-19.04 0-28.55 7.715-.025 15.41-.024 23.125-.025z" fill="#fafafa"/><path d="M1129.992 321.085c3.76-.06 7.53-.06 11.31 0-.05 26.63.23 53.26-.11 79.88-3.73-.02-7.45-.02-11.16-.01-.16-26.62-.04-53.25-.04-79.87z" fill="#fafafa"/></svg>