<svg xmlns="http://www.w3.org/2000/svg" width="157.077mm" height="157.189mm" viewBox="0 0 556.57209 556.96877"><g fill="#fafafa"><path d="M101.984 0C95.59-.005 89.214.516 82.86 1.28 53.096 5.53 26.02 24.595 11.796 51.03 3.784 65.657-.285 82.37.015 99.03c-.025 115.4 0 230.808 0 346.22.1 11.288-.556 22.744 1.97 33.844C6.97 504.27 22.627 526.97 44.077 540.97c16 10.65 35.237 15.886 54.375 16 120.437-.014 240.875.005 361.312-.032 30.338-.225 60.17-15.225 77.97-39.875 12.287-16.6 18.962-37.225 18.812-57.875.05-120.038.02-240.088-.03-360.125.074-12.45-1.97-24.963-6.533-36.563-10.1-26.45-32.33-47.9-59.156-56.937-12.35-4.4-25.55-5.575-38.562-5.438C336.428.113 220.584.055 104.734.03c-.914-.02-1.836-.03-2.75-.03zm724.317-261.894c10.238-.313 20.095 4.1 27.845 10.562 15.812 12.913 31.762 25.65 47.312 38.875 11.125-6.125 23.12-12.012 36.156-11.687 18.15 0 34.338 13.075 41.375 29.25.475 16.375-.625 32.756-.5 49.156 26.888 23.162 54.207 45.82 80.844 69.28 10.463 11.3 9.706 31.176-2.094 41.314-3.85 3.862-9.212 5.568-14.562 5.843-10.088.862-20.2.5-30.313.374-.112 56.338.213 112.694-.375 169.032.1 9.137-2.75 18.656-9.5 25.093-7.362 6.75-17.562 9.943-27.437 9.843-79.587.763-159.212.2-238.812.375-20.787-.15-41.6.356-62.375-.53-9.162-.44-18.493-4.295-24.218-11.657-5.875-7.512-8.144-17.3-7.97-26.687.126-54.962.463-109.912.5-164.875-8.624.163-17.218-.362-25.843-.625-7.65-.487-16.094-2.15-21.28-8.312-8.25-9.412-8.04-23.562-3.314-34.562 1.238-3.1 3.988-5.137 6.375-7.312 63.888-55.363 128.032-110.45 191.97-165.75 9.862-9.163 22.305-17.038 36.218-17z"/><path d="M275.64 70.594c-8.22.19-15.79 4.68-22 9.812-65.45 56.625-131.137 112.932-196.5 169.657-3.637 2.55-3.837 7.38-4.062 11.406-.2 4.9 2.3 10.793 7.75 11.468 15.25 2.112 30.712 1.15 46.062 1.437-.225 59.475-.218 118.963-.593 178.438-.163 7.25.875 15.456 6.562 20.593 5.324 4.563 12.743 4.432 19.343 4.594 96.287.175 192.556.094 288.844-.03 7.662-.026 16.418-1.04 21.843-7.064 5.338-6.525 3.55-15.456 4-23.218-.175-23.713.738-47.382.563-71.094.012-34.513.02-69.03.03-103.53 15.676.424 31.482 1.867 47.095-.158 8.512-4.012 9.294-17.525 1.906-23.062-27.062-23.438-54.356-46.62-81.72-69.72-2.474-1.65-1.292-4.943-1.53-7.405.575-15.5.413-31.02.75-46.532-5.575-9.538-15.194-17.85-26.78-17.813-13.7-.062-25.564 7.894-36.564 15.156-19.375-15.3-38.162-31.336-57.5-46.686-4.537-3.525-10.025-6.225-15.875-6.25-.553-.027-1.077-.013-1.625 0zm549.348-227.363c17.163-.274 34.363 4.207 49.188 12.844 19.3 11.175 34.525 29.294 41.937 50.344 7.863 21.85 7.313 46.588-1.562 68.063-3.1 7.838-7.843 14.87-11.655 22.344-6.65 10.913-12.344 22.388-17.094 34.25-4.2 9.6-4.53 20.257-5.53 30.532-35.213 5.112-70.363 10.475-105.563 15.625-.187-15.574-.444-31.5-5.344-46.437C764 15.368 754.413 1.93 745.488-11.582c-12.762-20.425-17.143-45.825-12.218-69.375 4.475-21.962 17.08-42.137 34.843-55.812 16.113-12.624 36.425-19.712 56.875-20zm54.407 232.344c-.175 3.238-.307 6.488-.407 9.75-34.362 5.025-68.725 10.17-103.062 15.344-.488-3.3-.975-6.587-1.5-9.875 2.587-.95 5.337-1.225 8.062-1.562 32.3-4.524 64.607-9.143 96.907-13.656zm-.907 22.47c-.725 3.537-1.656 7.037-2.906 10.437-29.787 4.576-59.65 8.832-89.437 13.407-2.4-2.938-4.42-6.144-6.094-9.53 32.813-4.776 65.613-9.664 98.438-14.314zm-10.812 24.155c-8.313 10.037-20.313 17.168-33.313 18.843-12.787 2.05-26.243-1.275-36.906-8.562 23.4-3.462 46.77-7.18 70.22-10.28z"/><path d="M277.422 179.188c-18.455-.056-36.95 5.945-51.657 17.156-13.312 10.05-22.918 24.97-26.03 41.406-3.776 21.388 1.324 43.48 11 62.656 6.012 10.888 14.03 20.563 19.655 31.688 5.925 11.325 8.794 24.156 8.594 36.906 24.438.475 48.906.07 73.344.22.537-.15 1.587-.476 2.125-.626 2.325-10.95 3.962-22.22 8.562-32.53 5.4-11.714 12.782-22.34 18.97-33.626 7.474-14.625 12.237-30.738 12.937-47.188.262-14.737-3.42-29.744-11.72-42.03-11.3-17.264-30.312-28.62-50.374-32.532-5.078-.98-10.24-1.485-15.406-1.5zm547.785-302.24c8.246-.116 16.5 1.184 24.28 3.908 16.09 5.45 30.758 17.6 35.908 34.187 4.862 16.988 1.087 37.32-12.438 49.406-8.825 7.75-20.68 12.968-32.594 11.718-4.325-.325-7.137-4.32-7.625-8.344-4.775 5.288-11.656 8.87-18.906 8.532-9.125.537-17.22-5.938-21.406-13.625-4.913-8.7-4.375-19.268-2-28.656 2.362-9.062 8.087-17.568 16.562-21.906 11.9-6 28.594-4.72 36.844 6.72.425-2.514.744-5.057 1.594-7.47 5.075-.887 10.475-.162 15.687-.25-2.437 12.975-4.8 25.963-7.187 38.938-.7 3.275-.638 6.637.25 9.875 6.587.813 12.2-4.174 14.687-9.874 4.038-9.15 3.432-19.694.844-29.157-3.087-11.026-11.675-20.194-22.312-24.282-9.438-3.9-19.9-4.35-29.938-3.312-15.337 1.9-29.42 12.012-35.594 26.25-8.612 19.65-5.662 45.6 11.313 59.937C808.2-7.907 830.113-5.532 848.3-11.832c5.076-1.537 9.307-4.875 14.157-6.937 2.438 3.05 5.28 5.813 7.47 9.063-.55 2.338-3.29 3.356-4.94 4.906-27.924 20.974-71.65 13.837-92.686-13.626-12.974-16.437-16.4-39.425-10.124-59.25 4.175-13.312 12.88-25.13 24.344-33.093 11.257-7.984 24.945-12.085 38.687-12.28z"/><path d="M267.778 244.88c6.875-3.586 16.537-.736 19.375 6.764 3.6 8.65-.813 19.612-9.663 22.95-5.675 2.337-13.312 1.837-17.162-3.488-6.238-8.537-2.05-21.975 7.45-26.225z"/></g></svg>