<?xml version="1.0" encoding="UTF-8" standalone="no"?>
<svg
   xmlns:dc="http://purl.org/dc/elements/1.1/"
   xmlns:cc="http://creativecommons.org/ns#"
   xmlns:rdf="http://www.w3.org/1999/02/22-rdf-syntax-ns#"
   xmlns:svg="http://www.w3.org/2000/svg"
   xmlns="http://www.w3.org/2000/svg"
   xmlns:sodipodi="http://sodipodi.sourceforge.net/DTD/sodipodi-0.dtd"
   xmlns:inkscape="http://www.inkscape.org/namespaces/inkscape"
   width="2000pt"
   height="500pt"
   viewBox="0 0 2000 500"
   version="1.1"
   id="svg2"
   inkscape:version="0.91 r13725"
   sodipodi:docname="logo_dis.svg">
  <metadata
     id="metadata108">
    <rdf:RDF>
      <cc:Work
         rdf:about="">
        <dc:format>image/svg+xml</dc:format>
        <dc:type
           rdf:resource="http://purl.org/dc/dcmitype/StillImage" />
        <dc:title />
      </cc:Work>
    </rdf:RDF>
  </metadata>
  <defs
     id="defs106" />
  <sodipodi:namedview
     pagecolor="#ffffff"
     bordercolor="#666666"
     borderopacity="1"
     objecttolerance="10"
     gridtolerance="10"
     guidetolerance="10"
     inkscape:pageopacity="0"
     inkscape:pageshadow="2"
     inkscape:window-width="1511"
     inkscape:window-height="878"
     id="namedview104"
     showgrid="false"
     inkscape:zoom="0.35355339"
     inkscape:cx="1194.0409"
     inkscape:cy="452.77344"
     inkscape:window-x="-8"
     inkscape:window-y="-8"
     inkscape:window-maximized="1"
     inkscape:current-layer="svg2" />
  <path
     d="M 140.96875 29.71875 C 134.57339 29.713965 128.19844 30.234375 121.84375 31 C 92.08125 35.25 65.00625 54.3125 50.78125 80.75 C 42.76875 95.375 38.7 112.0875 39 128.75 C 38.975 244.15 39 359.55625 39 474.96875 C 39.1 486.25625 38.44375 497.7125 40.96875 508.8125 C 45.95625 533.9875 61.6125 556.6875 83.0625 570.6875 C 99.0625 581.3375 118.3 586.575 137.4375 586.6875 C 257.875 586.675 378.3125 586.69375 498.75 586.65625 C 529.0875 586.43125 558.91875 571.43125 576.71875 546.78125 C 589.00625 530.18125 595.68125 509.55625 595.53125 488.90625 C 595.58125 368.86875 595.55 248.81875 595.5 128.78125 C 595.575 116.33125 593.53125 103.81875 588.96875 92.21875 C 578.86875 65.76875 556.6375 44.31875 529.8125 35.28125 C 517.4625 30.88125 504.2625 29.70625 491.25 29.84375 C 375.4125 29.83125 259.56875 29.775 143.71875 29.75 C 142.80469 29.728125 141.88237 29.719434 140.96875 29.71875 z M 315 85.375 C 325.2375 85.0625 335.09375 89.475 342.84375 95.9375 C 358.65625 108.85 374.60625 121.5875 390.15625 134.8125 C 401.28125 128.6875 413.275 122.8 426.3125 123.125 C 444.4625 123.125 460.65 136.2 467.6875 152.375 C 468.1625 168.75 467.0625 185.13125 467.1875 201.53125 C 494.075 224.69375 521.39375 247.35 548.03125 270.8125 C 558.49375 282.1125 557.7375 301.9875 545.9375 312.125 C 542.0875 315.9875 536.725 317.69375 531.375 317.96875 C 521.2875 318.83125 511.175 318.46875 501.0625 318.34375 C 500.95 374.68125 501.275 431.0375 500.6875 487.375 C 500.7875 496.5125 497.9375 506.03125 491.1875 512.46875 C 483.825 519.21875 473.625 522.4125 463.75 522.3125 C 384.1625 523.075 304.5375 522.5125 224.9375 522.6875 C 204.15 522.5375 183.3375 523.04375 162.5625 522.15625 C 153.4 521.71875 144.06875 517.8625 138.34375 510.5 C 132.46875 502.9875 130.2 493.2 130.375 483.8125 C 130.5 428.85 130.8375 373.9 130.875 318.9375 C 122.25 319.1 113.65625 318.575 105.03125 318.3125 C 97.38125 317.825 88.9375 316.1625 83.75 310 C 75.5 300.5875 75.7125 286.4375 80.4375 275.4375 C 81.675 272.3375 84.425 270.3 86.8125 268.125 C 150.7 212.7625 214.84375 157.675 278.78125 102.375 C 288.64375 93.2125 301.0875 85.3375 315 85.375 z "
     transform="scale(0.8,0.8)"
     id="path6"
     style="fill:#fafafa;fill-opacity:1" />
  <path
     d="m 725.66,61.66 c 3.59,-0.03 7.3,-0.4 10.85,0.2 11.74,16.16 22.61,32.98 34.41,49.11 11.5,-16.42 22.78,-32.99 34.3,-49.4 3.75,0 7.5,-0.01 11.26,0.03 -0.06,26.65 0.2,53.32 -0.17,79.96 -3.64,-0.37 -7.5,0.47 -10.99,-0.42 -0.25,-19.68 0.11,-39.38 -0.19,-59.07 -11.04,15.56 -21.74,31.35 -32.67,46.98 -0.6,0.73 -1.21,1.44 -1.82,2.15 -11.31,-16.38 -22.61,-32.77 -34.02,-49.07 -0.41,19.8 0.14,39.62 -0.27,59.41 -3.67,-0.07 -7.33,-0.07 -11,-0.01 -0.3,-25.85 0,-51.72 -0.13,-77.57 0.11,-0.58 0.33,-1.73 0.44,-2.3 z"
     id="path8"
     style="fill:#fafafa;fill-opacity:1"
     inkscape:connector-curvature="0" />
  <path
     d="m 590.075,61.575 c -9.56375,0 -19.115,0.015 -28.675,0.025 -11.81,-0.04 -22.53,10.485 -22.5,22.325 -0.07,15.42 0.045,30.83 -0.075,46.25 -3.77,0.02 -7.54,0.015 -11.3,0.025 -0.03,3.77 -0.03,7.545 0,11.325 34.22,-0.01 68.455,-0.015 102.675,-0.025 0.03,-3.76 0.02,-7.515 0,-11.275 -3.77,-0.01 -7.555,-0.005 -11.325,-0.025 -0.15,-22.85 0.02,-45.715 -0.1,-68.575 -9.565,-0.03 -19.13625,-0.05 -28.7,-0.05 z m -24.65,11.275 c 13.99,0.11 27.97,-0.115 41.95,0.125 0.34,17.34 0.015,34.7 0.175,52.05 -0.04,1.64 0.095,3.325 -0.325,4.925 -1.57,0.5 -3.265,0.205 -4.875,0.275 -17.37,-0.08 -34.74,0.05 -52.1,-0.05 -0.09,-15.05 -0.02,-30.11 -0.05,-45.15 -0.2,-3.99 1.715,-7.975 5.075,-10.175 2.93,-2.1 6.7,-2.01 10.15,-2 z"
     id="path10"
     style="fill:#fafafa;fill-opacity:1"
     inkscape:connector-curvature="0" />
  <path
     d="m 657.925,61.575 c -2.41734,0.07078 -4.83,0.3525 -7.125,1.125 -9.03,2.87 -15.855,11.735 -15.925,21.275 -0.02,12.04 -0.115,24.085 0.025,36.125 0.29,11.62 10.82,21.68 22.45,21.4 11.68,0 23.37,0.04 35.05,0 11.86,0.08 22.51,-10.65 22.35,-22.5 0.04,-11.65 0.035,-23.3 -0.025,-34.95 0.01,-11.79 -10.555,-22.235 -22.275,-22.425 -10.7,-0.08 -21.41,0.02 -32.1,-0.05 -0.8025,-0.01 -1.61922,-0.02359 -2.425,0 z m 2.525,11.275 c 0.65031,0.0031 1.3025,0.0025 1.95,0 10.02,0.09 20.07,-0.08 30.1,0.1 5.79,0.1 10.93,5.205 10.95,11.025 0.1,11.69 0.09,23.385 0,35.075 0.02,5.86 -5.155,11.135 -11.025,11.125 -11.66,0.08 -23.34,0.06 -35,0 -5.94,0.09 -11.28,-5.175 -11.2,-11.125 -0.04,-11.68 -0.06,-23.36 0,-35.05 0,-4.93 3.665,-9.515 8.425,-10.675 1.8975,-0.4575 3.84906,-0.484375 5.8,-0.475 z"
     id="path12"
     style="fill:#fafafa;fill-opacity:1"
     inkscape:connector-curvature="0" />
  <path
     d="m 851.62496,61.55 c -2.79328,0.04453 -5.58248,0.2975 -8.2,1.325 -8.75992,3.05 -15.39496,11.79 -15.37496,21.15 0.01,19.13 0.035,38.245 0.025,57.375 3.73004,0.13 7.475,0.085 11.225,0.075 0.06,-7.6 -0.035,-15.175 0.025,-22.775 19.08008,-0.11 38.17008,-0.075 57.25008,-0.025 0.0499,7.6 -8e-5,15.215 0.0499,22.825 3.78,0.01 7.54504,0.01 11.32504,0 -0.01,-19.2 0.11,-38.4 0,-57.6 -0.31,-11.39 -10.04,-21.825 -21.55,-22.275 -10.66,-0.16 -21.34,-0.005 -32,-0.075 -0.92496,-0.01 -1.84392,-0.01484 -2.77504,0 z M 868.4,72.875 c 5.68624,-0.0062 11.36496,0.01 17.05,0.1 5.86,0.01 11.14,5.165 11.1,11.075 0.09,7.74 0.025,15.475 0.025,23.225 -19.08,0.03 -38.14504,0.065 -57.22504,-0.025 0,-7.78 -0.13,-15.555 0.05,-23.325 0.01,-6.2 5.84,-11.355 11.95,-11.025 5.68,-0.005 11.36376,-0.01875 17.05,-0.025 z"
     id="path14"
     style="fill:#fafafa;fill-opacity:1"
     inkscape:connector-curvature="0" />
  <path
     d="m 919.53,61.57 c 3.75,-0.03 7.51,-0.03 11.27,0 0.11,22.88 -0.06,45.75 0.07,68.62 11.44,0 22.87,0.08 34.3,-0.05 0.05,-22.86 -0.02,-45.71 0.02,-68.57 3.78,-0.04 7.56,-0.04 11.35,0.01 0.07,22.87 -0.08,45.75 0.04,68.62 11.42,-0.01 22.83,0.02 34.25,-0.01 0.13,-22.88 -0.03,-45.76 0.06,-68.64 3.78,-0.01 7.56,-0.02 11.34,0.01 0.02,26.66 0.03,53.31 -0.01,79.96 -34.23,0 -68.45,-0.01 -102.68,-0.02 -0.04,-26.64 -0.02,-53.28 -0.01,-79.93 z"
     id="path16"
     style="fill:#fafafa;fill-opacity:1"
     inkscape:connector-curvature="0" />
  <path
     d="m 1033.76,141.53 c -0.05,-26.67 -0.06,-53.33 -0.01,-80 3.81,0 7.63,-0.04 11.46,0.09 -0.09,11.4 -0.06,22.8 -0.02,34.2 19.01,-0.01 38.02,0 57.04,-0.02 0.02,-11.41 -0.03,-22.82 0.01,-34.23 3.81,-0.07 7.63,-0.06 11.46,-0.02 0.02,26.65 -0.01,53.29 -0.01,79.94 -3.83,0.04 -7.67,0.18 -11.49,-0.12 0.11,-11.36 0.03,-22.72 0.03,-34.07 -19.01,-0.05 -38.03,0.01 -57.04,-0.04 -0.08,11.41 -0.03,22.82 -0.03,34.23 -3.8,0.05 -7.61,0.04 -11.4,0.04 z"
     id="path18"
     style="fill:#fafafa;fill-opacity:1"
     inkscape:connector-curvature="0" />
  <path
     d="m 1125.15,61.54 c 3.8,-0.03 7.61,-0.04 11.43,0.02 0.04,21.09 -0.08,42.19 0.04,63.28 19.06,-21.02 38,-42.16 56.98,-63.25 3.84,-0.12 7.7,-0.09 11.56,-0.06 0.07,26.63 -0.12,53.26 0.08,79.9 -3.84,0.2 -7.67,0.1 -11.49,0.12 -0.13,-21.5 0.07,-43 -0.11,-64.5 -18.93,21.52 -38.05,42.88 -56.94,64.44 -3.87,0.05 -7.73,0.14 -11.58,-0.07 0.1,-26.63 -0.01,-53.25 0.03,-79.88 z"
     id="path20"
     style="fill:#fafafa;fill-opacity:1"
     inkscape:connector-curvature="0" />
  <path
     d="m 1216.58,61.52 c 26.67,0.01 53.34,-0.05 80.02,0.02 -0.07,3.58 0.13,7.17 -0.04,10.75 -0.24,0.2 -0.74,0.6 -0.99,0.8 -22.5,0.11 -45.02,0.04 -67.53,0.03 -0.04,7.56 -0.03,15.12 -0.01,22.67 19.05,0.02 38.1,-0.09 57.15,0.06 -0.05,3.85 0.11,7.72 -0.18,11.57 -19.02,-0.16 -38.05,-0.19 -57.06,0 0.19,7.58 -0.02,15.17 0.12,22.76 22.84,0.04 45.69,-0.03 68.54,0.03 -0.02,3.76 -0.03,7.51 0.01,11.27 -26.67,0.17 -53.34,0.02 -80.01,0.07 -0.05,-26.68 -0.01,-53.36 -0.02,-80.03 z"
     id="path22"
     style="fill:#fafafa;fill-opacity:1"
     inkscape:connector-curvature="0" />
  <path
     d="M 314.625 100.3125 C 306.40425 100.50284 298.83594 104.99219 292.625 110.125 C 227.175 166.75 161.4875 223.05625 96.125 279.78125 C 92.4875 282.33125 92.2875 287.1625 92.0625 291.1875 C 91.8625 296.0875 94.3625 301.98125 99.8125 302.65625 C 115.0625 304.76875 130.525 303.80625 145.875 304.09375 C 145.65 363.56875 145.65625 423.05625 145.28125 482.53125 C 145.11875 489.78125 146.15625 497.9875 151.84375 503.125 C 157.16875 507.6875 164.5875 507.55625 171.1875 507.71875 C 267.475 507.89375 363.74375 507.8125 460.03125 507.6875 C 467.69375 507.6625 476.45 506.65 481.875 500.625 C 487.2125 494.1 485.425 485.16875 485.875 477.40625 C 485.7 453.69375 486.6125 430.025 486.4375 406.3125 C 486.45 371.8 486.45625 337.28125 486.46875 302.78125 C 502.14375 303.20625 517.95 304.65 533.5625 302.625 C 542.075 298.6125 542.85625 285.1 535.46875 279.5625 C 508.40625 256.125 481.1125 232.94375 453.75 209.84375 C 451.275 208.19375 452.45625 204.9 452.21875 202.4375 C 452.79375 186.9375 452.63125 171.41875 452.96875 155.90625 C 447.39375 146.36875 437.775 138.05625 426.1875 138.09375 C 412.4875 138.03125 400.625 145.9875 389.625 153.25 C 370.25 137.95 351.4625 121.9125 332.125 106.5625 C 327.5875 103.0375 322.1 100.3375 316.25 100.3125 C 315.69609 100.28594 315.17305 100.29981 314.625 100.3125 z M 313.6875 190.5 C 330.85 190.225 348.05 194.70625 362.875 203.34375 C 382.175 214.51875 397.4 232.6375 404.8125 253.6875 C 412.675 275.5375 412.125 300.275 403.25 321.75 C 400.15 329.5875 395.40625 336.61875 391.59375 344.09375 C 384.94375 355.00625 379.25 366.48125 374.5 378.34375 C 370.3 387.94375 369.96875 398.6 368.96875 408.875 C 333.75625 413.9875 298.60625 419.35 263.40625 424.5 C 263.21875 408.925 262.9625 393 258.0625 378.0625 C 252.7 362.6375 243.1125 349.2 234.1875 335.6875 C 221.425 315.2625 217.04375 289.8625 221.96875 266.3125 C 226.44375 244.35 239.05 224.175 256.8125 210.5 C 272.925 197.875 293.2375 190.7875 313.6875 190.5 z M 368.09375 422.84375 C 367.91875 426.08125 367.7875 429.33125 367.6875 432.59375 C 333.325 437.61875 298.9625 442.7625 264.625 447.9375 C 264.1375 444.6375 263.65 441.35 263.125 438.0625 C 265.7125 437.1125 268.4625 436.8375 271.1875 436.5 C 303.4875 431.975 335.79375 427.35625 368.09375 422.84375 z M 367.1875 445.3125 C 366.4625 448.85 365.53125 452.35 364.28125 455.75 C 334.49375 460.325 304.63125 464.58125 274.84375 469.15625 C 272.44375 466.21875 270.425 463.0125 268.75 459.625 C 301.5625 454.85 334.3625 449.9625 367.1875 445.3125 z M 356.375 469.46875 C 348.0625 479.50625 336.0625 486.6375 323.0625 488.3125 C 310.275 490.3625 296.81875 487.0375 286.15625 479.75 C 309.55625 476.2875 332.925 472.56875 356.375 469.46875 z "
     transform="scale(0.8,0.8)"
     id="path32"
     style="fill:#fafafa;fill-opacity:1" />
  <path
     d="M 316.40625 208.90625 C 297.95152 208.85096 279.45703 214.85156 264.75 226.0625 C 251.4375 236.1125 241.83125 251.03125 238.71875 267.46875 C 234.94375 288.85625 240.04375 310.95 249.71875 330.125 C 255.73125 341.0125 263.75 350.6875 269.375 361.8125 C 275.3 373.1375 278.16875 385.96875 277.96875 398.71875 C 302.40625 399.19375 326.875 398.7875 351.3125 398.9375 C 351.85 398.7875 352.9 398.4625 353.4375 398.3125 C 355.7625 387.3625 357.4 376.09375 362 365.78125 C 367.4 354.06875 374.78125 343.44375 380.96875 332.15625 C 388.44375 317.53125 393.20625 301.41875 393.90625 284.96875 C 394.16875 270.23125 390.4875 255.225 382.1875 242.9375 C 370.8875 225.675 351.875 214.31875 331.8125 210.40625 C 326.73477 209.42734 321.57358 208.92173 316.40625 208.90625 z M 313.90625 224.21875 C 322.15178 224.10134 330.40625 225.40156 338.1875 228.125 C 354.275 233.575 368.94375 245.725 374.09375 262.3125 C 378.95625 279.3 375.18125 299.63125 361.65625 311.71875 C 352.83125 319.46875 340.975 324.6875 329.0625 323.4375 C 324.7375 323.1125 321.925 319.11875 321.4375 315.09375 C 316.6625 320.38125 309.78125 323.9625 302.53125 323.625 C 293.40625 324.1625 285.3125 317.6875 281.125 310 C 276.2125 301.3 276.75 290.73125 279.125 281.34375 C 281.4875 272.28125 287.2125 263.775 295.6875 259.4375 C 307.5875 253.4375 324.28125 254.71875 332.53125 266.15625 C 332.95625 263.64375 333.275 261.1 334.125 258.6875 C 339.2 257.8 344.6 258.525 349.8125 258.4375 C 347.375 271.4125 345.0125 284.4 342.625 297.375 C 341.925 300.65 341.9875 304.0125 342.875 307.25 C 349.4625 308.0625 355.075 303.075 357.5625 297.375 C 361.6 288.225 360.99375 277.68125 358.40625 268.21875 C 355.31875 257.19375 346.73125 248.025 336.09375 243.9375 C 326.65625 240.0375 316.19375 239.5875 306.15625 240.625 C 290.81875 242.525 276.7375 252.6375 270.5625 266.875 C 261.95 286.525 264.9 312.475 281.875 326.8125 C 296.9 339.3625 318.8125 341.7375 337 335.4375 C 342.075 333.9 346.30625 330.5625 351.15625 328.5 C 353.59375 331.55 356.4375 334.3125 358.625 337.5625 C 358.075 339.9 355.3375 340.91875 353.6875 342.46875 C 325.7625 363.44375 282.0375 356.30625 261 328.84375 C 248.025 312.40625 244.6 289.41875 250.875 269.59375 C 255.05 256.28125 263.75625 244.4625 275.21875 236.5 C 286.47656 228.51562 300.1637 224.41443 313.90625 224.21875 z "
     transform="scale(0.8,0.8)"
     id="path36"
     style="fill:#fafafa;fill-opacity:1" />
  <path
     d="m 692.53,206.6 c 3.74,0.01 7.48,0.01 11.23,0.04 0.07,26.65 0.02,53.3 0.06,79.95 -3.77,0.01 -7.54,-0.01 -11.31,0.03 -0.5,-11.42 -0.05,-22.88 -0.21,-34.31 -18.98,-0.05 -37.95,0.07 -56.92,-0.05 -0.37,11.44 -0.03,22.9 -0.17,34.35 -3.81,-0.01 -7.61,0 -11.41,-0.01 0,-26.67 -0.01,-53.33 0.03,-79.99 3.79,-0.02 7.59,-0.02 11.39,0 0.01,11.39 -0.03,22.78 0.03,34.18 19.05,0.03 38.1,0.06 57.15,0 0.23,-11.4 -0.01,-22.8 0.13,-34.19 z"
     id="path40"
     style="fill:#fafafa;fill-opacity:1"
     inkscape:connector-curvature="0" />
  <path
     d="m 1220.2,206.62 c 32,-0.1 64.01,0.05 96.01,-0.1 0.47,3.77 0.3,7.56 0.22,11.34 -11.42,0.51 -22.87,0.07 -34.3,0.26 -0.07,22.82 -0.02,45.63 -0.06,68.45 -3.78,0.01 -7.55,0.01 -11.32,0 -0.03,-22.81 0,-45.62 -0.02,-68.44 -11.41,-0.55 -22.83,0.23 -34.23,-0.24 -0.02,-3.61 0.03,-7.23 -0.03,-10.84 -5.36,4.25 -9.81,9.55 -14.77,14.26 -8.42,8.45 -16.95,16.8 -25.27,25.34 13.28,13.32 26.6,26.61 39.9,39.91 -5.37,-0.16 -10.82,0.39 -16.14,-0.23 -11.53,-11.18 -22.75,-22.7 -34.14,-34.02 -6.05,-0.09 -12.1,0.03 -18.14,-0.07 -0.18,11.43 -0.04,22.87 -0.09,34.31 -3.77,0.01 -7.54,0.01 -11.29,0.01 -0.06,-26.65 -0.01,-53.29 -0.03,-79.94 3.77,-0.03 7.54,-0.03 11.33,0 0.04,11.4 -0.02,22.8 0.02,34.21 6.07,0 12.15,0.05 18.24,-0.04 11.34,-11.42 22.75,-22.77 34.11,-34.17 z"
     id="path42"
     style="fill:#fafafa;fill-opacity:1"
     inkscape:connector-curvature="0" />
  <path
     d="m 532.3,206.63 c 3.83,-0.09 7.67,-0.08 11.51,-0.03 0.03,21.11 0.03,42.23 0.02,63.35 19.11,-21.12 38.07,-42.39 57.27,-63.42 3.72,0.08 7.45,0.05 11.18,0.09 -0.1,11.81 0.12,23.61 0.24,35.41 -0.38,14.86 0.44,29.74 -0.23,44.59 -3.79,-0.02 -7.57,-0.01 -11.35,-0.03 -0.04,-21.49 0.05,-42.98 -0.03,-64.46 -19.04,21.45 -38.03,42.95 -57.01,64.45 -3.84,0.06 -7.67,0.02 -11.5,0.05 -0.31,-26.66 -0.06,-53.33 -0.1,-80 z"
     id="path44"
     style="fill:#fafafa;fill-opacity:1"
     inkscape:connector-curvature="0" />
  <path
     d="m 709.58,206.63 c 26.64,0 53.27,-0.06 79.91,0.05 0.04,3.72 0.04,7.44 0.02,11.16 -11.42,0.14 -22.85,0.02 -34.27,0.07 -0.07,22.89 0,45.78 -0.04,68.68 -3.8,0 -7.59,0 -11.38,-0.01 -0.05,-22.89 0.09,-45.77 -0.05,-68.66 -11.39,-0.05 -22.78,0.01 -34.17,-0.03 -0.03,-3.76 -0.02,-7.51 -0.02,-11.26 z"
     id="path46"
     style="fill:#fafafa;fill-opacity:1"
     inkscape:connector-curvature="0" />
  <path
     d="m 795.32,206.66 c 26.63,-0.05 53.26,-0.03 79.89,0.01 -0.01,3.73 -0.01,7.47 -0.01,11.21 -22.85,0.12 -45.71,-0.15 -68.55,0.14 -0.04,7.6 -0.05,15.21 0.01,22.81 19.01,0.08 38.03,-0.02 57.05,0.07 0.08,3.78 0.07,7.55 0.03,11.33 -19.03,0.08 -38.05,-0.01 -57.08,0.06 -0.04,7.63 -0.03,15.26 0.01,22.89 22.84,0.04 45.68,-0.01 68.52,0.04 0.02,3.78 0.02,7.56 0,11.35 -26.58,0.05 -53.16,-0.09 -79.74,0.08 -0.41,-26.65 -0.07,-53.33 -0.13,-79.99 z"
     id="path48"
     style="fill:#fafafa;fill-opacity:1"
     inkscape:connector-curvature="0" />
  <path
     d="m 884.51,229.03 c -0.18,-12.07 10.98,-22.53 22.9,-22.37 18.96,-0.01 37.92,-0.05 56.89,0.02 -0.02,26.62 0.02,53.25 -0.02,79.87 -3.76,0.01 -7.51,0.02 -11.26,-0.04 -0.02,-22.83 0.01,-45.66 -0.01,-68.49 -15.19,-0.26 -30.4,-0.09 -45.6,-0.09 -6.08,-0.25 -11.73,5.03 -11.6,11.17 -0.09,19.14 0.02,38.29 -0.03,57.43 -3.76,0.04 -7.51,0.04 -11.25,0.04 -0.06,-19.18 -0.01,-38.36 -0.02,-57.54 z"
     id="path50"
     style="fill:#fafafa;fill-opacity:1"
     inkscape:connector-curvature="0" />
  <path
     d="m 977.02,222.39 c 3.06,-9.3 12.55,-15.99 22.34,-15.75 18.8,0.02 37.6,-0.04 56.4,0 0.02,26.62 -0.03,53.23 -0.01,79.85 -3.74,0.1 -7.49,0.07 -11.22,0.05 -0.14,-22.85 0.18,-45.71 -0.16,-68.55 -15.32,-0.17 -30.65,-0.11 -45.97,-0.05 -5.86,-0.05 -11.19,5.11 -11.19,10.99 -0.09,19.2 0.02,38.41 -0.05,57.61 -3.77,0.01 -7.53,0.02 -11.28,0 -0.04,-16.85 0,-33.71 -0.01,-50.56 0.02,-4.54 -0.36,-9.22 1.15,-13.59 z"
     id="path52"
     style="fill:#fafafa;fill-opacity:1"
     inkscape:connector-curvature="0" />
  <path
     d="m 1067.27,206.66 c 26.64,-0.1 53.29,-0.05 79.94,-0.03 -0.02,3.75 -0.02,7.5 -0.02,11.26 -22.83,0.1 -45.66,-0.13 -68.49,0.11 -0.03,7.62 -0.06,15.23 -0.01,22.85 19.02,0.06 38.04,-0.04 57.06,0.02 0.07,3.79 0.06,7.58 0.02,11.37 -19.03,0.07 -38.06,-0.04 -57.09,0.03 -0.08,7.61 0.01,15.22 -0.06,22.83 22.85,0.27 45.7,0.01 68.55,0.12 0.02,3.78 0.02,7.55 -0.01,11.33 -26.58,0.01 -53.17,-0.03 -79.75,0.02 -0.26,-26.63 -0.09,-53.27 -0.14,-79.91 z"
     id="path54"
     style="fill:#fafafa;fill-opacity:1"
     inkscape:connector-curvature="0" />
  <path
     d="m 1320.96,206.59 c 3.87,-0.03 7.75,-0.04 11.63,0.05 -0.27,7.78 -0.22,15.58 -0.04,23.36 -0.18,5.71 5.09,10.87 10.76,10.77 15.41,0.06 30.83,0.04 46.24,-0.01 0.04,-11.4 0.02,-22.79 0.01,-34.18 3.79,-0.02 7.59,-0.02 11.39,-0.01 0.02,19.16 0.01,38.32 0,57.48 0.05,9.35 -6.55,18.08 -15.26,21.21 -4.56,1.78 -9.53,1.26 -14.3,1.33 -8.96,-0.06 -17.93,0.11 -26.88,-0.07 -11.59,-0.55 -21.35,-11.22 -21.17,-22.76 3.69,-0.05 7.4,-0.05 11.11,-0.01 0.33,5.79 4.92,11.24 10.94,11.37 11.01,0.13 22.04,0.08 33.06,0.03 5.51,0.02 10.59,-4.59 10.99,-10.1 0.31,-4.24 0.12,-8.5 0.04,-12.74 -15.03,0.01 -30.05,-0.02 -45.08,0.01 -11.8,0.45 -22.88,-9.49 -23.4,-21.35 -0.14,-8.12 -0.03,-16.25 -0.04,-24.38 z"
     id="path56"
     style="fill:#fafafa;fill-opacity:1"
     inkscape:connector-curvature="0" />
  <path
     d="m 1435.4,206.55 c -9.34,-0.24 -18.22,6.13 -21.5,14.8 -2.32,5.92 -1.475,12.415 -1.625,18.625 0.13,15.54 -0.285,31.095 0.225,46.625 3.76,-0.02 7.545,0.005 11.325,-0.025 0.06,-7.62 -0.13,-15.255 0.1,-22.875 18.98,0.07 37.945,0.04 56.925,0 0.17,7.62 0.04,15.255 0.1,22.875 3.78,0.03 7.56,0.02 11.35,0.05 0.46,-18.86 0.16,-37.745 0.2,-56.625 0.1,-11.62 -9.37,-22.695 -21.15,-23.375 -11.98,-0.16 -23.97,-0.025 -35.95,-0.075 z m 16.975,11.575 c 6.0275,0.001 12.05,0.015 18.075,0.05 5.6,-0.02 10.48,5.22 10.45,10.75 0.04,7.79 0.06,15.585 -0.05,23.375 -18.98,0.01 -37.945,-0.04 -56.925,0.05 -0.18,-7.75 -0.105,-15.5 -0.075,-23.25 -0.02,-5.58 4.74,-10.945 10.45,-10.925 6.025,-0.04 12.0475,-0.0513 18.075,-0.05 z"
     id="path58"
     style="fill:#fafafa;fill-opacity:1"
     inkscape:connector-curvature="0" />
  <path
     d="m 1504.92,222.4 c 3.06,-9.36 12.61,-16.13 22.48,-15.85 18.8,0.01 37.61,-0.01 56.43,0.01 0.04,26.68 -0.01,53.37 0.02,80.05 -3.82,0.01 -7.63,-0.01 -11.43,0.01 -0.35,-22.82 -0.09,-45.66 -0.15,-68.48 -15.31,0.03 -30.61,-0.02 -45.9,0.02 -4.12,-0.21 -7.91,2.42 -9.82,5.94 -1.62,3.02 -1.31,6.57 -1.33,9.88 0.02,17.54 0.02,35.08 -0.01,52.62 -3.81,0 -7.61,0.01 -11.41,0 -0.01,-16.56 -0.01,-33.11 -0.01,-49.66 0.1,-4.85 -0.53,-9.87 1.13,-14.54 z"
     id="path60"
     style="fill:#fafafa;fill-opacity:1"
     inkscape:connector-curvature="0" />
  <path
     d="m 1600.95,206.55 c -1.92,0 -3.835,0.005 -5.75,0.025 -0.03,26.65 0.045,53.3 -0.025,79.95 16.74,0.21 33.5,0.03 50.25,0.1 4.97,-0.08 10.17,0.495 14.9,-1.475 8.58,-3.19 15.01,-11.875 14.9,-21.125 0.19,-5.78 0.195,-11.915 -2.925,-17.025 -3.79,-6.76 -11.05,-11.705 -18.9,-11.825 -15.56,-0.1 -31.125,0.115 -46.675,-0.075 -0.01,-9.5 -0.015,-19.025 -0.025,-28.525 -1.925,-0.02 -3.83,-0.025 -5.75,-0.025 z m 5.825,40.025 c 15.2,0.1 30.415,0 45.625,0.05 5.71,-0.25 11.075,4.63 11.325,10.35 0.13,3.02 0.195,6.055 -0.125,9.075 -0.94,5.18 -5.85,9.145 -11.1,9.075 -15.25,0.1 -30.525,0.025 -45.775,0.025 0.01,-9.53 -0.09,-19.055 0.05,-28.575 z"
     id="path62"
     style="fill:#fafafa;fill-opacity:1"
     inkscape:connector-curvature="0" />
  <path
     d="m 1684.27,206.62 c 3.85,-0.1 7.72,-0.08 11.59,-0.04 -0.01,11.39 0,22.79 -0.01,34.18 19.03,0.01 38.06,0 57.09,0 -0.03,-11.39 -0.02,-22.79 0,-34.19 3.85,-0.03 7.72,-0.05 11.6,0.04 -0.06,26.67 0.16,53.35 -0.11,80.02 -3.84,-0.03 -7.67,0 -11.5,-0.04 -0.01,-11.41 -0.02,-22.83 0.01,-34.25 -19.03,0 -38.06,0 -57.09,0 0.01,11.42 0.01,22.84 0.01,34.26 -3.83,0.03 -7.64,0 -11.45,0.03 -0.34,-26.67 -0.06,-53.34 -0.14,-80.01 z"
     id="path64"
     style="fill:#fafafa;fill-opacity:1"
     inkscape:connector-curvature="0" />
  <path
     style="fill:#fafafa;fill-opacity:1"
     d="m 1775.8,206.55 c -0.04,26.69 0,53.37 0,80.05 19.23,0 38.445,0.04 57.675,0 9.79,-0.06 18.805,-7.325 21.525,-16.625 1.12,-3.89 0.88,-8 0.85,-12 -0.04,-9.52 -6.575,-18.58 -15.575,-21.65 -4.78,-1.78 -9.94,-1 -14.9,-1.15 -12.73,-0.14 -25.49,0.26 -38.2,-0.2 0.08,-9.47 0.01,-18.94 0.05,-28.4 -3.81,-0.04 -7.625,-0.025 -11.425,-0.025 z m 34.525,40.05 c 7.695,0 15.38,0.03 23.075,0.05 5.62,-0.05 10.85,4.91 10.85,10.6 -0.03,4.46 0.865,9.625 -2.175,13.375 -2.21,3.03 -5.935,4.595 -9.625,4.525 -15.03,0.06 -30.055,-0.04 -45.075,0.05 -0.35,-9.51 -0.1,-19.04 -0.15,-28.55 7.695,-0.04 15.405,-0.05 23.1,-0.05 z"
     id="path66"
     inkscape:connector-curvature="0" />
  <path
     d="m 1867.17,206.59 c 3.85,-0.06 7.71,-0.06 11.58,0 0,26.66 0.01,53.33 -0.01,80 -3.83,0.04 -7.66,0 -11.48,0.06 -0.22,-26.68 -0.04,-53.37 -0.09,-80.06 z"
     id="path68"
     style="fill:#fafafa;fill-opacity:1"
     inkscape:connector-curvature="0" />
  <path
     d="m 1890.05,206.58 c 26.7,0 53.41,-0.14 80.11,0.07 -0.11,3.8 -0.1,7.6 -0.07,11.39 -22.81,0.24 -45.63,0.04 -68.45,0.1 0.01,7.54 0,15.09 0.01,22.63 19.02,0 38.04,-0.03 57.06,0.01 0.05,3.85 0.05,7.7 0.02,11.55 -19.03,0.03 -38.05,0.01 -57.08,0.01 0,7.61 -0.02,15.22 0.02,22.84 22.8,0 45.6,-0.03 68.41,0.01 0,3.81 0,7.62 -0.01,11.43 -26.67,-0.03 -53.35,0.04 -80.03,-0.04 0.01,-26.67 -0.01,-53.33 0.01,-80 z"
     id="path70"
     style="fill:#fafafa;fill-opacity:1"
     inkscape:connector-curvature="0" />
  <path
     fill="#faf6fc"
     d=" M 245.41 219.68 C 250.91 216.81 258.64 219.09 260.91 225.09 C 263.79 232.01 260.26 240.78 253.18 243.45 C 248.64 245.32 242.53 244.92 239.45 240.66 C 234.46 233.83 237.81 223.08 245.41 219.68 Z"
     id="path74"
     style="fill:#fafafa;fill-opacity:1" />
  <path
     d="m 532.66,360.07 c 3.12,-8.97 12.25,-15.41 21.74,-15.37 11.67,0.02 23.34,-0.02 35,0.02 11.89,0.14 22.13,11.1 21.95,22.89 -3.75,0.01 -7.5,0.02 -11.25,-0.01 -0.17,-5.74 -4.75,-11.26 -10.69,-11.35 -11.98,-0.09 -23.97,-0.08 -35.94,0 -5.69,0.07 -10.55,5.24 -10.6,10.86 -0.06,11.65 -0.06,23.31 -0.01,34.96 -0.12,6.08 5.45,11.45 11.52,11.22 11.68,-0.01 23.37,0.1 35.05,-0.06 5.95,-0.23 10.48,-5.69 10.72,-11.45 3.7,0.01 7.4,0.02 11.11,-0.04 0.65,11.9 -10.07,22.76 -21.84,22.99 -11.69,0.09 -23.37,0.02 -35.06,0.03 -11.43,0.26 -22.05,-9.28 -22.89,-20.71 -0.48,-8.33 -0.08,-16.69 -0.21,-25.03 0.19,-6.32 -0.73,-12.86 1.4,-18.95 z"
     id="path82"
     style="fill:#fafafa;fill-opacity:1"
     inkscape:connector-curvature="0" />
  <path
     d="m 620.58,344.73 c 3.78,-0.03 7.57,-0.03 11.36,-0.03 0.15,21.1 -0.1,42.21 0.12,63.31 19.02,-21.12 37.99,-42.29 57.11,-63.33 3.81,0.05 7.63,0.02 11.45,0.07 0.03,26.66 0.04,53.32 0.01,79.98 -3.85,0.05 -7.7,0.04 -11.54,0.04 -0.13,-21.52 0.04,-43.04 -0.08,-64.56 -18.88,21.59 -38,42.97 -56.96,64.49 -3.82,0.11 -7.64,0.07 -11.45,0.05 -0.04,-26.67 -0.01,-53.35 -0.02,-80.02 z"
     id="path84"
     style="fill:#fafafa;fill-opacity:1"
     inkscape:connector-curvature="0" />
  <path
     d="m 710.88,365.91 c 0.58,-11.43 11.13,-21.04 22.47,-21.18 12.02,0 24.04,-0.06 36.06,0.04 11.74,0.48 21.27,11.28 21.56,22.8 -3.85,0.05 -7.7,0.09 -11.53,-0.05 0.01,-5.88 -4.97,-11.38 -10.96,-11.31 -11.72,-0.06 -23.45,-0.05 -35.17,0 -4.53,-0.08 -8.72,3.08 -10.3,7.23 -1.04,3.07 -0.73,6.36 -0.76,9.55 0.06,9.7 -0.09,19.42 0.07,29.12 -0.11,5.94 5.13,11.19 11.06,11.15 11.35,0.1 22.69,0.01 34.04,0.04 3.47,0.11 7.02,-1.28 9.23,-4.01 1.97,-2.09 2.39,-5.02 3.29,-7.62 3.65,0.19 7.32,0.13 10.99,0.14 0.1,12.01 -10.44,22.91 -22.49,22.94 -12.02,0 -24.05,0.1 -36.07,-0.05 -11.63,-0.41 -21.86,-10.99 -21.54,-22.69 0.05,-12.03 -0.05,-24.06 0.05,-36.1 z"
     id="path86"
     style="fill:#fafafa;fill-opacity:1"
     inkscape:connector-curvature="0" />
  <path
     d="m 791.97,344.75 c 26.63,-0.03 53.27,0.03 79.9,-0.01 0.11,3.74 0.04,7.48 0.14,11.23 -11.43,0.42 -22.87,0.05 -34.3,0.2 0.06,22.8 -0.12,45.62 0.09,68.43 -3.85,0.29 -7.71,0.14 -11.56,0.14 -0.11,-22.86 0.01,-45.71 -0.03,-68.57 -11.41,-0.03 -22.83,0.02 -34.24,-0.02 -0.05,-3.8 -0.04,-7.6 0,-11.4 z"
     id="path88"
     style="fill:#fafafa;fill-opacity:1"
     inkscape:connector-curvature="0" />
  <path
     d="m 877.67,344.83 c 26.66,-0.12 53.31,-0.06 79.97,-0.01 0.04,3.76 0.04,7.51 0,11.27 -22.85,0.08 -45.7,0 -68.54,0.07 -0.05,7.58 -0.02,15.17 -0.01,22.75 19.02,0.46 38.07,0.05 57.1,0.22 0.02,3.76 0.01,7.51 0.01,11.27 -19.04,0.09 -38.08,-0.04 -57.12,0.08 0.01,7.6 -0.03,15.21 0.03,22.81 22.86,0.1 45.73,-0.08 68.59,0.1 -0.01,3.79 0.02,7.58 -0.07,11.37 -26.64,-0.03 -53.29,0.03 -79.93,-0.02 -0.04,-26.64 0.03,-53.28 -0.03,-79.91 z"
     id="path90"
     style="fill:#fafafa;fill-opacity:1"
     inkscape:connector-curvature="0" />
  <path
     d="m 966.78,344.97 c 3.83,-0.32 7.68,-0.17 11.54,-0.15 11.33,16.45 22.77,32.83 34.11,49.29 11.67,-16.21 22.88,-32.77 34.25,-49.21 3.82,-0.16 7.66,-0.1 11.5,-0.07 0,26.64 0.03,53.27 -0.01,79.9 -3.77,0.02 -7.55,0.02 -11.31,-0.01 -0.08,-19.76 0.14,-39.53 -0.09,-59.29 -11.74,16.1 -22.45,32.97 -34.36,48.93 -11.51,-16.22 -22.48,-32.84 -34.16,-48.92 -0.14,19.76 0,39.53 -0.07,59.29 -3.78,0.03 -7.56,0.03 -11.34,0 -0.05,-26.59 0.12,-53.18 -0.06,-79.76 z"
     id="path92"
     style="fill:#fafafa;fill-opacity:1"
     inkscape:connector-curvature="0" />
  <path
     d="m 1075.4,344.8 c -1.895,-0.001 -3.785,0.03 -5.675,0.125 0.09,26.59 -0.025,53.2 0.025,79.8 17.54,0.05 35.085,-0.005 52.625,0.025 3.01,-0.01 6.065,0.135 9.025,-0.525 9.52,-1.97 17.33,-10.545 18.15,-20.275 0.31,-5.72 0.52,-11.81 -2.05,-17.1 -3.51,-7.74 -11.5,-13.43 -20.1,-13.5 -15.44,-0.05 -30.885,0.04 -46.325,-0.05 -0.02,-9.46 -0.035,-18.925 0.025,-28.375 -1.9,-0.09 -3.805,-0.12375 -5.7,-0.125 z m 28.825,39.925 c 7.7163,-0.001 15.455,0.005 23.175,0.025 5.47,-0.09 10.465,4.67 10.775,10.1 0.17,3.08 0.22,6.195 -0.1,9.275 -0.86,5.42 -6.215,9.575 -11.675,9.225 -15.11,-0.01 -30.2,0.02 -45.3,-0.05 -0.03,-9.52 -0.04,-19.04 0,-28.55 7.715,-0.025 15.4087,-0.0238 23.125,-0.025 z"
     id="path94"
     style="fill:#fafafa;fill-opacity:1"
     inkscape:connector-curvature="0" />
  <path
     d="m 1161.18,344.86 c 3.76,-0.06 7.53,-0.06 11.31,0 -0.05,26.63 0.23,53.26 -0.11,79.88 -3.73,-0.02 -7.45,-0.02 -11.16,-0.01 -0.16,-26.62 -0.04,-53.25 -0.04,-79.87 z"
     id="path96"
     style="fill:#fafafa;fill-opacity:1"
     inkscape:connector-curvature="0" />
</svg>
