<svg xmlns:osb="http://www.openswatchbook.org/uri/2009/osb" xmlns="http://www.w3.org/2000/svg" width="652.291mm" height="146.919mm" viewBox="0 0 2311.2682 520.57925"><defs><linearGradient osb:paint="solid"><stop offset="0"/></linearGradient><clipPath><path d="M0 780h1096V0H0v780z"/></clipPath></defs><g><g><g transform="matrix(9.134 0 0 9.134 46.88 84.808)"><path d="M13.684 11.245L8.332 27.37h10.705z"/><circle cx="13.684" cy="8.104" r="2.141"/><path d="M9.522 12.267c.105.104.242.157.38.157.136 0 .273-.052.377-.157.208-.208.208-.547 0-.756C8.4 9.635 8.4 6.578 10.28 4.7c.208-.21.208-.548 0-.757-.21-.21-.548-.21-.758 0-2.295 2.293-2.295 6.03 0 8.324z"/><path d="M17.09 12.267c.104.104.24.157.378.157.137 0 .274-.052.38-.157 2.294-2.295 2.294-6.03 0-8.324-.21-.21-.55-.21-.758 0-.21.21-.21.547 0 .757 1.877 1.877 1.877 4.934 0 6.81-.21.21-.21.548 0 .757z"/><path d="M8.386 13.402c-2.92-2.92-2.92-7.675 0-10.598.21-.21.21-.547 0-.756-.21-.21-.548-.21-.757 0-3.338 3.338-3.338 8.772 0 12.11.103.105.24.157.377.157.136 0 .274-.052.378-.157.21-.208.21-.547 0-.756z"/><path d="M19.74 2.048c-.208-.21-.55-.21-.758 0-.21.21-.21.547 0 .756 2.922 2.922 2.922 7.676 0 10.598-.21.21-.21.547 0 .756.104.105.24.157.38.157.137 0 .273-.052.378-.157 3.337-3.338 3.337-8.77 0-12.11z"/><path d="M3.518 8.104c0-2.718 1.057-5.27 2.976-7.19.21-.21.21-.55 0-.758-.21-.21-.548-.21-.757 0-4.38 4.382-4.38 11.513 0 15.895.105.105.242.157.38.157.136 0 .273-.052.377-.156.21-.208.21-.547 0-.757-1.92-1.918-2.976-4.472-2.976-7.19z"/><path d="M21.63.157c-.207-.21-.546-.21-.755 0-.21.21-.21.547 0 .757 1.92 1.92 2.976 4.473 2.976 7.19 0 2.718-1.056 5.272-2.975 7.19-.21.21-.21.55 0 .758.104.104.242.156.378.156s.273-.052.378-.156c4.384-4.383 4.384-11.513 0-15.895z"/></g></g><g fill="#d35400"><g><path d="M757.83 175.56V82.872h31.977V332.85H757.83v-98.12c-15.007-1.578-26.598-14.362-26.598-29.583 0-15.234 11.59-27.997 26.6-29.588z"/><g><path d="M592.99 207.866c0-8.608-2.34-17.06-6.757-24.46l-1.81-3.023 3.3-1.226c1.735-.646 3.465-1.444 5.153-2.374l2.497-1.34 1.422 2.438c5.338 9.157 8.163 19.524 8.163 29.98 0 11.042-3.082 21.898-8.928 31.407l-2.16 3.48-2.6-3.15c-.514-.62-1.01-1.24-1.508-1.87-.5-.636-1.01-1.263-1.5-1.857-.2-.248-.41-.458-.634-.682l-1.844-1.962 1.057-1.873c4.02-7.155 6.15-15.28 6.15-23.487z"/><path d="M628.125 207.866c0-16.608-5.05-32.724-14.615-46.625l-1.23-1.783 1.34-1.682c1.304-1.66 2.588-3.353 3.855-5.085l2.4-3.265 2.348 3.286c11.7 16.333 17.874 35.4 17.874 55.16 0 22.083-7.51 42.898-21.695 60.185l-2.138 2.623-2.286-2.475c-.443-.48-.89-.94-1.566-1.617-.526-.53-1.06-1.073-1.713-1.83l-2.333-3.137 1.414-1.743c12.003-14.977 18.345-32.956 18.345-52.01z"/><path d="M666.304 207.866c0-29.168-10.62-57.41-29.886-79.51l-1.49-1.693 1.254-1.862c1.212-1.81 2.43-3.56 3.645-5.26l2.13-3 2.433 2.757c21.83 24.473 33.852 55.932 33.852 88.573 0 31.583-11.43 62.324-32.202 86.59l-1.912 2.19-4.394-3.738c-.834-.715-1.688-1.43-2.513-2.164l-2.168-1.894 1.886-2.205c18.928-22.1 29.366-50.076 29.366-78.784z"/><path d="M704.482 207.866c0-40.267-15.146-78.763-42.656-108.402L659.83 97.3l3.63-3.322c1.04-.966 2.06-1.924 3.14-2.85l2.138-1.854 1.927 2.077c29.533 31.847 45.792 73.227 45.792 116.516 0 40.566-14.522 79.97-40.876 110.963l-1.905 2.26-2.71-2.332c-1.36-1.183-2.733-2.35-4.118-3.477l-2.357-1.885 1.962-2.29c24.526-28.85 38.03-65.514 38.03-103.24z"/></g></g></g><g fill="#d35400"><g><path d="M1769.226 266.853H1547.15c-2.8 0-5.07 2.27-5.07 5.07v51.82c0 2.8 2.27 5.07 5.07 5.07h222.076c2.8 0 5.07-2.27 5.07-5.07v-51.82c0-2.8-2.27-5.07-5.07-5.07zm-1546.82 73.373h-23.788c-6.57 0-11.894-5.325-11.894-11.894 0-6.568 5.325-11.893 11.894-11.893h23.787c6.57 0 11.894 5.324 11.894 11.892 0 6.57-5.326 11.894-11.895 11.894zm-51.235 30.54h-23.786c-6.57 0-11.894-5.325-11.894-11.894 0-6.57 5.325-11.893 11.894-11.893h23.787c6.57 0 11.895 5.323 11.895 11.892 0 6.57-5.325 11.894-11.894 11.894zm115.41 0h-23.788c-6.57 0-11.894-5.325-11.894-11.894 0-6.57 5.326-11.893 11.894-11.893h23.788c6.568 0 11.893 5.323 11.893 11.892 0 6.57-5.325 11.894-11.893 11.894z"/><path d="M1741.803 180.168v76.097h16.316v-76.097c0-4.505-3.653-8.158-8.16-8.158-4.503 0-8.157 3.653-8.157 8.158z"/><path d="M1768.497 160.937c1.555 0 3.11-.594 4.294-1.782 2.363-2.372 2.356-6.21-.014-8.572-6.1-6.08-14.204-9.428-22.816-9.428-8.61 0-16.713 3.348-22.814 9.428-2.372 2.363-2.377 6.2-.015 8.572 2.364 2.37 6.202 2.377 8.572.014 3.814-3.8 8.877-5.894 14.26-5.894 5.383 0 10.446 2.093 14.26 5.893 1.18 1.178 2.73 1.767 4.275 1.767z"/><path d="M1795.878 132.16c-12.27-12.25-28.577-18.998-45.917-18.998-17.337 0-33.645 6.747-45.917 19-2.368 2.364-2.372 6.2-.006 8.57 2.365 2.37 6.203 2.372 8.57.007 9.984-9.968 23.25-15.457 37.354-15.457 14.106 0 27.37 5.49 37.354 15.456 1.183 1.18 2.733 1.77 4.282 1.77 1.552 0 3.105-.593 4.29-1.777 2.364-2.37 2.36-6.207-.008-8.572z"/></g></g><g fill="#d35400"><g><path d="M1070.005 292.326l-.07 7.597c-.08 9.1 3.576 17.366 9.54 23.33 5.824 5.824 13.848 9.457 22.736 9.538l93.91.85c8.68.078 16.585-3.27 22.472-8.753l18.165.16.484-53.737-17.065-.153c-.224-.237-.453-.473-.685-.705-5.823-5.823-13.828-9.47-22.714-9.55l-93.906-.85c-17.986-.166-32.7 14.285-32.865 32.274zm-1022.95-72.884l93.91.848c5.876.053 11.418 2.385 15.598 6.566.162.16.317.32.474.487.07.075.14.146.21.216 1.887 1.885 4.442 2.958 7.12 2.984l6.872.06-.3 33.357-7.977-.07c-2.61-.025-5.13.953-7.036 2.734-4.225 3.934-9.707 6.075-15.434 6.02l-93.91-.85c-5.9-.05-11.448-2.38-15.62-6.552-4.282-4.282-6.61-9.976-6.554-16.028l.068-7.597c.108-12.34 10.237-22.287 22.577-22.175z"/><path d="M1274.505 320.178l.397-43.788c.008-.942-.75-1.71-1.685-1.713l-30.292-.277c-.45-.005-.888.17-1.206.484-.323.317-.506.75-.51 1.198l-.396 43.793c-.005.45.173.884.49 1.205 0 .002.007.007.01.01.313.314.74.49 1.19.498l30.29.27c.936.015 1.703-.738 1.71-1.68zM-751.837-255.9l-.255 28.88-15.382-.136.257-28.878 15.38.135z"/><path d="M1147.167 303.64c1.793 1.793 4.18 2.78 6.716 2.78 2.535 0 4.916-.987 6.71-2.782 1.795-1.794 2.78-4.178 2.78-6.71.005-5.078-4.42-9.503-9.493-9.495-2.532-.003-4.916.987-6.71 2.78-1.795 1.796-2.78 4.18-2.782 6.712-.003 2.535.985 4.92 2.78 6.716zM-920.378 27.467c.722 0 1.398.28 1.91.792.51.508.79 1.184.792 1.907 0 .72-.283 1.397-.792 1.906-.51.51-1.187.79-1.91.79-1.446.007-2.7-1.255-2.696-2.698 0-.72.282-1.396.792-1.906.508-.51 1.184-.792 1.905-.793z"/><path d="M1137.913 308.298c1.212 1.212 2.636 2.25 4.238 3.046 1.677.84 3.718.16 4.557-1.52.84-1.68.158-3.732-1.524-4.56-3.19-1.593-5.165-4.794-5.167-8.352.002-3.606 2.114-6.928 5.382-8.455 1.7-.796 2.435-2.82 1.64-4.517-.802-1.693-2.822-2.432-4.52-1.64-5.647 2.645-9.296 8.38-9.297 14.615 0 4.367 1.726 8.416 4.693 11.383z"/><path d="M1126.228 313.054c1.72 1.72 3.734 3.184 6 4.31 1.68.84 3.717.162 4.556-1.524.835-1.675.158-3.727-1.524-4.555-5.473-2.733-8.87-8.223-8.867-14.338-.005-6.188 3.624-11.888 9.23-14.51 1.703-.8 2.436-2.82 1.64-4.518-.802-1.684-2.818-2.43-4.518-1.638-7.99 3.737-13.153 11.852-13.153 20.668 0 6.178 2.437 11.905 6.636 16.104z"/><path d="M1162.32 288.46c3.27 1.534 5.385 4.85 5.385 8.453-.003 3.563-1.983 6.763-5.173 8.36-1.677.832-2.362 2.874-1.52 4.55.167.336.382.635.634.888 1.004 1.005 2.583 1.307 3.92.636 5.51-2.75 8.93-8.28 8.928-14.433 0-6.237-3.658-11.967-9.3-14.61-1.7-.797-3.723-.063-4.516 1.638-.796 1.705-.047 3.725 1.643 4.52z"/><path d="M1172.09 282.44c5.624 2.628 9.236 8.327 9.24 14.513.004 6.11-3.398 11.603-8.874 14.334-1.675.836-2.358 2.88-1.52 4.556.17.338.385.638.636.89 1.004 1.003 2.58 1.303 3.925.635 7.79-3.89 12.628-11.713 12.626-20.416.003-8.814-5.164-16.927-13.153-20.667-1.698-.795-3.723-.064-4.516 1.638-.79 1.7-.054 3.72 1.637 4.516z"/></g></g><text style="line-height:125%" x="-1238.057" y="-1279.143" transform="matrix(1.25 0 0 1.25 1545.325 1628.617)" font-size="32" font-family="Sans" letter-spacing="0" word-spacing="0"><tspan x="-1238.057" y="-1279.143">Сотовая станция</tspan></text><text style="line-height:125%" x="-784.343" y="-1279.143" transform="matrix(1.25 0 0 1.25 1545.325 1628.617)" font-size="32" font-family="Sans" letter-spacing="0" word-spacing="0" fill="#d35400"><tspan x="-784.343" y="-1279.143">Антенна 3G/4G</tspan></text><text style="line-height:125%" x="-408.571" y="-1279.143" transform="matrix(1.25 0 0 1.25 1545.325 1628.617)" font-size="32" font-family="Sans" letter-spacing="0" word-spacing="0" fill="#d35400"><tspan x="-408.571" y="-1279.143">3G/4G модем</tspan></text><text style="line-height:125%" x="-71.657" y="-1278.001" transform="matrix(1.25 0 0 1.25 1545.325 1628.617)" font-size="32" font-family="Sans" letter-spacing="0" word-spacing="0" fill="#d35400"><tspan x="-71.657" y="-1278.001">Wi-Fi интернет-центр</tspan></text><path d="M772.39 331.072v100.085h341.583V331.072" stroke="#d35400" stroke-width="10" fill="none"/><path d="M172.468 331.116v100h500V322.28" stroke="#000" stroke-width="10" stroke-dasharray="8, 16" fill="none"/><g><g transform="matrix(.409 0 0 .409 2061.267 81.554)"><circle r="16.057" cy="553.012" cx="503.625"/><path d="M377.52 262.092c-2.03 4.84-7.63 7.132-12.47 5.08-4.843-2.032-7.134-7.63-5.08-12.47 2.29-5.4 5.04-10.46 8.146-15.062 3.228-4.78 6.913-9.264 10.917-13.248 4.005-4.004 8.447-7.67 13.248-10.917 4.663-3.148 9.724-5.897 15.022-8.168 4.84-2.052 10.46.2 12.53 5.04 2.053 4.84-.198 10.46-5.04 12.51-4.104 1.754-8.088 3.925-11.813 6.436-3.687 2.49-7.19 5.4-10.4 8.606-3.206 3.206-6.114 6.732-8.604 10.398-2.572 3.806-4.763 7.77-6.456 11.794z"/><path d="M336.062 260.877c-1.354 5.1-6.595 8.128-11.693 6.773-5.103-1.354-8.13-6.594-6.774-11.694.678-2.55 1.573-5.36 2.61-8.407l-.04-.02c.876-2.53 1.952-5.3 3.187-8.25l.02-.04h-.02c1.595-3.744 3.407-7.49 5.42-11.175 1.973-3.625 4.144-7.172 6.475-10.638h-.02c2.19-3.247 4.682-6.554 7.43-9.88l.02-.02-.02-.02c2.71-3.268 5.48-6.336 8.288-9.145 2.688-2.69 5.776-5.5 9.204-8.308l.3-.24c3.207-2.648 6.414-5.06 9.56-7.17l.658-.4c3.248-2.15 6.595-4.202 10-6.055v-.04c3.487-1.894 7.253-3.707 11.157-5.38 2.51-1.056 5.3-2.132 8.208-3.148v-.02c2.948-1.016 5.776-1.893 8.485-2.63 5.102-1.354 10.34 1.674 11.694 6.774 1.354 5.1-1.673 10.34-6.772 11.694-2.55.697-4.96 1.415-7.133 2.172l-.04.02c-2.17.737-4.502 1.654-6.973 2.69-3.128 1.334-6.335 2.888-9.542 4.62l-.02-.02c-2.89 1.555-5.698 3.268-8.408 5.06l-.657.5c-2.908 1.972-5.638 3.983-8.048 5.956l-.063.04-.06.06-.26.22c-2.49 2.03-5.1 4.462-7.788 7.13-2.59 2.59-5.002 5.2-7.134 7.79-2.11 2.55-4.224 5.38-6.275 8.448l-.02-.02v.02c-1.95 2.89-3.824 5.937-5.52 9.064-1.633 3.008-3.187 6.215-4.62 9.542v-.02c-.877 2.052-1.772 4.383-2.67 7.013l-.04-.02v.02c-.653 2.052-1.37 4.442-2.108 7.152z"/><path d="M295.48 260.24c-1.015 5.18-6.036 8.566-11.215 7.55-5.18-.995-8.566-6.036-7.55-11.215 3.228-16.236 8.885-31.895 16.694-46.438l.02-.02-.02-.02c7.83-14.563 17.75-27.99 29.522-39.764 11.773-11.774 25.2-21.715 39.784-29.544l.52-.26c14.4-7.67 29.922-13.248 45.978-16.437 5.18-.996 10.22 2.37 11.217 7.55.997 5.18-2.37 10.2-7.55 11.216-14.264 2.828-27.95 7.75-40.64 14.462l-.5.28c-12.83 6.892-24.742 15.737-35.28 26.256-10.52 10.52-19.364 22.452-26.258 35.282l-.02-.02c-6.85 12.83-11.852 26.676-14.7 41.12z"/><path d="M367.758 592.856c5.28 0 9.563 4.282 9.563 9.58 0 5.28-4.303 9.564-9.562 9.564H170.133c-5.28 0-9.583-4.283-9.583-9.563v-24.702c0-4.064 2.55-7.552 6.136-8.945l43.27-21.635v-18.847c0-5.278 4.303-9.583 9.583-9.583s9.562 4.305 9.562 9.583v24.703h-.04c0 3.487-1.932 6.855-5.26 8.527l-44.086 22.054v9.266h188.042z"/><path d="M262.77 537.89c-5.28 0-9.563-4.28-9.563-9.56s4.303-9.583 9.563-9.583h98.813c5.28 0 9.563 4.303 9.563 9.582 0 5.278-4.304 9.56-9.563 9.56H262.77z"/><path d="M612 215.615c0 5.28-4.283 9.562-9.562 9.562-5.28 0-9.582-4.283-9.582-9.562V58.97c0-10.918-4.504-20.9-11.716-28.11-7.23-7.212-17.19-11.715-28.13-11.715H58.97c-10.918 0-20.88 4.482-28.11 11.674l-.04.04c-7.193 7.23-11.675 17.192-11.675 28.11v370.546c0 10.917 4.502 20.878 11.714 28.11l.417.478c7.192 6.934 16.974 11.236 27.67 11.236h302.615c5.278 0 9.562 4.303 9.562 9.563 0 5.278-4.304 9.582-9.562 9.582H58.97c-15.86 0-30.342-6.415-40.96-16.716l-.677-.617C6.633 460.475 0 445.713 0 429.516V58.97C0 42.81 6.654 28.05 17.332 17.372l.04-.04C28.05 6.653 42.812 0 58.97 0h494.04c16.218 0 30.98 6.654 41.657 17.332C605.327 27.992 612 42.752 612 58.99v156.625z"/><path d="M550.242 213.363c0 5.28-4.303 9.583-9.563 9.583-5.28 0-9.563-4.283-9.563-9.583V80.883H80.903v264.96h280.68c5.278 0 9.56 4.284 9.56 9.564s-4.302 9.582-9.56 9.582H71.318c-5.28 0-9.563-4.305-9.563-9.583V71.32c0-5.28 4.283-9.563 9.563-9.563H540.66c5.28 0 9.562 4.303 9.562 9.563v142.043h.02z"/><path d="M448.043 562.594c-5.28 0-9.562-4.283-9.562-9.582 0-5.278 4.283-9.562 9.563-9.562h12.352c5.28 0 9.582 4.283 9.582 9.562 0 5.28-4.303 9.582-9.582 9.582h-12.352z"/><path d="M549.625 309.407h-92V500.22h92V309.406zm-101.582-19.164h111.145c5.277 0 9.56 4.303 9.56 9.583V509.804c0 5.278-4.282 9.562-9.56 9.562H448.04c-5.278 0-9.56-4.283-9.56-9.563V299.823c-.002-5.278 4.282-9.58 9.56-9.58z"/><path d="M577.734 266.176H429.516c-4.124 0-7.908 1.713-10.657 4.422l-.04.04c-2.71 2.75-4.425 6.534-4.425 10.658v296.438c0 4.124 1.715 7.93 4.464 10.657 2.728 2.75 6.514 4.465 10.656 4.465h148.22c4.144 0 7.93-1.715 10.657-4.464 2.75-2.728 4.464-6.532 4.464-10.656V281.297c0-4.144-1.715-7.93-4.464-10.678l-.34-.36c-2.69-2.53-6.334-4.084-10.32-4.084zm-148.218-19.144h148.22c9.084 0 17.41 3.626 23.566 9.483l.64.578c6.193 6.196 10.06 14.782 10.06 24.205v296.438c0 9.442-3.865 18.01-10.06 24.205-6.197 6.195-14.784 10.06-24.207 10.06h-148.22c-9.422 0-18.01-3.864-24.204-10.06-6.193-6.217-10.06-14.803-10.06-24.205V281.297c0-9.383 3.865-17.93 10.06-24.146l.04-.04c6.236-6.214 14.783-10.078 24.166-10.078z"/><path d="M546.855 562.594c-5.28 0-9.582-4.283-9.582-9.582 0-5.278 4.303-9.562 9.582-9.562h12.352c5.28 0 9.562 4.283 9.562 9.562 0 5.28-4.283 9.582-9.563 9.582h-12.352z"/><path d="M306 408.2c-2.47 0-4.722 1.016-6.335 2.63l-.34.318c-1.414 1.594-2.29 3.705-2.29 6.017 0 2.49.996 4.74 2.61 6.354l.02-.022c1.613 1.614 3.865 2.61 6.335 2.61 2.49 0 4.722-.996 6.335-2.57l.04-.04c1.574-1.613 2.57-3.864 2.57-6.335 0-2.49-.996-4.74-2.59-6.355l-.02.02c-1.613-1.613-3.864-2.628-6.335-2.628zm-19.882-10.898c5.08-5.08 12.132-8.228 19.882-8.228 7.75 0 14.782 3.146 19.862 8.228l-.02.02.02.02c5.06 5.063 8.228 12.094 8.228 19.823 0 7.71-3.168 14.742-8.228 19.822l-.04.04c-5.08 5.06-12.112 8.228-19.822 8.228-7.75 0-14.782-3.146-19.882-8.228l.02-.02-.02-.02c-5.06-5.08-8.228-12.095-8.228-19.823 0-7.41 2.91-14.164 7.59-19.165l.638-.698z"/></g></g><path d="M1737.215 331.376v99.505h459.077v-99.504" stroke="#000" stroke-width="10" stroke-dasharray="8, 16" fill="none"/><path d="M1197.197 332.32v99.145h386.256v-113.83" stroke="#d35400" stroke-width="10" fill="none"/><text style="line-height:125%" x="-994.743" y="-894.686" transform="matrix(1.25 0 0 1.25 1545.325 1628.617)" font-size="32" font-family="Sans" letter-spacing="0" word-spacing="0"><tspan x="-994.743" y="-894.686">3G или 4G</tspan></text><text style="line-height:125%" x="-624.8" y="-893.086" transform="matrix(1.25 0 0 1.25 1545.325 1628.617)" font-size="32" font-family="Sans" letter-spacing="0" word-spacing="0" fill="#d35400"><tspan x="-624.8" y="-893.086">Кабельная сборка</tspan></text><text style="line-height:125%" x="-156.343" y="-891.943" transform="matrix(1.25 0 0 1.25 1545.325 1628.617)" font-size="32" font-family="Sans" letter-spacing="0" word-spacing="0" fill="#d35400"><tspan x="-156.343" y="-891.943">USB</tspan></text><text style="line-height:125%" x="304.457" y="-891.829" transform="matrix(1.25 0 0 1.25 1545.325 1628.617)" font-size="32" font-family="Sans" letter-spacing="0" word-spacing="0"><tspan x="304.457" y="-891.829">Wi-Fi</tspan></text></g></svg>