<?xml version="1.0" encoding="UTF-8" standalone="no"?>
<!-- Created with Inkscape (http://www.inkscape.org/) -->

<svg
   xmlns:osb="http://www.openswatchbook.org/uri/2009/osb"
   xmlns:dc="http://purl.org/dc/elements/1.1/"
   xmlns:cc="http://creativecommons.org/ns#"
   xmlns:rdf="http://www.w3.org/1999/02/22-rdf-syntax-ns#"
   xmlns:svg="http://www.w3.org/2000/svg"
   xmlns="http://www.w3.org/2000/svg"
   xmlns:sodipodi="http://sodipodi.sourceforge.net/DTD/sodipodi-0.dtd"
   xmlns:inkscape="http://www.inkscape.org/namespaces/inkscape"
   width="652.29126mm"
   height="146.91905mm"
   viewBox="0 0 2311.2682 520.57925"
   id="svg2"
   version="1.1"
   inkscape:version="0.91 r13725"
   sodipodi:docname="schema.svg">
  <defs
     id="defs4">
    <linearGradient
       id="linearGradient7963"
       osb:paint="solid">
      <stop
         style="stop-color:#000000;stop-opacity:1;"
         offset="0"
         id="stop7965" />
    </linearGradient>
    <clipPath
       id="clipPath4152"
       clipPathUnits="userSpaceOnUse">
      <path
         inkscape:connector-curvature="0"
         id="path4154"
         d="M 0,780 1096,780 1096,0 0,0 0,780 Z" />
    </clipPath>
  </defs>
  <sodipodi:namedview
     id="base"
     pagecolor="#ffffff"
     bordercolor="#666666"
     borderopacity="1.0"
     inkscape:pageopacity="0.0"
     inkscape:pageshadow="2"
     inkscape:zoom="0.35"
     inkscape:cx="1155.6341"
     inkscape:cy="403.31312"
     inkscape:document-units="px"
     inkscape:current-layer="g4144"
     showgrid="true"
     showguides="true"
     inkscape:guide-bbox="true"
     objecttolerance="20"
     fit-margin-top="0"
     fit-margin-left="0"
     fit-margin-right="0"
     fit-margin-bottom="0"
     inkscape:window-width="1511"
     inkscape:window-height="878"
     inkscape:window-x="-8"
     inkscape:window-y="-8"
     inkscape:window-maximized="1">
    <inkscape:grid
       type="xygrid"
       id="grid6118"
       empspacing="50"
       originx="1047.4677"
       originy="-560.5367"
       dotted="true"
       snapvisiblegridlinesonly="false" />
  </sodipodi:namedview>
  <metadata
     id="metadata7">
    <rdf:RDF>
      <cc:Work
         rdf:about="">
        <dc:format>image/svg+xml</dc:format>
        <dc:type
           rdf:resource="http://purl.org/dc/dcmitype/StillImage" />
        <dc:title />
        <cc:license
           rdf:resource="dintels.ru" />
        <dc:creator>
          <cc:Agent>
            <dc:title>dintels.ru</dc:title>
          </cc:Agent>
        </dc:creator>
      </cc:Work>
    </rdf:RDF>
  </metadata>
  <g
     inkscape:label="Layer 1"
     inkscape:groupmode="layer"
     id="layer1"
     transform="translate(1047.4677,28.753808)">
    <g
       transform="matrix(1.25,0,0,-1.25,497.85714,1599.8628)"
       inkscape:label="antenna tower and satellite"
       id="g4144">
      <g
         transform="matrix(7.3070705,0,0,-7.3070705,-1198.7563,1235.0467)"
         id="g5740"
         style="fill:#2c3e50;fill-opacity:1;stroke:none;stroke-opacity:1">
        <g
           id="g5684"
           style="fill:#2c3e50;fill-opacity:1;stroke:none;stroke-opacity:1">
          <g
             id="g5686"
             style="fill:#2c3e50;fill-opacity:1;stroke:none;stroke-opacity:1">
            <polygon
               points="13.684,11.245 8.332,27.37 19.037,27.37 "
               id="polygon5688"
               style="fill:#2c3e50;fill-opacity:1;stroke:none;stroke-opacity:1" />
            <circle
               cx="13.684"
               cy="8.1040001"
               r="2.141"
               id="circle5690"
               style="fill:#2c3e50;fill-opacity:1;stroke:none;stroke-opacity:1" />
            <path
               inkscape:connector-curvature="0"
               d="m 9.522,12.267 c 0.105,0.104 0.242,0.157 0.379,0.157 0.137,0 0.274,-0.052 0.378,-0.157 0.209,-0.208 0.209,-0.547 0,-0.756 -1.877,-1.877 -1.877,-4.934 0,-6.811 0.209,-0.209 0.209,-0.548 0,-0.757 -0.208,-0.209 -0.547,-0.209 -0.757,0 -2.295,2.293 -2.295,6.029 0,8.324 z"
               id="path5692"
               style="fill:#2c3e50;fill-opacity:1;stroke:none;stroke-opacity:1" />
            <path
               inkscape:connector-curvature="0"
               d="m 17.09,12.267 c 0.104,0.104 0.241,0.157 0.378,0.157 0.137,0 0.274,-0.052 0.379,-0.157 2.295,-2.295 2.295,-6.029 0,-8.324 -0.209,-0.209 -0.548,-0.209 -0.757,0 -0.209,0.209 -0.209,0.547 0,0.757 1.877,1.877 1.877,4.934 0,6.811 -0.209,0.208 -0.209,0.547 0,0.756 z"
               id="path5694"
               style="fill:#2c3e50;fill-opacity:1;stroke:none;stroke-opacity:1" />
            <path
               inkscape:connector-curvature="0"
               d="m 8.386,13.402 c -2.921,-2.921 -2.921,-7.675 0,-10.598 0.209,-0.209 0.209,-0.547 0,-0.756 -0.209,-0.209 -0.548,-0.209 -0.757,0 -3.337,3.338 -3.337,8.772 0,12.11 0.104,0.105 0.242,0.157 0.378,0.157 0.136,0 0.274,-0.052 0.378,-0.157 0.21,-0.208 0.21,-0.547 10e-4,-0.756 z"
               id="path5696"
               style="fill:#2c3e50;fill-opacity:1;stroke:none;stroke-opacity:1" />
            <path
               inkscape:connector-curvature="0"
               d="m 19.74,2.048 c -0.208,-0.209 -0.549,-0.209 -0.758,0 -0.209,0.209 -0.209,0.547 0,0.756 2.922,2.922 2.922,7.676 0,10.598 -0.209,0.209 -0.209,0.547 0,0.756 0.104,0.105 0.241,0.157 0.38,0.157 0.137,0 0.273,-0.052 0.378,-0.157 3.337,-3.338 3.337,-8.77 0,-12.11 z"
               id="path5698"
               style="fill:#2c3e50;fill-opacity:1;stroke:none;stroke-opacity:1" />
            <path
               inkscape:connector-curvature="0"
               d="m 3.518,8.104 c 0,-2.718 1.057,-5.271 2.976,-7.191 0.209,-0.209 0.209,-0.548 0,-0.757 -0.209,-0.209 -0.548,-0.209 -0.757,0 -4.381,4.382 -4.381,11.513 0,15.895 0.105,0.104 0.242,0.156 0.379,0.156 0.137,0 0.274,-0.052 0.378,-0.156 0.209,-0.209 0.209,-0.548 0,-0.758 C 4.575,13.375 3.518,10.821 3.518,8.104 Z"
               id="path5700"
               style="fill:#2c3e50;fill-opacity:1;stroke:none;stroke-opacity:1" />
            <path
               inkscape:connector-curvature="0"
               d="m 21.631,0.157 c -0.208,-0.209 -0.547,-0.209 -0.756,0 -0.209,0.209 -0.209,0.547 0,0.757 1.919,1.919 2.976,4.473 2.976,7.191 0,2.717 -1.057,5.271 -2.976,7.189 -0.209,0.209 -0.209,0.549 0,0.758 0.104,0.104 0.242,0.156 0.378,0.156 0.136,0 0.273,-0.052 0.378,-0.156 4.383,-4.383 4.383,-11.513 0,-15.895 z"
               id="path5702"
               style="fill:#2c3e50;fill-opacity:1;stroke:none;stroke-opacity:1" />
          </g>
        </g>
        <g
           id="g5704"
           style="fill:#2c3e50;fill-opacity:1;stroke:none;stroke-opacity:1" />
        <g
           id="g5706"
           style="fill:#2c3e50;fill-opacity:1;stroke:none;stroke-opacity:1" />
        <g
           id="g5708"
           style="fill:#2c3e50;fill-opacity:1;stroke:none;stroke-opacity:1" />
        <g
           id="g5710"
           style="fill:#2c3e50;fill-opacity:1;stroke:none;stroke-opacity:1" />
        <g
           id="g5712"
           style="fill:#2c3e50;fill-opacity:1;stroke:none;stroke-opacity:1" />
        <g
           id="g5714"
           style="fill:#2c3e50;fill-opacity:1;stroke:none;stroke-opacity:1" />
        <g
           id="g5716"
           style="fill:#2c3e50;fill-opacity:1;stroke:none;stroke-opacity:1" />
        <g
           id="g5718"
           style="fill:#2c3e50;fill-opacity:1;stroke:none;stroke-opacity:1" />
        <g
           id="g5720"
           style="fill:#2c3e50;fill-opacity:1;stroke:none;stroke-opacity:1" />
        <g
           id="g5722"
           style="fill:#2c3e50;fill-opacity:1;stroke:none;stroke-opacity:1" />
        <g
           id="g5724"
           style="fill:#2c3e50;fill-opacity:1;stroke:none;stroke-opacity:1" />
        <g
           id="g5726"
           style="fill:#2c3e50;fill-opacity:1;stroke:none;stroke-opacity:1" />
        <g
           id="g5728"
           style="fill:#2c3e50;fill-opacity:1;stroke:none;stroke-opacity:1" />
        <g
           id="g5730"
           style="fill:#2c3e50;fill-opacity:1;stroke:none;stroke-opacity:1" />
        <g
           id="g5732"
           style="fill:#2c3e50;fill-opacity:1;stroke:none;stroke-opacity:1" />
      </g>
      <g
         transform="matrix(-0.56085092,0,0,-0.56085092,-586.57664,1236.5951)"
         id="g5830"
         style="fill:#e74c3c;fill-opacity:1">
        <g
           id="g5768"
           style="fill:#e74c3c;fill-opacity:1">
          <g
             id="g5770"
             style="fill:#e74c3c;fill-opacity:1">
            <g
               id="g5772"
               style="fill:#e74c3c;fill-opacity:1">
              <path
                 inkscape:connector-curvature="0"
                 d="m 77.422,132.22 0,-132.22 -45.615,0 0,356.601 45.615,0 0,-139.972 c 21.41,-2.251 37.944,-20.488 37.944,-42.201 0.001,-21.732 -16.533,-39.939 -37.944,-42.208 z"
                 id="path5774"
                 style="fill:#e74c3c;fill-opacity:1" />
            </g>
            <g
               id="g5776"
               style="fill:#e74c3c;fill-opacity:1">
              <g
                 id="g5778"
                 style="fill:#e74c3c;fill-opacity:1">
                <path
                   inkscape:connector-curvature="0"
                   d="m 312.574,178.307 c 0,-12.28 3.338,-24.337 9.638,-34.894 l 2.582,-4.312 -4.708,-1.748 c -2.474,-0.922 -4.942,-2.06 -7.35,-3.387 l -3.562,-1.913 -2.029,3.479 c -7.614,13.061 -11.644,27.851 -11.644,42.767 0,15.751 4.396,31.237 12.736,44.802 l 3.081,4.966 3.711,-4.497 c 0.732,-0.883 1.44,-1.766 2.149,-2.667 0.715,-0.906 1.441,-1.801 2.138,-2.647 0.288,-0.354 0.589,-0.654 0.906,-0.973 l 2.631,-2.799 -1.508,-2.672 c -5.733,-10.207 -8.771,-21.796 -8.771,-33.505 z"
                   id="path5780"
                   style="fill:#e74c3c;fill-opacity:1" />
              </g>
              <g
                 id="g5782"
                 style="fill:#e74c3c;fill-opacity:1">
                <path
                   inkscape:connector-curvature="0"
                   d="m 262.452,178.307 c 0,-23.692 7.205,-46.682 20.849,-66.512 l 1.753,-2.546 -1.909,-2.399 c -1.861,-2.366 -3.693,-4.783 -5.5,-7.254 l -3.423,-4.657 -3.351,4.687 c -16.688,23.298 -25.497,50.5 -25.497,78.687 0,31.501 10.713,61.195 30.949,85.856 l 3.05,3.741 3.261,-3.53 c 0.631,-0.686 1.268,-1.34 2.234,-2.307 0.75,-0.756 1.513,-1.531 2.443,-2.611 l 3.327,-4.475 -2.018,-2.485 C 271.5,231.137 262.452,205.49 262.452,178.307 Z"
                   id="path5784"
                   style="fill:#e74c3c;fill-opacity:1" />
              </g>
              <g
                 id="g5786"
                 style="fill:#e74c3c;fill-opacity:1">
                <path
                   inkscape:connector-curvature="0"
                   d="m 207.988,178.307 c 0,-41.61 15.15,-81.896 42.634,-113.422 l 2.126,-2.417 -1.789,-2.657 c -1.729,-2.582 -3.465,-5.08 -5.2,-7.503 l -3.039,-4.279 -3.471,3.931 c -31.141,34.912 -48.29,79.789 -48.29,126.353 0,45.054 16.303,88.907 45.937,123.524 l 2.727,3.123 6.269,-5.332 c 1.189,-1.021 2.408,-2.042 3.585,-3.087 l 3.093,-2.702 -2.69,-3.146 C 222.879,259.167 207.988,219.259 207.988,178.307 Z"
                   id="path5788"
                   style="fill:#e74c3c;fill-opacity:1" />
              </g>
              <g
                 id="g5790"
                 style="fill:#e74c3c;fill-opacity:1">
                <path
                   inkscape:connector-curvature="0"
                   d="m 153.527,178.307 c 0,-57.442 21.605,-112.358 60.849,-154.639 l 2.847,-3.086 -5.176,-4.741 c -1.483,-1.378 -2.942,-2.744 -4.479,-4.065 l -3.051,-2.645 -2.75,2.963 c -42.13,45.43 -65.323,104.459 -65.323,166.213 0,57.868 20.716,114.079 58.31,158.292 l 2.72,3.225 3.867,-3.326 c 1.939,-1.688 3.897,-3.351 5.873,-4.96 l 3.362,-2.69 -2.798,-3.267 C 172.791,284.423 153.527,232.122 153.527,178.307 Z"
                   id="path5792"
                   style="fill:#e74c3c;fill-opacity:1" />
              </g>
            </g>
          </g>
        </g>
        <g
           id="g5794"
           style="fill:#e74c3c;fill-opacity:1" />
        <g
           id="g5796"
           style="fill:#e74c3c;fill-opacity:1" />
        <g
           id="g5798"
           style="fill:#e74c3c;fill-opacity:1" />
        <g
           id="g5800"
           style="fill:#e74c3c;fill-opacity:1" />
        <g
           id="g5802"
           style="fill:#e74c3c;fill-opacity:1" />
        <g
           id="g5804"
           style="fill:#e74c3c;fill-opacity:1" />
        <g
           id="g5806"
           style="fill:#e74c3c;fill-opacity:1" />
        <g
           id="g5808"
           style="fill:#e74c3c;fill-opacity:1" />
        <g
           id="g5810"
           style="fill:#e74c3c;fill-opacity:1" />
        <g
           id="g5812"
           style="fill:#e74c3c;fill-opacity:1" />
        <g
           id="g5814"
           style="fill:#e74c3c;fill-opacity:1" />
        <g
           id="g5816"
           style="fill:#e74c3c;fill-opacity:1" />
        <g
           id="g5818"
           style="fill:#e74c3c;fill-opacity:1" />
        <g
           id="g5820"
           style="fill:#e74c3c;fill-opacity:1" />
        <g
           id="g5822"
           style="fill:#e74c3c;fill-opacity:1" />
      </g>
      <g
         transform="matrix(0.46759447,0,0,-0.46759447,-2.594911,1228.3347)"
         id="g5909"
         style="fill:#e74c3c;fill-opacity:1">
        <g
           id="g5861"
           style="fill:#e74c3c;fill-opacity:1">
          <g
             id="g5863"
             style="fill:#e74c3c;fill-opacity:1">
            <path
               inkscape:connector-curvature="0"
               d="m 388.947,297.353 -380.266,0 C 3.887,297.353 0,301.24 0,306.035 l 0,88.73 c 0,4.795 3.887,8.682 8.681,8.682 l 380.266,0 c 4.795,0 8.682,-3.887 8.682,-8.682 l 0,-88.73 c 0,-4.795 -3.887,-8.682 -8.682,-8.682 z m -285.174,73.413 -40.732,0 c -11.249,0 -20.366,-9.119 -20.366,-20.366 0,-11.248 9.118,-20.366 20.366,-20.366 l 40.732,0 c 11.247,0 20.366,9.118 20.366,20.366 0,11.247 -9.119,20.366 -20.366,20.366 z m 115.408,0 -40.732,0 c -11.248,0 -20.366,-9.119 -20.366,-20.366 0,-11.248 9.118,-20.366 20.366,-20.366 l 40.732,0 c 11.248,0 20.366,9.118 20.366,20.366 0,11.247 -9.119,20.366 -20.366,20.366 z m 115.409,0 -40.732,0 c -11.25,0 -20.367,-9.119 -20.367,-20.366 0,-11.248 9.119,-20.366 20.367,-20.366 l 40.732,0 c 11.246,0 20.365,9.118 20.365,20.366 0,11.247 -9.119,20.366 -20.365,20.366 z"
               id="path5865"
               style="fill:#e74c3c;fill-opacity:1" />
            <path
               inkscape:connector-curvature="0"
               d="m 341.99,148.919 0,130.304 27.938,0 0,-130.304 c 0,-7.714 -6.254,-13.968 -13.969,-13.968 -7.713,0 -13.969,6.254 -13.969,13.968 z"
               id="path5867"
               style="fill:#e74c3c;fill-opacity:1" />
            <path
               inkscape:connector-curvature="0"
               d="m 387.699,115.99 c 2.662,0 5.324,-1.018 7.352,-3.052 4.045,-4.061 4.033,-10.631 -0.025,-14.677 -10.447,-10.41 -24.322,-16.144 -39.068,-16.144 -14.746,0 -28.619,5.733 -39.066,16.144 -4.061,4.046 -4.07,10.616 -0.025,14.677 4.045,4.06 10.617,4.07 14.676,0.025 6.531,-6.507 15.201,-10.091 24.418,-10.091 9.217,0 17.887,3.584 24.416,10.091 2.023,2.019 4.674,3.027 7.322,3.027 z"
               id="path5869"
               style="fill:#e74c3c;fill-opacity:1" />
            <path
               inkscape:connector-curvature="0"
               d="M 434.584,66.716 C 413.572,45.737 385.65,34.183 355.959,34.183 c -29.689,0 -57.613,11.554 -78.627,32.533 -4.055,4.05 -4.061,10.62 -0.01,14.677 4.049,4.056 10.621,4.061 14.676,0.011 17.094,-17.066 39.809,-26.465 63.961,-26.465 24.152,0 46.867,9.398 63.961,26.465 2.025,2.023 4.68,3.034 7.332,3.034 2.658,0 5.316,-1.016 7.344,-3.045 4.05,-4.057 4.045,-10.627 -0.012,-14.677 z"
               id="path5871"
               style="fill:#e74c3c;fill-opacity:1" />
          </g>
        </g>
        <g
           id="g5873"
           style="fill:#e74c3c;fill-opacity:1" />
        <g
           id="g5875"
           style="fill:#e74c3c;fill-opacity:1" />
        <g
           id="g5877"
           style="fill:#e74c3c;fill-opacity:1" />
        <g
           id="g5879"
           style="fill:#e74c3c;fill-opacity:1" />
        <g
           id="g5881"
           style="fill:#e74c3c;fill-opacity:1" />
        <g
           id="g5883"
           style="fill:#e74c3c;fill-opacity:1" />
        <g
           id="g5885"
           style="fill:#e74c3c;fill-opacity:1" />
        <g
           id="g5887"
           style="fill:#e74c3c;fill-opacity:1" />
        <g
           id="g5889"
           style="fill:#e74c3c;fill-opacity:1" />
        <g
           id="g5891"
           style="fill:#e74c3c;fill-opacity:1" />
        <g
           id="g5893"
           style="fill:#e74c3c;fill-opacity:1" />
        <g
           id="g5895"
           style="fill:#e74c3c;fill-opacity:1" />
        <g
           id="g5897"
           style="fill:#e74c3c;fill-opacity:1" />
        <g
           id="g5899"
           style="fill:#e74c3c;fill-opacity:1" />
        <g
           id="g5901"
           style="fill:#e74c3c;fill-opacity:1" />
      </g>
      <g
         transform="matrix(0.36965904,-0.36965904,-0.36965904,-0.36965904,-296.26826,1163.5793)"
         id="g5987"
         style="fill:#e74c3c;fill-opacity:1">
        <g
           id="g5933"
           style="fill:#e74c3c;fill-opacity:1">
          <g
             id="g5935"
             style="fill:#e74c3c;fill-opacity:1">
            <path
               inkscape:connector-curvature="0"
               d="m 14.283,241.524 8.148,8.297 c 9.76,9.938 22.663,14.925 35.574,14.925 12.604,0 25.22,-4.753 34.926,-14.284 L 195.483,149.75 c 9.48,-9.312 14.411,-21.49 14.848,-33.796 L 230.165,96.47 172.53,37.788 153.894,56.092 c -0.498,-0.015 -1.001,-0.021 -1.503,-0.021 -12.604,0 -25.215,4.715 -34.917,14.247 L 14.923,171.026 c -19.645,19.286 -19.931,50.852 -0.64,70.498 z M 25.853,182.158 128.405,81.441 c 6.416,-6.302 14.937,-9.775 23.986,-9.775 0.35,0 0.69,0.005 1.041,0.015 0.157,0.005 0.31,0.005 0.462,0.005 4.082,0 8.008,-1.603 10.933,-4.472 l 7.505,-7.373 35.774,36.424 -8.709,8.554 c -2.849,2.798 -4.519,6.583 -4.656,10.575 -0.314,8.831 -3.93,17.08 -10.187,23.219 L 82,239.325 c -6.441,6.333 -14.965,9.816 -23.996,9.816 -9.268,0 -17.951,-3.642 -24.44,-10.253 l -8.147,-8.297 c -13.239,-13.472 -13.041,-35.2 0.436,-48.433 z"
               id="path5937"
               style="fill:#e74c3c;fill-opacity:1" />
            <path
               inkscape:connector-curvature="0"
               d="M 265.747,50.346 218.786,2.527 C 217.775,1.499 216.125,1.488 215.109,2.496 L 182.026,34.98 c -0.492,0.482 -0.777,1.145 -0.782,1.83 -0.005,0.691 0.265,1.358 0.747,1.846 l 46.966,47.825 c 0.482,0.493 1.143,0.769 1.833,0.774 0.005,0 0.016,0 0.021,0 0.681,0 1.335,-0.272 1.828,-0.749 l 33.072,-32.489 c 1.031,-0.997 1.046,-2.643 0.036,-3.671 z M 216.785,20.487 247.761,52.019 230.968,68.52 199.992,36.988 216.785,20.487 Z"
               id="path5939"
               style="fill:#e74c3c;fill-opacity:1" />
            <path
               inkscape:connector-curvature="0"
               d="m 110.038,170.26 c 3.88,0 7.531,-1.513 10.275,-4.26 2.745,-2.742 4.253,-6.389 4.253,-10.273 0,-3.884 -1.513,-7.53 -4.253,-10.272 -5.492,-5.499 -15.069,-5.499 -20.551,0 -2.744,2.737 -4.252,6.388 -4.252,10.272 0,3.884 1.513,7.531 4.252,10.273 2.74,2.747 6.392,4.26 10.276,4.26 z m -2.922,-17.453 c 0.779,-0.781 1.815,-1.208 2.922,-1.208 1.102,0 2.138,0.427 2.923,1.208 0.779,0.777 1.206,1.818 1.206,2.92 0,1.103 -0.431,2.138 -1.211,2.92 -1.559,1.574 -4.281,1.564 -5.839,0 -0.78,-0.782 -1.206,-1.817 -1.206,-2.92 -0.001,-1.102 0.425,-2.138 1.205,-2.92 z"
               id="path5941"
               style="fill:#e74c3c;fill-opacity:1" />
            <path
               inkscape:connector-curvature="0"
               d="m 105.062,185.316 c 2.625,0 5.289,-0.417 7.883,-1.29 2.725,-0.904 4.197,-3.849 3.286,-6.576 -0.909,-2.727 -3.867,-4.21 -6.583,-3.285 -5.177,1.727 -10.778,0.401 -14.632,-3.448 -3.9,-3.904 -5.21,-9.785 -3.326,-14.975 0.978,-2.701 -0.417,-5.688 -3.115,-6.662 -2.699,-0.965 -5.685,0.421 -6.663,3.117 -3.25,8.973 -0.993,19.129 5.753,25.878 4.725,4.728 10.976,7.241 17.397,7.241 z"
               id="path5943"
               style="fill:#e74c3c;fill-opacity:1" />
            <path
               inkscape:connector-curvature="0"
               d="m 97.564,203.109 c 3.722,0 7.487,-0.594 11.159,-1.828 2.724,-0.909 4.197,-3.849 3.28,-6.581 -0.909,-2.717 -3.862,-4.204 -6.579,-3.28 -8.881,2.966 -18.499,0.701 -25.113,-5.921 -6.703,-6.692 -8.944,-16.788 -5.715,-25.694 0.978,-2.707 -0.417,-5.688 -3.115,-6.662 -2.689,-0.955 -5.677,0.421 -6.66,3.117 -4.603,12.69 -1.409,27.061 8.133,36.603 6.685,6.687 15.521,10.246 24.61,10.246 z"
               id="path5945"
               style="fill:#e74c3c;fill-opacity:1" />
            <path
               inkscape:connector-curvature="0"
               d="m 110.008,137.431 c 5.2,-1.879 11.075,-0.579 14.975,3.321 3.854,3.859 5.174,9.465 3.448,14.645 -0.912,2.717 0.556,5.667 3.28,6.571 0.546,0.183 1.102,0.274 1.648,0.274 2.173,0 4.209,-1.382 4.931,-3.555 2.985,-8.938 0.7,-18.626 -5.959,-25.283 -6.749,-6.751 -16.91,-8.991 -25.875,-5.746 -2.704,0.978 -4.098,3.961 -3.116,6.66 0.983,2.706 3.979,4.082 6.668,3.113 z"
               id="path5947"
               style="fill:#e74c3c;fill-opacity:1" />
            <path
               inkscape:connector-curvature="0"
               d="m 114.067,120.341 c 8.93,-3.24 19.007,-0.982 25.705,5.71 6.616,6.606 8.881,16.234 5.91,25.116 -0.908,2.717 0.564,5.667 3.286,6.576 0.548,0.183 1.106,0.273 1.65,0.273 2.173,0 4.204,-1.381 4.936,-3.56 4.22,-12.639 0.99,-26.342 -8.43,-35.759 -9.536,-9.542 -23.909,-12.73 -36.602,-8.132 -2.699,0.977 -4.098,3.96 -3.116,6.66 0.985,2.694 3.968,4.084 6.661,3.116 z"
               id="path5949"
               style="fill:#e74c3c;fill-opacity:1" />
          </g>
        </g>
        <g
           id="g5951"
           style="fill:#e74c3c;fill-opacity:1" />
        <g
           id="g5953"
           style="fill:#e74c3c;fill-opacity:1" />
        <g
           id="g5955"
           style="fill:#e74c3c;fill-opacity:1" />
        <g
           id="g5957"
           style="fill:#e74c3c;fill-opacity:1" />
        <g
           id="g5959"
           style="fill:#e74c3c;fill-opacity:1" />
        <g
           id="g5961"
           style="fill:#e74c3c;fill-opacity:1" />
        <g
           id="g5963"
           style="fill:#e74c3c;fill-opacity:1" />
        <g
           id="g5965"
           style="fill:#e74c3c;fill-opacity:1" />
        <g
           id="g5967"
           style="fill:#e74c3c;fill-opacity:1" />
        <g
           id="g5969"
           style="fill:#e74c3c;fill-opacity:1" />
        <g
           id="g5971"
           style="fill:#e74c3c;fill-opacity:1" />
        <g
           id="g5973"
           style="fill:#e74c3c;fill-opacity:1" />
        <g
           id="g5975"
           style="fill:#e74c3c;fill-opacity:1" />
        <g
           id="g5977"
           style="fill:#e74c3c;fill-opacity:1" />
        <g
           id="g5979"
           style="fill:#e74c3c;fill-opacity:1" />
      </g>
      <flowRoot
         transform="matrix(0.8,0,0,-0.8,-229.14286,1019.3188)"
         style="font-style:normal;font-weight:normal;font-size:40px;line-height:125%;font-family:Sans;letter-spacing:0px;word-spacing:0px;fill:#000000;fill-opacity:1;stroke:none;stroke-width:1px;stroke-linecap:butt;stroke-linejoin:miter;stroke-opacity:1"
         id="flowRoot4838"
         xml:space="preserve"><flowRegion
           id="flowRegion4840"><rect
             y="260.93362"
             x="-1440"
             height="111.42857"
             width="457.14285"
             id="rect4842" /></flowRegion><flowPara
           id="flowPara4844" /></flowRoot>      <text
         xml:space="preserve"
         style="font-style:normal;font-weight:normal;font-size:32px;line-height:125%;font-family:Sans;letter-spacing:0px;word-spacing:0px;fill:#2c3e50;fill-opacity:1;stroke:none;stroke-width:1px;stroke-linecap:butt;stroke-linejoin:miter;stroke-opacity:1;"
         x="-1238.0568"
         y="-1279.1433"
         id="text6294"
         sodipodi:linespacing="125%"
         transform="scale(1,-1)"><tspan
           sodipodi:role="line"
           id="tspan6296"
           x="-1238.0568"
           y="-1279.1433">Сотовая станция</tspan></text>
      <text
         xml:space="preserve"
         style="font-style:normal;font-weight:normal;font-size:32px;line-height:125%;font-family:Sans;letter-spacing:0px;word-spacing:0px;fill:#e74c3c;fill-opacity:1;stroke:none;stroke-width:1px;stroke-linecap:butt;stroke-linejoin:miter;stroke-opacity:1;"
         x="-784.3432"
         y="-1279.1433"
         id="text6298"
         sodipodi:linespacing="125%"
         transform="scale(1,-1)"><tspan
           sodipodi:role="line"
           x="-784.3432"
           y="-1279.1433"
           id="tspan6398">Антенна 3G/4G</tspan></text>
      <text
         xml:space="preserve"
         style="font-style:normal;font-weight:normal;font-size:32px;line-height:125%;font-family:Sans;letter-spacing:0px;word-spacing:0px;fill:#e74c3c;fill-opacity:1;stroke:none;stroke-width:1px;stroke-linecap:butt;stroke-linejoin:miter;stroke-opacity:1;"
         x="-408.57138"
         y="-1279.1433"
         id="text6302"
         sodipodi:linespacing="125%"
         transform="scale(1,-1)"><tspan
           sodipodi:role="line"
           id="tspan6304"
           x="-408.57138"
           y="-1279.1433">3G/4G модем</tspan></text>
      <text
         xml:space="preserve"
         style="font-style:normal;font-weight:normal;font-size:32px;line-height:125%;font-family:Sans;letter-spacing:0px;word-spacing:0px;fill:#e74c3c;fill-opacity:1;stroke:none;stroke-width:1px;stroke-linecap:butt;stroke-linejoin:miter;stroke-opacity:1;"
         x="-71.657143"
         y="-1278.0005"
         id="text6306"
         sodipodi:linespacing="125%"
         transform="scale(1,-1)"><tspan
           sodipodi:role="line"
           x="-71.657143"
           y="-1278.0005"
           id="tspan6506">Wi-Fi интернет-центр</tspan></text>
      <path
         style="fill:none;fill-rule:evenodd;stroke:#e74c3c;stroke-width:8;stroke-linecap:butt;stroke-linejoin:miter;stroke-miterlimit:4;stroke-dasharray:none;stroke-dashoffset:0;stroke-opacity:1"
         d="m -618.34689,1038.0359 0,-80.06751 273.26529,0 0,80.06751"
         id="path6312"
         inkscape:connector-curvature="0" />
      <path
         style="fill:none;fill-rule:evenodd;stroke:#2c3e50;stroke-width:8;stroke-linecap:butt;stroke-linejoin:miter;stroke-miterlimit:4;stroke-dasharray:8, 16;stroke-dashoffset:0;stroke-opacity:1"
         d="m -1098.2857,1038.0005 0,-80.00005 400.00003,0 0,87.07005"
         id="path6324"
         inkscape:connector-curvature="0"
         sodipodi:nodetypes="cccc" />
      <g
         id="g6471"
         transform="matrix(0.32679685,0,0,-0.32679685,412.75436,1237.6496)"
         style="stroke:none;stroke-opacity:1;fill:#2c3e50;fill-opacity:1">
        <g
           id="g6403"
           style="stroke:none;stroke-opacity:1;fill:#2c3e50;fill-opacity:1">
          <g
             id="g6405"
             style="stroke:none;stroke-opacity:1;fill:#2c3e50;fill-opacity:1">
            <g
               id="g6407"
               style="stroke:none;stroke-opacity:1;fill:#2c3e50;fill-opacity:1">
              <circle
                 id="circle6409"
                 r="16.056999"
                 cy="553.01202"
                 cx="503.625"
                 style="stroke:none;stroke-opacity:1;fill:#2c3e50;fill-opacity:1" />
              <path
                 id="path6411"
                 d="m 377.52,262.092 c -2.031,4.841 -7.63,7.132 -12.471,5.08 -4.842,-2.032 -7.133,-7.63 -5.08,-12.471 2.291,-5.399 5.04,-10.459 8.147,-15.061 3.228,-4.781 6.913,-9.264 10.917,-13.248 4.005,-4.004 8.447,-7.67 13.248,-10.917 4.662,-3.148 9.723,-5.897 15.021,-8.168 4.841,-2.052 10.459,0.199 12.531,5.04 2.052,4.841 -0.199,10.459 -5.041,12.511 -4.104,1.753 -8.088,3.924 -11.813,6.435 -3.686,2.49 -7.19,5.399 -10.398,8.606 -3.207,3.207 -6.115,6.733 -8.605,10.399 -2.572,3.806 -4.763,7.77 -6.456,11.794 z"
                 inkscape:connector-curvature="0"
                 style="stroke:none;stroke-opacity:1;fill:#2c3e50;fill-opacity:1" />
              <path
                 id="path6413"
                 d="m 336.062,260.877 c -1.354,5.1 -6.595,8.128 -11.693,6.773 -5.102,-1.354 -8.128,-6.594 -6.773,-11.694 0.678,-2.55 1.573,-5.359 2.609,-8.407 l -0.04,-0.02 c 0.877,-2.53 1.953,-5.299 3.188,-8.248 l 0.021,-0.04 -0.021,0 c 1.595,-3.745 3.407,-7.491 5.419,-11.176 1.974,-3.625 4.145,-7.172 6.476,-10.638 l -0.021,0 c 2.191,-3.247 4.683,-6.554 7.432,-9.881 l 0.02,-0.02 -0.02,-0.02 c 2.709,-3.267 5.479,-6.335 8.287,-9.144 2.688,-2.689 5.776,-5.499 9.204,-8.308 l 0.299,-0.239 c 3.208,-2.649 6.415,-5.06 9.562,-7.172 l 0.657,-0.398 c 3.248,-2.151 6.595,-4.203 10.001,-6.056 l 0,-0.02 0,-0.02 c 3.486,-1.893 7.252,-3.706 11.156,-5.379 2.511,-1.056 5.3,-2.132 8.208,-3.148 l 0,-0.02 c 2.948,-1.016 5.776,-1.893 8.485,-2.629 5.102,-1.355 10.341,1.673 11.694,6.773 1.354,5.1 -1.673,10.339 -6.772,11.694 -2.551,0.697 -4.96,1.415 -7.133,2.172 l 0,0 -0.04,0.02 c -2.171,0.737 -4.502,1.654 -6.973,2.689 -3.128,1.335 -6.335,2.889 -9.542,4.622 l -0.021,-0.02 c -2.89,1.554 -5.697,3.267 -8.407,5.06 l -0.657,0.498 c -2.908,1.973 -5.638,3.984 -8.048,5.957 l -0.062,0.04 -0.06,0.06 -0.259,0.219 c -2.49,2.032 -5.101,4.463 -7.789,7.132 -2.59,2.59 -5.001,5.2 -7.133,7.79 l 0,0 c -2.111,2.55 -4.224,5.379 -6.275,8.447 l -0.02,-0.02 0,0.02 c -1.952,2.889 -3.825,5.937 -5.52,9.064 -1.634,3.008 -3.188,6.215 -4.622,9.542 l 0,-0.02 c -0.876,2.052 -1.771,4.383 -2.669,7.013 l -0.04,-0.02 0,0.02 c -0.653,2.052 -1.371,4.442 -2.108,7.152 z"
                 inkscape:connector-curvature="0"
                 style="stroke:none;stroke-opacity:1;fill:#2c3e50;fill-opacity:1" />
              <path
                 id="path6415"
                 d="m 295.481,260.24 c -1.016,5.18 -6.037,8.566 -11.216,7.551 -5.18,-0.996 -8.566,-6.037 -7.55,-11.216 3.228,-16.236 8.885,-31.895 16.694,-46.438 l 0.02,-0.02 -0.02,-0.02 c 7.83,-14.563 17.751,-27.99 29.523,-39.764 11.773,-11.774 25.201,-21.715 39.784,-29.544 l 0.519,-0.259 c 14.402,-7.67 29.923,-13.248 45.979,-16.437 5.18,-0.996 10.221,2.371 11.217,7.55 0.996,5.179 -2.371,10.2 -7.551,11.216 -14.264,2.829 -27.95,7.75 -40.641,14.463 l -0.498,0.279 c -12.83,6.893 -24.743,15.738 -35.281,26.257 -10.52,10.519 -19.364,22.452 -26.258,35.282 l -0.021,-0.02 c -6.85,12.831 -11.851,26.676 -14.7,41.12 z"
                 inkscape:connector-curvature="0"
                 style="stroke:none;stroke-opacity:1;fill:#2c3e50;fill-opacity:1" />
              <path
                 id="path6417"
                 d="m 367.758,592.856 c 5.279,0 9.563,4.282 9.563,9.581 0,5.279 -4.304,9.563 -9.563,9.563 l -197.625,0 c -5.279,0 -9.583,-4.283 -9.583,-9.563 l 0,-0.259 0,-24.443 c 0,-4.064 2.55,-7.552 6.136,-8.945 l 43.27,-21.635 0,-18.847 c 0,-5.278 4.303,-9.583 9.583,-9.583 5.28,0 9.563,4.305 9.563,9.583 l 0,24.703 -0.04,0 c 0,3.486 -1.932,6.854 -5.259,8.526 l -44.087,22.054 0,9.265 188.042,0 z"
                 inkscape:connector-curvature="0"
                 style="stroke:none;stroke-opacity:1;fill:#2c3e50;fill-opacity:1" />
              <path
                 id="path6419"
                 d="m 262.77,537.891 c -5.279,0 -9.563,-4.282 -9.563,-9.562 0,-5.28 4.303,-9.582 9.563,-9.582 l 98.813,0 c 5.279,0 9.563,4.303 9.563,9.582 0,5.279 -4.304,9.562 -9.563,9.562 l -98.813,0 z"
                 inkscape:connector-curvature="0"
                 style="stroke:none;stroke-opacity:1;fill:#2c3e50;fill-opacity:1" />
              <path
                 id="path6421"
                 d="m 612,215.615 c 0,5.279 -4.283,9.562 -9.562,9.562 -5.28,0 -9.582,-4.283 -9.582,-9.562 l 0,-156.646 c 0,-10.917 -4.504,-20.898 -11.716,-28.11 -7.23,-7.211 -17.191,-11.714 -28.129,-11.714 l -494.042,0 c -10.917,0 -20.878,4.482 -28.11,11.674 l -0.04,0.04 c -7.192,7.232 -11.674,17.193 -11.674,28.11 l 0,370.547 c 0,10.917 4.502,20.878 11.714,28.109 l 0.418,0.479 c 7.192,6.934 16.974,11.236 27.671,11.236 l 302.614,0 c 5.278,0 9.562,4.303 9.562,9.563 0,5.278 -4.304,9.582 -9.562,9.582 l -302.593,0 c -15.858,0 -30.341,-6.415 -40.959,-16.716 l -0.677,-0.616 C 6.634,460.475 0,445.712 0,429.516 L 0,58.969 C 0,42.812 6.654,28.05 17.332,17.373 l 0.04,-0.04 C 28.05,6.654 42.812,0 58.969,0 L 553.011,0 C 569.228,0 583.99,6.654 594.667,17.332 605.326,27.991 612,42.752 612,58.99 l 0,156.625 z"
                 inkscape:connector-curvature="0"
                 style="stroke:none;stroke-opacity:1;fill:#2c3e50;fill-opacity:1" />
              <path
                 id="path6423"
                 d="m 550.242,213.363 c 0,5.279 -4.303,9.583 -9.563,9.583 -5.278,0 -9.562,-4.283 -9.562,-9.583 l 0,-132.48 -450.214,0 0,264.961 280.679,0 c 5.279,0 9.562,4.283 9.562,9.563 0,5.279 -4.303,9.582 -9.562,9.582 l -290.003,0 -0.259,0 c -5.279,0 -9.563,-4.304 -9.563,-9.582 l 0,-283.827 0,-0.26 c 0,-5.279 4.283,-9.563 9.563,-9.563 l 469.101,0 0.239,0 c 5.279,0 9.562,4.303 9.562,9.563 l 0,142.043 0.02,0 0,0 z"
                 inkscape:connector-curvature="0"
                 style="stroke:none;stroke-opacity:1;fill:#2c3e50;fill-opacity:1" />
              <path
                 id="path6425"
                 d="m 448.043,562.594 c -5.279,0 -9.562,-4.283 -9.562,-9.582 0,-5.278 4.282,-9.562 9.562,-9.562 l 12.352,0 c 5.279,0 9.582,4.283 9.582,9.562 0,5.28 -4.303,9.582 -9.582,9.582 l -12.352,0 z"
                 inkscape:connector-curvature="0"
                 style="stroke:none;stroke-opacity:1;fill:#2c3e50;fill-opacity:1" />
              <path
                 id="path6427"
                 d="m 549.625,309.407 -92,0 0,190.812 92,0 0,-190.812 0,0 z m -101.582,-19.164 110.905,0 0.239,0 c 5.278,0 9.562,4.303 9.562,9.583 l 0,209.718 0,0.259 c 0,5.279 -4.283,9.563 -9.562,9.563 l -110.905,0 -0.239,0 c -5.279,0 -9.562,-4.283 -9.562,-9.563 l 0,-209.74 0,-0.239 c -10e-4,-5.279 4.283,-9.581 9.562,-9.581 z"
                 inkscape:connector-curvature="0"
                 style="stroke:none;stroke-opacity:1;fill:#2c3e50;fill-opacity:1" />
              <path
                 id="path6429"
                 d="m 577.734,266.176 -148.218,0 c -4.124,0 -7.908,1.713 -10.657,4.422 l -0.04,0.04 c -2.709,2.749 -4.424,6.534 -4.424,10.658 l 0,296.438 c 0,4.124 1.715,7.929 4.464,10.657 2.729,2.749 6.515,4.464 10.657,4.464 l 148.22,0 c 4.144,0 7.929,-1.715 10.657,-4.464 2.749,-2.729 4.464,-6.533 4.464,-10.657 l 0,-296.437 c 0,-4.144 -1.715,-7.929 -4.464,-10.678 l -0.339,-0.358 c -2.69,-2.531 -6.335,-4.085 -10.32,-4.085 l 0,0 z m -148.218,-19.144 148.22,0 c 9.084,0 17.411,3.626 23.566,9.483 l 0.639,0.578 c 6.194,6.196 10.061,14.782 10.061,24.205 l 0,296.438 c 0,9.442 -3.865,18.01 -10.061,24.205 -6.196,6.194 -14.783,10.06 -24.206,10.06 l -148.219,0 c -9.423,0 -18.01,-3.865 -24.205,-10.061 -6.194,-6.217 -10.061,-14.803 -10.061,-24.205 l 0,-296.438 c 0,-9.383 3.865,-17.93 10.061,-24.146 l 0.04,-0.04 c 6.235,-6.215 14.782,-10.079 24.165,-10.079 z"
                 inkscape:connector-curvature="0"
                 style="stroke:none;stroke-opacity:1;fill:#2c3e50;fill-opacity:1" />
              <path
                 id="path6431"
                 d="m 546.855,562.594 c -5.279,0 -9.582,-4.283 -9.582,-9.582 0,-5.278 4.303,-9.562 9.582,-9.562 l 12.352,0 c 5.279,0 9.562,4.283 9.562,9.562 0,5.28 -4.282,9.582 -9.562,9.582 l -12.352,0 z"
                 inkscape:connector-curvature="0"
                 style="stroke:none;stroke-opacity:1;fill:#2c3e50;fill-opacity:1" />
              <path
                 id="path6433"
                 d="m 306,408.2 c -2.47,0 -4.722,1.016 -6.335,2.63 l -0.339,0.318 c -1.415,1.594 -2.291,3.705 -2.291,6.017 0,2.49 0.996,4.741 2.61,6.354 l 0.02,-0.021 c 1.613,1.614 3.865,2.61 6.335,2.61 2.49,0 4.722,-0.996 6.335,-2.57 l 0.04,-0.04 c 1.574,-1.613 2.57,-3.864 2.57,-6.335 0,-2.49 -0.996,-4.741 -2.59,-6.355 l -0.021,0.021 C 310.722,409.215 308.471,408.2 306,408.2 l 0,0 z m -19.882,-10.898 c 5.08,-5.08 12.132,-8.228 19.882,-8.228 7.75,0 14.782,3.146 19.862,8.228 l -0.021,0.021 0.021,0.02 c 5.06,5.062 8.228,12.093 8.228,19.822 0,7.71 -3.168,14.742 -8.228,19.822 l -0.04,0.04 c -5.08,5.06 -12.112,8.228 -19.822,8.228 -7.75,0 -14.782,-3.146 -19.882,-8.228 l 0.02,-0.021 -0.02,-0.02 c -5.061,-5.08 -8.228,-12.094 -8.228,-19.822 0,-7.411 2.909,-14.164 7.59,-19.165 l 0.638,-0.697 z"
                 inkscape:connector-curvature="0"
                 style="stroke:none;stroke-opacity:1;fill:#2c3e50;fill-opacity:1" />
            </g>
          </g>
        </g>
        <g
           id="g6435"
           style="stroke:none;stroke-opacity:1;fill:#2c3e50;fill-opacity:1" />
        <g
           id="g6437"
           style="stroke:none;stroke-opacity:1;fill:#2c3e50;fill-opacity:1" />
        <g
           id="g6439"
           style="stroke:none;stroke-opacity:1;fill:#2c3e50;fill-opacity:1" />
        <g
           id="g6441"
           style="stroke:none;stroke-opacity:1;fill:#2c3e50;fill-opacity:1" />
        <g
           id="g6443"
           style="stroke:none;stroke-opacity:1;fill:#2c3e50;fill-opacity:1" />
        <g
           id="g6445"
           style="stroke:none;stroke-opacity:1;fill:#2c3e50;fill-opacity:1" />
        <g
           id="g6447"
           style="stroke:none;stroke-opacity:1;fill:#2c3e50;fill-opacity:1" />
        <g
           id="g6449"
           style="stroke:none;stroke-opacity:1;fill:#2c3e50;fill-opacity:1" />
        <g
           id="g6451"
           style="stroke:none;stroke-opacity:1;fill:#2c3e50;fill-opacity:1" />
        <g
           id="g6453"
           style="stroke:none;stroke-opacity:1;fill:#2c3e50;fill-opacity:1" />
        <g
           id="g6455"
           style="stroke:none;stroke-opacity:1;fill:#2c3e50;fill-opacity:1" />
        <g
           id="g6457"
           style="stroke:none;stroke-opacity:1;fill:#2c3e50;fill-opacity:1" />
        <g
           id="g6459"
           style="stroke:none;stroke-opacity:1;fill:#2c3e50;fill-opacity:1" />
        <g
           id="g6461"
           style="stroke:none;stroke-opacity:1;fill:#2c3e50;fill-opacity:1" />
        <g
           id="g6463"
           style="stroke:none;stroke-opacity:1;fill:#2c3e50;fill-opacity:1" />
      </g>
      <path
         style="fill:none;fill-rule:evenodd;stroke:#2c3e50;stroke-width:8;stroke-linecap:butt;stroke-linejoin:miter;stroke-miterlimit:4;stroke-dasharray:8, 16;stroke-dashoffset:0;stroke-opacity:1"
         d="m 153.51185,1037.7925 0,-79.60363 367.26208,0 0,79.60363"
         id="path6504"
         inkscape:connector-curvature="0" />
      <path
         style="fill:none;fill-rule:evenodd;stroke:#e74c3c;stroke-width:8;stroke-linecap:butt;stroke-linejoin:miter;stroke-miterlimit:4;stroke-dasharray:none;stroke-opacity:1"
         d="m -278.50203,1037.0378 0,-79.31622 309.004128,0 0,91.06412"
         id="path6510"
         inkscape:connector-curvature="0"
         sodipodi:nodetypes="cccc" />
      <text
         xml:space="preserve"
         style="font-style:normal;font-weight:normal;font-size:32px;line-height:125%;font-family:Sans;letter-spacing:0px;word-spacing:0px;fill:#2c3e50;fill-opacity:1;stroke:none;stroke-width:1px;stroke-linecap:butt;stroke-linejoin:miter;stroke-opacity:1;"
         x="-994.7428"
         y="-894.68604"
         id="text7979"
         sodipodi:linespacing="125%"
         transform="scale(1,-1)"><tspan
           sodipodi:role="line"
           id="tspan7981"
           x="-994.7428"
           y="-894.68604">3G или 4G</tspan></text>
      <text
         xml:space="preserve"
         style="font-style:normal;font-weight:normal;font-size:32px;line-height:125%;font-family:Sans;letter-spacing:0px;word-spacing:0px;fill:#e74c3c;fill-opacity:1;stroke:none;stroke-width:1px;stroke-linecap:butt;stroke-linejoin:miter;stroke-opacity:1;"
         x="-624.80017"
         y="-893.08612"
         id="text7983"
         sodipodi:linespacing="125%"
         transform="scale(1,-1)"><tspan
           sodipodi:role="line"
           id="tspan7985"
           x="-624.80017"
           y="-893.08612">Кабельная сборка</tspan></text>
      <text
         xml:space="preserve"
         style="font-style:normal;font-weight:normal;font-size:32px;line-height:125%;font-family:Sans;letter-spacing:0px;word-spacing:0px;fill:#e74c3c;fill-opacity:1;stroke:none;stroke-width:1px;stroke-linecap:butt;stroke-linejoin:miter;stroke-opacity:1;"
         x="-156.34283"
         y="-891.94324"
         id="text7987"
         sodipodi:linespacing="125%"
         transform="scale(1,-1)"><tspan
           sodipodi:role="line"
           id="tspan7989"
           x="-156.34283"
           y="-891.94324">USB</tspan></text>
      <text
         xml:space="preserve"
         style="font-style:normal;font-weight:normal;font-size:32px;line-height:125%;font-family:Sans;letter-spacing:0px;word-spacing:0px;fill:#2c3e50;fill-opacity:1;stroke:none;stroke-width:1px;stroke-linecap:butt;stroke-linejoin:miter;stroke-opacity:1;"
         x="304.45718"
         y="-891.82898"
         id="text7991"
         sodipodi:linespacing="125%"
         transform="scale(1,-1)"><tspan
           sodipodi:role="line"
           id="tspan7993"
           x="304.45718"
           y="-891.82898">Wi-Fi</tspan></text>
    </g>
  </g>
</svg>
