<svg xmlns="http://www.w3.org/2000/svg" width="304" height="195" version="1"><g><path d="M280.128 41.362v2.178h3.725V53.8h2.367V43.572h3.662v-2.24l-9.754.03zM582.378 711.18v12.31h1.894v-9.502l2.955 8.257 1.994-.014 3.067-8.115v9.533h1.926v-12.5h-3.536l-2.493 8.786-2.558-8.755h-3.25zm-292.092 73.993v-34.85s-.38-15.027 14.647-30.053c15.026-15.026 29.295-13.384 29.295-13.384h19.697s24.75-37.123 73.742-37.123c48.992 0 77.024 36.618 77.024 36.618h22.223s5.61-.253 12.663 3.288c7.127 3.58 13.538 7.703 20.066 17.835 6.546 10.16 7.425 17.48 7.425 22.82v38.133c0 7.95-.758 14.142-14.142 27.526-13.385 13.385-30.558 11.87-30.558 11.87H356.77s-25.55 36.825-73.49 36.825c-47.946 0-72.477-36.573-72.477-36.573h-22.73s-15.025.884-29.546-13.637c-14.52-14.52-13.132-29.294-13.384-29.294zm24.117-50.13l14.142 60.99h15.53l6.946-35.104 6.693 35.102h15.91l14.143-60.61h-16.92l-4.925 33.21-6.945-33.336h-15.278l-6.945 33.714-5.177-33.84-17.173-.126zm81.354 17.062v43.87h14.926v-43.87h-14.926zm17.187-12.393c0 4.244-4.213 7.69-9.406 7.69-5.193 0-9.408-3.446-9.408-7.69s4.215-7.69 9.408-7.69 9.407 3.446 9.407 7.69zm3.62 79.51s18.633-14.14 18.633-35.186v-35.46c0-5.7 2.923-13.777 11.67-22.523 8.745-8.745 16.45-10.13 21.8-10.13h55.54c9.44.13 16.775 4.088 23.517 10.402 6.248 6.564 10.312 14.79 10.312 23.79v33.92c0 6.678-1.79 16.354-10.673 24.514-8.885 8.16-15.73 10.673-22.796 10.673H271.42zm102.576-67.072v43.87h14.925v-43.87h-14.924zm17.187-12.393c0 4.245-4.215 7.69-9.408 7.69-5.192 0-9.407-3.445-9.407-7.69 0-4.244 4.215-7.688 9.407-7.688 5.193 0 9.408 3.443 9.408 7.687zm-79.963 55.947h16.734v-18.272h31.84v-13.66h-31.93v-14.29h36.092V400.42H311.13l.09 60.424z" fill-rule="evenodd"/><path d="M38.354 125.392c-.448-1.334-13.575-58.5-13.575-59.114 0-.485 1.978-.64 8.186-.64 4.503 0 8.186.173 8.185.384-.002.648 4.63 31 4.94 32.365.27 1.187.317 1.205.662.256.205-.563 1.85-8.225 3.655-17.027l3.283-16.003 7.398.14 7.398.14 3.35 16.208c1.844 8.915 3.493 16.35 3.665 16.52.412.412.49-.036 3.054-17.503L80.75 66.15h8.09c4.448 0 8.088.146 8.088.325 0 .37-13.215 57.27-13.62 58.648-.237.8-1.068.895-7.87.895s-7.636-.094-7.875-.895c-.147-.493-1.663-8.25-3.368-17.235-1.706-8.987-3.208-16.446-3.337-16.576-.4-.4-.644.693-3.975 17.82l-3.234 16.63-7.54.142c-5.76.108-7.588-.012-7.756-.512z" fill="#fff"/><path d="M105.627 104.27V82.525h14.329V126.02h-14.327V104.27z" fill="#fff"/><path d="M109.877 76.87c-.898-.276-2.433-1.254-3.41-2.176-3.388-3.195-2.848-7.712 1.244-10.42 1.77-1.172 2.734-1.434 5.286-1.44 11.802-.034 12.578 13.616.818 14.384-1.266.083-3.038-.074-3.937-.35z" fill="#fff"/><path d="M131.32 145.04c6-6.28 9.774-12.395 12.213-19.79 1.143-3.464 1.192-4.344 1.487-26.863.328-25.024.288-24.638 3.2-30.446 1.7-3.392 5.826-8.648 9.525-12.138 4.095-3.863 8.245-6.493 12.867-8.156l3.327-1.196h31.724c34.91 0 34.395-.04 41.447 3.264 8.95 4.193 17.217 14.283 19.443 23.726 1.125 4.77 1.114 44.373-.014 48.76-2.336 9.088-8.822 17.2-18.26 22.84-7.167 4.283-2.632 4.005-65.244 4.005h-55.542l3.827-4.006zm112.465-40.77V82.013H228.434v44.518H243.785v-22.26zm-60.892 12.794v-8.955h32.237V93.78h-32.238V79.966h36.332v-14.84h-53.89l.336 8.525c.186 4.69.337 18.39.337 30.447v21.92h16.886v-8.953zm57.448-39.686c5.507-1.53 7.776-8.267 4.052-12.032-4.335-4.382-11.794-4.258-15.595.26-2.588 3.073-2.456 6.603.35 9.41 2.64 2.64 6.93 3.545 11.194 2.362z" fill="#fff"/></g></svg>